<svg xmlns="http://www.w3.org/2000/svg" xmlns:xlink="http://www.w3.org/1999/xlink" width="500" zoomAndPan="magnify" viewBox="0 0 375 374.999991" height="500" preserveAspectRatio="xMidYMid meet" version="1.0"><defs><clipPath id="cdadce5fb7"><path d="M 80.34375 66.15625 L 294.648438 66.15625 L 294.648438 308.925781 L 80.34375 308.925781 Z M 80.34375 66.15625 " clip-rule="nonzero"/></clipPath><clipPath id="7d484fc77c"><path d="M 174.53125 304.640625 L 93.308594 257.382812 C 85.28125 252.714844 80.34375 244.128906 80.34375 234.839844 L 80.34375 140.152344 C 80.34375 130.867188 85.28125 122.28125 93.308594 117.609375 L 174.53125 70.351562 C 182.546875 65.691406 192.449219 65.691406 200.460938 70.351562 L 281.683594 117.609375 C 289.710938 122.28125 294.648438 130.867188 294.648438 140.152344 L 294.648438 234.839844 C 294.648438 244.128906 289.710938 252.714844 281.683594 257.382812 L 200.460938 304.640625 C 192.449219 309.304688 182.546875 309.304688 174.53125 304.640625 Z M 174.53125 304.640625 " clip-rule="nonzero"/></clipPath><clipPath id="09ffa6ac75"><path d="M 93.75 169 L 141 169 L 141 206 L 93.75 206 Z M 93.75 169 " clip-rule="nonzero"/></clipPath><clipPath id="c4d4a2bef7"><path d="M 169 93.75 L 206 93.75 L 206 141 L 169 141 Z M 169 93.75 " clip-rule="nonzero"/></clipPath><clipPath id="11fd2eea4e"><path d="M 169 234 L 206 234 L 206 281.25 L 169 281.25 Z M 169 234 " clip-rule="nonzero"/></clipPath><clipPath id="8022cec207"><path d="M 234 169 L 281.25 169 L 281.25 206 L 234 206 Z M 234 169 " clip-rule="nonzero"/></clipPath><clipPath id="bca4c93e08"><path d="M 169 234 L 188 234 L 188 281.25 L 169 281.25 Z M 169 234 " clip-rule="nonzero"/></clipPath><clipPath id="baf1f22522"><path d="M 169 93.75 L 188 93.75 L 188 141 L 169 141 Z M 169 93.75 " clip-rule="nonzero"/></clipPath></defs><path fill="#528ca3" d="M 23.804688 83.421875 C 21.753906 118.433594 27.246094 172.410156 50.171875 225.21875 C 73.097656 277.953125 113.597656 329.808594 181.640625 359.617188 L 181.640625 14.796875 L 31.273438 73.167969 L 24.242188 75.878906 Z M 23.804688 83.421875 " fill-opacity="1" fill-rule="nonzero"/><path fill="#385666" d="M 181.640625 14.867188 L 181.640625 359.691406 C 113.597656 329.808594 73.097656 277.953125 50.171875 225.21875 C 27.246094 172.410156 21.753906 118.433594 23.804688 83.421875 L 24.242188 75.878906 L 31.273438 73.167969 Z M 193.359375 359.691406 L 193.359375 14.867188 L 343.726562 73.167969 L 350.757812 75.878906 L 351.195312 83.421875 C 353.246094 118.433594 347.753906 172.410156 324.828125 225.21875 C 301.902344 277.953125 261.402344 329.808594 193.359375 359.617188 Z M 362.914062 82.761719 L 362.035156 67.75 L 347.972656 62.253906 L 195.996094 3.296875 L 187.5 0 L 179.003906 3.296875 L 27.027344 62.253906 L 13.039062 67.75 L 12.160156 82.761719 C 10.035156 119.3125 15.746094 175.269531 39.476562 229.90625 C 63.429688 285.058594 106.128906 339.769531 178.199219 370.972656 L 187.5 375 L 196.800781 370.972656 C 268.871094 339.769531 311.570312 285.058594 335.523438 229.90625 C 359.253906 175.195312 364.964844 119.3125 362.839844 82.761719 Z M 362.914062 82.761719 " fill-opacity="1" fill-rule="nonzero"/><g clip-path="url(#cdadce5fb7)"><g clip-path="url(#7d484fc77c)"><path fill="#ffffff" d="M 294.648438 62.808594 L 294.648438 312.277344 L 80.34375 312.277344 L 80.34375 62.808594 Z M 294.648438 62.808594 " fill-opacity="1" fill-rule="nonzero"/></g></g><path fill="#563c5c" d="M 124.308594 235.9375 L 126.449219 238.074219 L 144.003906 220.519531 C 146.894531 217.628906 151.585938 217.628906 154.480469 220.519531 C 157.375 223.414062 157.375 228.105469 154.480469 231 L 136.925781 248.554688 L 139.0625 250.691406 C 143.746094 255.371094 140.363281 263.335938 133.824219 263.335938 C 129.957031 263.335938 130.253906 262.839844 113.832031 246.414062 C 106.910156 239.492188 117.382812 229.007812 124.308594 235.9375 Z M 124.308594 235.9375 " fill-opacity="1" fill-rule="nonzero"/><g clip-path="url(#09ffa6ac75)"><path fill="#563c5c" d="M 108.566406 177.070312 L 108.566406 180.089844 L 133.394531 180.089844 C 137.484375 180.089844 140.800781 183.40625 140.800781 187.5 C 140.800781 191.589844 137.484375 194.910156 133.394531 194.910156 L 108.566406 194.910156 L 108.566406 197.929688 C 108.566406 207.71875 93.75 207.730469 93.75 197.929688 L 93.75 177.070312 C 93.75 167.277344 108.566406 167.269531 108.566406 177.070312 Z M 108.566406 177.070312 " fill-opacity="1" fill-rule="nonzero"/></g><path fill="#563c5c" d="M 144.003906 154.480469 L 126.445312 136.925781 L 124.308594 139.0625 C 117.398438 145.972656 106.914062 135.5 113.832031 128.585938 C 126.5625 115.851562 100.425781 141.992188 128.582031 113.832031 C 135.503906 106.910156 145.992188 117.378906 139.0625 124.308594 L 136.925781 126.449219 L 154.480469 144.003906 C 157.371094 146.894531 157.371094 151.585938 154.480469 154.480469 C 151.585938 157.371094 146.894531 157.371094 144.003906 154.480469 Z M 144.003906 154.480469 " fill-opacity="1" fill-rule="nonzero"/><g clip-path="url(#c4d4a2bef7)"><path fill="#563c5c" d="M 177.070312 93.75 L 197.929688 93.75 C 207.71875 93.75 207.730469 108.566406 197.929688 108.566406 L 194.910156 108.566406 L 194.910156 133.394531 C 194.910156 137.484375 191.589844 140.800781 187.5 140.800781 C 183.40625 140.800781 180.089844 137.484375 180.089844 133.394531 L 180.089844 108.566406 L 177.070312 108.566406 C 167.277344 108.566406 167.269531 93.75 177.070312 93.75 Z M 177.070312 93.75 " fill-opacity="1" fill-rule="nonzero"/></g><g clip-path="url(#11fd2eea4e)"><path fill="#563c5c" d="M 177.070312 266.433594 L 180.089844 266.433594 L 180.089844 241.605469 C 180.089844 237.515625 183.40625 234.199219 187.5 234.199219 C 191.589844 234.199219 194.910156 237.515625 194.910156 241.605469 L 194.910156 266.433594 L 197.929688 266.433594 C 207.71875 266.433594 207.730469 281.25 197.929688 281.25 L 177.070312 281.25 C 167.277344 281.25 167.269531 266.433594 177.070312 266.433594 Z M 177.070312 266.433594 " fill-opacity="1" fill-rule="nonzero"/></g><path fill="#563c5c" d="M 238.074219 126.449219 L 235.9375 124.308594 C 229.015625 117.386719 239.484375 106.902344 246.414062 113.832031 C 259.148438 126.566406 233.007812 100.425781 261.167969 128.585938 C 265.851562 133.265625 262.46875 141.230469 255.929688 141.230469 C 252.375 141.230469 250.761719 139.136719 248.554688 136.925781 L 231 154.480469 C 228.105469 157.371094 223.414062 157.371094 220.519531 154.480469 C 217.628906 151.585938 217.628906 146.894531 220.519531 144.003906 Z M 238.074219 126.449219 " fill-opacity="1" fill-rule="nonzero"/><g clip-path="url(#8022cec207)"><path fill="#563c5c" d="M 241.605469 194.910156 C 237.515625 194.910156 234.199219 191.589844 234.199219 187.5 C 234.199219 183.410156 237.515625 180.089844 241.605469 180.089844 L 266.433594 180.089844 L 266.433594 177.070312 C 266.433594 167.28125 281.25 167.269531 281.25 177.070312 L 281.25 197.929688 C 281.25 207.71875 266.433594 207.730469 266.433594 197.929688 L 266.433594 194.910156 Z M 241.605469 194.910156 " fill-opacity="1" fill-rule="nonzero"/></g><path fill="#563c5c" d="M 230.996094 220.519531 L 248.554688 238.074219 L 250.691406 235.9375 C 257.613281 229.015625 268.097656 239.484375 261.167969 246.414062 C 248.4375 259.148438 274.574219 233.007812 246.414062 261.167969 C 239.550781 268.03125 228.921875 257.707031 235.9375 250.6875 L 238.074219 248.550781 L 220.519531 230.996094 C 217.628906 228.105469 217.628906 223.414062 220.519531 220.519531 C 223.414062 217.628906 228.105469 217.628906 230.996094 220.519531 Z M 230.996094 220.519531 " fill-opacity="1" fill-rule="nonzero"/><g clip-path="url(#bca4c93e08)"><path fill="#563c5c" d="M 177.070312 266.433594 L 180.089844 266.433594 L 180.089844 241.605469 C 180.089844 237.515625 183.40625 234.199219 187.5 234.199219 L 187.5 281.25 L 177.070312 281.25 C 167.277344 281.25 167.269531 266.433594 177.070312 266.433594 Z M 177.070312 266.433594 " fill-opacity="1" fill-rule="nonzero"/></g><g clip-path="url(#baf1f22522)"><path fill="#563c5c" d="M 177.070312 93.75 L 187.5 93.75 L 187.5 140.800781 C 183.40625 140.800781 180.089844 137.484375 180.089844 133.394531 L 180.089844 108.566406 L 177.070312 108.566406 C 167.277344 108.566406 167.269531 93.75 177.070312 93.75 Z M 177.070312 93.75 " fill-opacity="1" fill-rule="nonzero"/></g><path fill="#c6adce" d="M 187.5 249.015625 C 221.417969 249.015625 249.015625 221.417969 249.015625 187.5 C 249.015625 153.578125 221.417969 125.984375 187.5 125.984375 C 153.578125 125.984375 125.984375 153.578125 125.984375 187.5 C 125.984375 221.417969 153.578125 249.015625 187.5 249.015625 Z M 187.5 249.015625 " fill-opacity="1" fill-rule="nonzero"/><path fill="#563c5c" d="M 184.507812 175.914062 C 184.507812 176.449219 184.53125 176.980469 184.585938 177.515625 C 184.636719 178.046875 184.714844 178.574219 184.820312 179.097656 C 184.925781 179.625 185.054688 180.140625 185.210938 180.652344 C 185.367188 181.167969 185.546875 181.667969 185.75 182.164062 C 185.953125 182.65625 186.183594 183.140625 186.4375 183.613281 C 186.6875 184.085938 186.960938 184.542969 187.257812 184.988281 C 187.558594 185.433594 187.875 185.859375 188.214844 186.273438 C 188.554688 186.6875 188.914062 187.085938 189.289062 187.460938 C 189.667969 187.839844 190.066406 188.199219 190.480469 188.539062 C 190.890625 188.878906 191.320312 189.195312 191.765625 189.492188 C 192.210938 189.789062 192.667969 190.066406 193.140625 190.316406 C 193.613281 190.570312 194.097656 190.796875 194.589844 191.003906 C 195.085938 191.207031 195.585938 191.386719 196.097656 191.542969 C 196.609375 191.699219 197.128906 191.828125 197.652344 191.933594 C 198.179688 192.035156 198.707031 192.117188 199.238281 192.167969 C 199.773438 192.21875 200.304688 192.246094 200.839844 192.246094 C 201.375 192.246094 201.910156 192.21875 202.441406 192.167969 C 202.972656 192.117188 203.503906 192.035156 204.027344 191.933594 C 204.550781 191.828125 205.070312 191.699219 205.582031 191.542969 C 206.09375 191.386719 206.597656 191.207031 207.089844 191.003906 C 207.585938 190.796875 208.070312 190.570312 208.539062 190.316406 C 209.011719 190.066406 209.46875 189.789062 209.914062 189.492188 C 210.359375 189.195312 210.789062 188.878906 211.203125 188.539062 C 211.617188 188.199219 212.011719 187.839844 212.390625 187.460938 C 212.769531 187.085938 213.128906 186.6875 213.46875 186.273438 C 213.804688 185.859375 214.125 185.433594 214.421875 184.988281 C 214.71875 184.542969 214.992188 184.085938 215.246094 183.613281 C 215.496094 183.140625 215.726562 182.65625 215.929688 182.164062 C 216.136719 181.667969 216.316406 181.167969 216.472656 180.652344 C 216.625 180.140625 216.757812 179.625 216.859375 179.097656 C 216.964844 178.574219 217.042969 178.046875 217.097656 177.515625 C 217.148438 176.980469 217.175781 176.449219 217.175781 175.914062 C 217.175781 175.378906 217.148438 174.84375 217.097656 174.3125 C 217.042969 173.78125 216.964844 173.25 216.859375 172.726562 C 216.757812 172.203125 216.625 171.683594 216.472656 171.171875 C 216.316406 170.660156 216.136719 170.15625 215.929688 169.660156 C 215.726562 169.167969 215.496094 168.683594 215.246094 168.214844 C 214.992188 167.742188 214.71875 167.28125 214.421875 166.839844 C 214.125 166.394531 213.804688 165.964844 213.46875 165.550781 C 213.128906 165.136719 212.769531 164.742188 212.390625 164.363281 C 212.011719 163.984375 211.617188 163.625 211.203125 163.285156 C 210.789062 162.945312 210.359375 162.628906 209.914062 162.332031 C 209.46875 162.035156 209.011719 161.761719 208.539062 161.507812 C 208.070312 161.253906 207.585938 161.027344 207.089844 160.824219 C 206.597656 160.617188 206.09375 160.4375 205.582031 160.28125 C 205.070312 160.128906 204.550781 159.996094 204.027344 159.894531 C 203.503906 159.789062 202.972656 159.710938 202.441406 159.65625 C 201.910156 159.605469 201.375 159.578125 200.839844 159.578125 C 200.304688 159.578125 199.773438 159.605469 199.238281 159.65625 C 198.707031 159.710938 198.179688 159.789062 197.652344 159.894531 C 197.128906 159.996094 196.609375 160.128906 196.097656 160.28125 C 195.585938 160.4375 195.085938 160.617188 194.589844 160.824219 C 194.097656 161.027344 193.613281 161.253906 193.140625 161.507812 C 192.667969 161.761719 192.210938 162.035156 191.765625 162.332031 C 191.320312 162.628906 190.890625 162.945312 190.480469 163.285156 C 190.066406 163.625 189.667969 163.984375 189.289062 164.363281 C 188.914062 164.742188 188.554688 165.136719 188.214844 165.550781 C 187.875 165.964844 187.558594 166.394531 187.257812 166.839844 C 186.960938 167.28125 186.6875 167.742188 186.4375 168.214844 C 186.183594 168.683594 185.953125 169.167969 185.75 169.660156 C 185.546875 170.15625 185.367188 170.660156 185.210938 171.171875 C 185.054688 171.683594 184.925781 172.203125 184.820312 172.726562 C 184.714844 173.25 184.636719 173.78125 184.585938 174.3125 C 184.53125 174.84375 184.507812 175.378906 184.507812 175.914062 Z M 184.507812 175.914062 " fill-opacity="1" fill-rule="nonzero"/><path fill="#a47dae" d="M 187.5 125.984375 L 187.5 249.015625 C 153.578125 249.015625 125.984375 221.417969 125.984375 187.5 C 125.984375 153.578125 153.578125 125.984375 187.5 125.984375 Z M 187.5 125.984375 " fill-opacity="1" fill-rule="nonzero"/><path fill="#563c5c" d="M 187.5 166.488281 L 187.5 185.332031 C 185.617188 182.667969 184.503906 179.421875 184.503906 175.910156 C 184.503906 172.398438 185.617188 169.152344 187.5 166.488281 Z M 187.5 166.488281 " fill-opacity="1" fill-rule="nonzero"/><path fill="#563c5c" d="M 164.085938 200.839844 C 164.085938 201.5 164.152344 202.15625 164.28125 202.804688 C 164.410156 203.453125 164.601562 204.085938 164.851562 204.695312 C 165.105469 205.304688 165.417969 205.886719 165.785156 206.4375 C 166.152344 206.988281 166.570312 207.496094 167.035156 207.964844 C 167.503906 208.429688 168.011719 208.847656 168.5625 209.214844 C 169.113281 209.582031 169.695312 209.894531 170.304688 210.148438 C 170.914062 210.398438 171.546875 210.589844 172.195312 210.71875 C 172.84375 210.847656 173.5 210.914062 174.160156 210.914062 C 174.820312 210.914062 175.476562 210.847656 176.125 210.71875 C 176.773438 210.589844 177.402344 210.398438 178.015625 210.148438 C 178.625 209.894531 179.207031 209.582031 179.757812 209.214844 C 180.304688 208.847656 180.816406 208.429688 181.28125 207.964844 C 181.75 207.496094 182.167969 206.988281 182.535156 206.4375 C 182.902344 205.886719 183.214844 205.304688 183.464844 204.695312 C 183.71875 204.085938 183.910156 203.453125 184.039062 202.804688 C 184.167969 202.15625 184.234375 201.5 184.234375 200.839844 C 184.234375 200.179688 184.167969 199.523438 184.039062 198.875 C 183.910156 198.226562 183.71875 197.597656 183.464844 196.984375 C 183.214844 196.375 182.902344 195.792969 182.535156 195.242188 C 182.167969 194.695312 181.75 194.183594 181.28125 193.71875 C 180.816406 193.25 180.304688 192.832031 179.757812 192.464844 C 179.207031 192.097656 178.625 191.785156 178.015625 191.535156 C 177.402344 191.28125 176.773438 191.089844 176.125 190.960938 C 175.476562 190.832031 174.820312 190.765625 174.160156 190.765625 C 173.5 190.765625 172.84375 190.832031 172.195312 190.960938 C 171.546875 191.089844 170.914062 191.28125 170.304688 191.535156 C 169.695312 191.785156 169.113281 192.097656 168.5625 192.464844 C 168.011719 192.832031 167.503906 193.25 167.035156 193.71875 C 166.570312 194.183594 166.152344 194.695312 165.785156 195.242188 C 165.417969 195.792969 165.105469 196.375 164.851562 196.984375 C 164.601562 197.597656 164.410156 198.226562 164.28125 198.875 C 164.152344 199.523438 164.085938 200.179688 164.085938 200.839844 Z M 164.085938 200.839844 " fill-opacity="1" fill-rule="nonzero"/></svg>