<svg xmlns="http://www.w3.org/2000/svg" xmlns:xlink="http://www.w3.org/1999/xlink" width="500" zoomAndPan="magnify" viewBox="0 0 375 374.999991" height="500" preserveAspectRatio="xMidYMid meet" version="1.0"><defs><clipPath id="d2be74369f"><path d="M 74.707031 60 L 300.292969 60 L 300.292969 315 L 74.707031 315 Z M 74.707031 60 " clip-rule="nonzero"/></clipPath><clipPath id="94619dd231"><path d="M 174.535156 311.207031 L 87.671875 260.667969 C 79.644531 256 74.707031 247.410156 74.707031 238.125 L 74.707031 136.875 C 74.707031 127.589844 79.644531 119 87.671875 114.332031 L 174.535156 63.792969 C 182.550781 59.128906 192.449219 59.128906 200.464844 63.792969 L 287.328125 114.332031 C 295.355469 119 300.292969 127.589844 300.292969 136.875 L 300.292969 238.125 C 300.292969 247.410156 295.355469 256 287.328125 260.667969 L 200.464844 311.207031 C 192.449219 315.871094 182.550781 315.871094 174.535156 311.207031 Z M 174.535156 311.207031 " clip-rule="nonzero"/></clipPath><clipPath id="c6c6da6205"><path d="M 238 167 L 290.625 167 L 290.625 208 L 238 208 Z M 238 167 " clip-rule="nonzero"/></clipPath><clipPath id="9e67b59997"><path d="M 167 84.375 L 208 84.375 L 208 137 L 167 137 Z M 167 84.375 " clip-rule="nonzero"/></clipPath><clipPath id="904902a1f6"><path d="M 167 238 L 208 238 L 208 290.625 L 167 290.625 Z M 167 238 " clip-rule="nonzero"/></clipPath><clipPath id="5ba9e80fdf"><path d="M 84.375 167 L 137 167 L 137 208 L 84.375 208 Z M 84.375 167 " clip-rule="nonzero"/></clipPath><clipPath id="ee42f1df23"><path d="M 187 238 L 208 238 L 208 290.625 L 187 290.625 Z M 187 238 " clip-rule="nonzero"/></clipPath><clipPath id="823453a6a8"><path d="M 187 84.375 L 208 84.375 L 208 137 L 187 137 Z M 187 84.375 " clip-rule="nonzero"/></clipPath></defs><path fill="#528ca3" d="M 23.4375 102.464844 C 23.804688 173.21875 52.953125 300.367188 173.289062 357.933594 C 176 359.253906 178.785156 360.132812 181.640625 360.644531 L 181.640625 14.207031 C 179.003906 14.648438 176.367188 15.453125 173.804688 16.480469 L 44.3125 71.410156 C 32.152344 76.609375 23.363281 88.402344 23.4375 102.464844 Z M 23.4375 102.464844 " fill-opacity="1" fill-rule="nonzero"/><path fill="#385666" d="M 193.359375 14.207031 C 196.070312 14.648438 198.707031 15.453125 201.269531 16.480469 L 330.6875 71.410156 C 342.847656 76.609375 351.636719 88.402344 351.5625 102.464844 C 351.195312 173.21875 322.046875 300.367188 201.78125 357.933594 C 199.070312 359.253906 196.214844 360.132812 193.359375 360.644531 Z M 181.640625 14.207031 L 181.640625 360.644531 C 178.785156 360.132812 175.925781 359.253906 173.289062 357.933594 C 52.953125 300.367188 23.804688 173.21875 23.4375 102.464844 C 23.363281 88.476562 32.152344 76.609375 44.3125 71.410156 L 173.730469 16.480469 C 176.292969 15.378906 178.929688 14.648438 181.566406 14.207031 Z M 205.808594 5.710938 C 194.089844 0.730469 180.90625 0.730469 169.1875 5.710938 L 39.769531 60.644531 C 23.65625 67.457031 11.644531 83.347656 11.71875 102.539062 C 12.085938 175.195312 41.96875 308.128906 168.164062 368.554688 C 180.394531 374.414062 194.605469 374.414062 206.835938 368.554688 C 333.105469 308.128906 362.914062 175.195312 363.28125 102.539062 C 363.355469 83.347656 351.34375 67.457031 335.230469 60.644531 Z M 205.808594 5.710938 " fill-opacity="1" fill-rule="nonzero"/><g clip-path="url(#d2be74369f)"><g clip-path="url(#94619dd231)"><path fill="#9cc2af" d="M 300.292969 56.25 L 300.292969 318.847656 L 74.707031 318.847656 L 74.707031 56.25 Z M 300.292969 56.25 " fill-opacity="1" fill-rule="nonzero"/></g></g><path fill="#563c5c" d="M 257.007812 240.78125 L 254.65625 243.132812 L 235.347656 223.824219 C 232.164062 220.640625 227.003906 220.640625 223.820312 223.824219 C 220.640625 227.003906 220.640625 232.164062 223.820312 235.347656 L 243.132812 254.660156 L 240.78125 257.007812 C 235.628906 262.160156 239.351562 270.921875 246.542969 270.921875 C 250.796875 270.921875 250.46875 270.371094 268.535156 252.308594 C 276.148438 244.691406 264.632812 233.160156 257.007812 240.78125 Z M 257.007812 240.78125 " fill-opacity="1" fill-rule="nonzero"/><g clip-path="url(#c6c6da6205)"><path fill="#563c5c" d="M 274.324219 176.027344 L 274.324219 179.351562 L 247.015625 179.351562 C 242.515625 179.351562 238.867188 183 238.867188 187.5 C 238.867188 192 242.515625 195.648438 247.015625 195.648438 L 274.324219 195.648438 L 274.324219 198.972656 C 274.324219 209.742188 290.625 209.753906 290.625 198.972656 L 290.625 176.027344 C 290.625 165.257812 274.324219 165.246094 274.324219 176.027344 Z M 274.324219 176.027344 " fill-opacity="1" fill-rule="nonzero"/></g><path fill="#563c5c" d="M 235.347656 151.175781 L 254.65625 131.867188 L 257.007812 134.21875 C 264.613281 141.820312 276.144531 130.300781 268.535156 122.691406 C 254.527344 108.6875 283.28125 137.441406 252.308594 106.464844 C 244.695312 98.851562 233.15625 110.367188 240.78125 117.992188 L 243.132812 120.34375 L 223.824219 139.652344 C 220.640625 142.835938 220.640625 147.996094 223.824219 151.179688 C 227.003906 154.359375 232.164062 154.359375 235.347656 151.175781 Z M 235.347656 151.175781 " fill-opacity="1" fill-rule="nonzero"/><g clip-path="url(#9e67b59997)"><path fill="#563c5c" d="M 198.972656 84.375 L 176.027344 84.375 C 165.257812 84.375 165.246094 100.675781 176.027344 100.675781 L 179.351562 100.675781 L 179.351562 127.984375 C 179.351562 132.484375 183 136.132812 187.5 136.132812 C 192 136.132812 195.648438 132.484375 195.648438 127.984375 L 195.648438 100.675781 L 198.972656 100.675781 C 209.742188 100.675781 209.753906 84.375 198.972656 84.375 Z M 198.972656 84.375 " fill-opacity="1" fill-rule="nonzero"/></g><g clip-path="url(#904902a1f6)"><path fill="#563c5c" d="M 198.972656 274.324219 L 195.648438 274.324219 L 195.648438 247.015625 C 195.648438 242.515625 192 238.867188 187.5 238.867188 C 183 238.867188 179.351562 242.515625 179.351562 247.015625 L 179.351562 274.324219 L 176.027344 274.324219 C 165.257812 274.324219 165.246094 290.625 176.027344 290.625 L 198.972656 290.625 C 209.742188 290.625 209.753906 274.324219 198.972656 274.324219 Z M 198.972656 274.324219 " fill-opacity="1" fill-rule="nonzero"/></g><path fill="#563c5c" d="M 131.867188 120.34375 L 134.21875 117.992188 C 141.832031 110.378906 130.316406 98.84375 122.691406 106.464844 C 108.6875 120.472656 137.441406 91.71875 106.464844 122.691406 C 101.316406 127.84375 105.035156 136.605469 112.226562 136.605469 C 116.140625 136.605469 117.910156 134.296875 120.339844 131.867188 L 139.652344 151.175781 C 142.835938 154.359375 147.996094 154.359375 151.175781 151.175781 C 154.359375 147.996094 154.359375 142.835938 151.175781 139.652344 Z M 131.867188 120.34375 " fill-opacity="1" fill-rule="nonzero"/><g clip-path="url(#5ba9e80fdf)"><path fill="#563c5c" d="M 127.984375 195.648438 C 132.484375 195.648438 136.132812 192 136.132812 187.5 C 136.132812 183 132.484375 179.351562 127.984375 179.351562 L 100.675781 179.351562 L 100.675781 176.027344 C 100.675781 165.257812 84.375 165.246094 84.375 176.027344 L 84.375 198.972656 C 84.375 209.742188 100.675781 209.753906 100.675781 198.972656 L 100.675781 195.648438 Z M 127.984375 195.648438 " fill-opacity="1" fill-rule="nonzero"/></g><path fill="#563c5c" d="M 139.652344 223.824219 L 120.34375 243.132812 L 117.992188 240.78125 C 110.378906 233.167969 98.839844 244.683594 106.464844 252.308594 C 120.472656 266.3125 91.71875 237.558594 122.691406 268.535156 C 130.246094 276.085938 141.9375 264.726562 134.21875 257.007812 L 131.867188 254.65625 L 151.175781 235.347656 C 154.359375 232.164062 154.359375 227.003906 151.175781 223.820312 C 147.996094 220.640625 142.835938 220.640625 139.652344 223.824219 Z M 139.652344 223.824219 " fill-opacity="1" fill-rule="nonzero"/><g clip-path="url(#ee42f1df23)"><path fill="#563c5c" d="M 198.972656 274.324219 L 195.648438 274.324219 L 195.648438 247.015625 C 195.648438 242.515625 192 238.867188 187.5 238.867188 L 187.5 290.625 L 198.972656 290.625 C 209.742188 290.625 209.753906 274.324219 198.972656 274.324219 Z M 198.972656 274.324219 " fill-opacity="1" fill-rule="nonzero"/></g><g clip-path="url(#823453a6a8)"><path fill="#563c5c" d="M 198.972656 84.375 L 187.5 84.375 L 187.5 136.132812 C 192 136.132812 195.648438 132.484375 195.648438 127.984375 L 195.648438 100.675781 L 198.972656 100.675781 C 209.742188 100.675781 209.753906 84.375 198.972656 84.375 Z M 198.972656 84.375 " fill-opacity="1" fill-rule="nonzero"/></g><path fill="#c6adce" d="M 187.5 255.167969 C 150.1875 255.167969 119.832031 224.8125 119.832031 187.5 C 119.832031 150.1875 150.1875 119.832031 187.5 119.832031 C 224.8125 119.832031 255.167969 150.1875 255.167969 187.5 C 255.167969 224.8125 224.8125 255.167969 187.5 255.167969 Z M 187.5 255.167969 " fill-opacity="1" fill-rule="nonzero"/><path fill="#563c5c" d="M 190.792969 174.753906 C 190.792969 175.34375 190.761719 175.929688 190.707031 176.515625 C 190.648438 177.101562 190.5625 177.683594 190.445312 178.257812 C 190.332031 178.835938 190.191406 179.40625 190.019531 179.96875 C 189.847656 180.53125 189.648438 181.085938 189.425781 181.628906 C 189.199219 182.171875 188.949219 182.703125 188.671875 183.222656 C 188.394531 183.742188 188.089844 184.246094 187.765625 184.734375 C 187.4375 185.226562 187.085938 185.699219 186.714844 186.152344 C 186.339844 186.605469 185.945312 187.042969 185.53125 187.457031 C 185.113281 187.875 184.679688 188.269531 184.222656 188.644531 C 183.769531 189.015625 183.296875 189.367188 182.808594 189.691406 C 182.316406 190.019531 181.8125 190.320312 181.292969 190.597656 C 180.777344 190.875 180.246094 191.128906 179.699219 191.351562 C 179.15625 191.578125 178.605469 191.777344 178.039062 191.949219 C 177.476562 192.117188 176.90625 192.261719 176.332031 192.375 C 175.753906 192.492188 175.171875 192.578125 174.585938 192.632812 C 174 192.691406 173.414062 192.722656 172.824219 192.722656 C 172.238281 192.722656 171.648438 192.691406 171.0625 192.632812 C 170.480469 192.578125 169.898438 192.492188 169.320312 192.375 C 168.742188 192.261719 168.171875 192.117188 167.609375 191.949219 C 167.046875 191.777344 166.492188 191.578125 165.949219 191.351562 C 165.40625 191.128906 164.875 190.875 164.355469 190.597656 C 163.835938 190.320312 163.332031 190.019531 162.84375 189.691406 C 162.355469 189.367188 161.882812 189.015625 161.425781 188.644531 C 160.972656 188.269531 160.535156 187.875 160.121094 187.457031 C 159.703125 187.042969 159.308594 186.605469 158.9375 186.152344 C 158.5625 185.699219 158.214844 185.226562 157.886719 184.734375 C 157.558594 184.246094 157.257812 183.742188 156.980469 183.222656 C 156.703125 182.703125 156.449219 182.171875 156.226562 181.628906 C 156 181.085938 155.800781 180.53125 155.632812 179.96875 C 155.460938 179.40625 155.316406 178.835938 155.203125 178.257812 C 155.089844 177.683594 155.003906 177.101562 154.945312 176.515625 C 154.886719 175.929688 154.859375 175.34375 154.859375 174.753906 C 154.859375 174.164062 154.886719 173.578125 154.945312 172.992188 C 155.003906 172.40625 155.089844 171.824219 155.203125 171.25 C 155.316406 170.671875 155.460938 170.101562 155.632812 169.539062 C 155.800781 168.976562 156 168.421875 156.226562 167.878906 C 156.449219 167.335938 156.703125 166.804688 156.980469 166.285156 C 157.257812 165.765625 157.558594 165.261719 157.886719 164.773438 C 158.214844 164.28125 158.5625 163.8125 158.9375 163.355469 C 159.308594 162.902344 159.703125 162.464844 160.121094 162.050781 C 160.535156 161.632812 160.972656 161.238281 161.425781 160.863281 C 161.882812 160.492188 162.355469 160.140625 162.84375 159.816406 C 163.332031 159.488281 163.835938 159.1875 164.355469 158.910156 C 164.875 158.632812 165.40625 158.378906 165.949219 158.15625 C 166.492188 157.929688 167.046875 157.730469 167.609375 157.558594 C 168.171875 157.390625 168.742188 157.246094 169.320312 157.132812 C 169.898438 157.015625 170.480469 156.929688 171.0625 156.875 C 171.648438 156.816406 172.238281 156.785156 172.824219 156.785156 C 173.414062 156.785156 174 156.816406 174.585938 156.875 C 175.171875 156.929688 175.753906 157.015625 176.332031 157.132812 C 176.90625 157.246094 177.476562 157.390625 178.039062 157.558594 C 178.605469 157.730469 179.15625 157.929688 179.699219 158.15625 C 180.246094 158.378906 180.777344 158.632812 181.292969 158.910156 C 181.8125 159.1875 182.316406 159.488281 182.808594 159.816406 C 183.296875 160.140625 183.769531 160.492188 184.222656 160.863281 C 184.679688 161.238281 185.113281 161.632812 185.53125 162.050781 C 185.945312 162.464844 186.339844 162.902344 186.714844 163.355469 C 187.085938 163.8125 187.4375 164.28125 187.765625 164.773438 C 188.089844 165.261719 188.394531 165.765625 188.671875 166.285156 C 188.949219 166.804688 189.199219 167.335938 189.425781 167.878906 C 189.648438 168.421875 189.847656 168.976562 190.019531 169.539062 C 190.191406 170.101562 190.332031 170.671875 190.445312 171.25 C 190.5625 171.824219 190.648438 172.40625 190.707031 172.992188 C 190.761719 173.578125 190.792969 174.164062 190.792969 174.753906 Z M 190.792969 174.753906 " fill-opacity="1" fill-rule="nonzero"/><path fill="#a47dae" d="M 187.5 119.832031 L 187.5 255.167969 C 224.8125 255.167969 255.167969 224.8125 255.167969 187.5 C 255.167969 150.1875 224.8125 119.832031 187.5 119.832031 Z M 187.5 119.832031 " fill-opacity="1" fill-rule="nonzero"/><path fill="#563c5c" d="M 187.5 164.386719 L 187.5 185.117188 C 189.574219 182.1875 190.796875 178.613281 190.796875 174.75 C 190.792969 170.890625 189.574219 167.316406 187.5 164.386719 Z M 187.5 164.386719 " fill-opacity="1" fill-rule="nonzero"/><path fill="#563c5c" d="M 213.253906 202.175781 C 213.253906 202.902344 213.183594 203.621094 213.042969 204.335938 C 212.898438 205.050781 212.691406 205.742188 212.410156 206.414062 C 212.132812 207.085938 211.792969 207.726562 211.386719 208.332031 C 210.984375 208.933594 210.523438 209.496094 210.007812 210.007812 C 209.496094 210.523438 208.933594 210.984375 208.332031 211.386719 C 207.726562 211.792969 207.085938 212.132812 206.414062 212.410156 C 205.742188 212.691406 205.050781 212.898438 204.335938 213.042969 C 203.621094 213.183594 202.902344 213.253906 202.175781 213.253906 C 201.445312 213.253906 200.726562 213.183594 200.011719 213.042969 C 199.300781 212.898438 198.605469 212.691406 197.933594 212.410156 C 197.261719 212.132812 196.625 211.792969 196.019531 211.386719 C 195.414062 210.984375 194.855469 210.523438 194.339844 210.007812 C 193.824219 209.496094 193.367188 208.933594 192.960938 208.332031 C 192.558594 207.726562 192.214844 207.085938 191.9375 206.414062 C 191.660156 205.742188 191.449219 205.050781 191.304688 204.335938 C 191.164062 203.621094 191.09375 202.902344 191.09375 202.175781 C 191.09375 201.445312 191.164062 200.726562 191.304688 200.011719 C 191.449219 199.300781 191.660156 198.605469 191.9375 197.933594 C 192.214844 197.261719 192.558594 196.625 192.960938 196.019531 C 193.367188 195.414062 193.824219 194.855469 194.339844 194.339844 C 194.855469 193.824219 195.414062 193.367188 196.019531 192.960938 C 196.625 192.558594 197.261719 192.214844 197.933594 191.9375 C 198.605469 191.660156 199.300781 191.449219 200.011719 191.304688 C 200.726562 191.164062 201.445312 191.09375 202.175781 191.09375 C 202.902344 191.09375 203.621094 191.164062 204.335938 191.304688 C 205.050781 191.449219 205.742188 191.660156 206.414062 191.9375 C 207.085938 192.214844 207.726562 192.558594 208.332031 192.960938 C 208.933594 193.367188 209.496094 193.824219 210.007812 194.339844 C 210.523438 194.855469 210.984375 195.414062 211.386719 196.019531 C 211.792969 196.625 212.132812 197.261719 212.410156 197.933594 C 212.691406 198.605469 212.898438 199.300781 213.042969 200.011719 C 213.183594 200.726562 213.253906 201.445312 213.253906 202.175781 Z M 213.253906 202.175781 " fill-opacity="1" fill-rule="nonzero"/></svg>