<svg xmlns="http://www.w3.org/2000/svg" xmlns:xlink="http://www.w3.org/1999/xlink" width="500" zoomAndPan="magnify" viewBox="0 0 375 374.999991" height="500" preserveAspectRatio="xMidYMid meet" version="1.0"><defs><clipPath id="4ffe143d66"><path d="M 15 2.59375 L 356 2.59375 L 356 367 L 15 367 Z M 15 2.59375 " clip-rule="nonzero"/></clipPath><clipPath id="65497db7cb"><path d="M 99.125 164.070312 L 144.628906 164.070312 L 144.628906 199.714844 L 99.125 199.714844 Z M 99.125 164.070312 " clip-rule="nonzero"/></clipPath><clipPath id="52318166be"><path d="M 172 91.574219 L 207 91.574219 L 207 137 L 172 137 Z M 172 91.574219 " clip-rule="nonzero"/></clipPath><clipPath id="bc8c91cb96"><path d="M 172 226.691406 L 207 226.691406 L 207 272.210938 L 172 272.210938 Z M 172 226.691406 " clip-rule="nonzero"/></clipPath><clipPath id="860693d140"><path d="M 234.195312 164.070312 L 279.699219 164.070312 L 279.699219 199.714844 L 234.195312 199.714844 Z M 234.195312 164.070312 " clip-rule="nonzero"/></clipPath><clipPath id="98e5ae7aa4"><path d="M 172 226.691406 L 189.894531 226.691406 L 189.894531 272.210938 L 172 272.210938 Z M 172 226.691406 " clip-rule="nonzero"/></clipPath><clipPath id="baa75c86ed"><path d="M 172 91.574219 L 189.894531 91.574219 L 189.894531 137 L 172 137 Z M 172 91.574219 " clip-rule="nonzero"/></clipPath></defs><rect x="-37.5" width="450" fill="#ffffff" y="-37.499999" height="449.999989" fill-opacity="1"/><rect x="-37.5" width="450" fill="#ffffff" y="-37.499999" height="449.999989" fill-opacity="1"/><path fill="#8279a1" d="M 344.546875 83.628906 C 346.527344 117.476562 341.222656 169.652344 319.066406 220.703125 C 296.914062 271.679688 257.773438 321.8125 192.019531 350.625 L 192.019531 17.292969 L 337.328125 73.71875 L 344.125 76.339844 Z M 344.546875 83.628906 " fill-opacity="1" fill-rule="nonzero"/><path fill="#95becb" d="M 324.917969 99.613281 C 326.636719 128.960938 322.035156 174.203125 302.828125 218.460938 C 283.617188 262.664062 249.679688 306.128906 192.671875 331.113281 L 192.671875 42.09375 L 318.660156 91.019531 L 324.554688 93.289062 Z M 324.917969 99.613281 " fill-opacity="1" fill-rule="nonzero"/><path stroke-linecap="butt" transform="matrix(0.963056, 0, 0, 0.963394, -54.103876, -68.427704)" fill-opacity="1" fill="#649baf" fill-rule="nonzero" stroke-linejoin="miter" d="M 87.05439 158.405998 C 85.002004 193.41812 90.493962 247.393959 113.423087 300.202051 C 136.348157 352.937159 176.848301 404.792402 244.889355 434.602376 L 244.889355 89.780618 L 94.525724 148.151724 L 87.492449 150.864302 Z M 87.05439 158.405998 " stroke="#649baf" stroke-width="1" stroke-opacity="1" stroke-miterlimit="4"/><path fill="#649baf" d="M 181.738281 18.148438 L 181.738281 350.351562 C 116.210938 321.5625 77.207031 271.605469 55.128906 220.800781 C 33.046875 169.925781 27.757812 117.925781 29.734375 84.195312 L 30.15625 76.929688 L 36.929688 74.316406 Z M 193.027344 350.351562 L 193.027344 18.148438 L 337.835938 74.316406 L 344.609375 76.929688 L 345.03125 84.195312 C 347.003906 117.925781 341.714844 169.925781 319.636719 220.800781 C 297.558594 271.605469 258.554688 321.5625 193.027344 350.28125 Z M 356.316406 83.558594 L 355.46875 69.097656 L 341.925781 63.800781 L 195.5625 7.003906 L 187.382812 3.828125 L 179.199219 7.003906 L 32.839844 63.800781 L 19.367188 69.097656 L 18.519531 83.558594 C 16.472656 118.773438 21.972656 172.679688 44.828125 225.316406 C 67.894531 278.449219 109.015625 331.160156 178.425781 361.21875 L 187.382812 365.101562 L 196.339844 361.21875 C 265.746094 331.160156 306.871094 278.449219 329.9375 225.316406 C 352.789062 172.609375 358.289062 118.773438 356.246094 83.558594 Z M 356.316406 83.558594 " fill-opacity="1" fill-rule="nonzero"/><g clip-path="url(#4ffe143d66)"><path fill="#334155" d="M 184.785156 14.828125 L 180.660156 16.394531 L 33.125 73.648438 L 26.296875 76.28125 L 25.871094 83.605469 C 23.878906 117.605469 29.210938 170.023438 51.46875 221.304688 C 73.792969 272.800781 113.46875 323.441406 180.230469 352.390625 L 184.785156 354.308594 L 189.332031 352.390625 C 256.027344 323.515625 295.699219 272.800781 318.097656 221.304688 C 340.351562 170.023438 345.683594 117.605469 343.691406 83.605469 L 343.265625 76.28125 L 336.441406 73.648438 L 188.90625 16.394531 Z M 354.214844 68.386719 L 355.070312 82.96875 C 357.132812 118.527344 351.582031 172.796875 328.550781 225.859375 C 305.296875 279.34375 263.773438 332.546875 193.882812 362.84375 L 184.785156 366.757812 L 175.753906 362.84375 C 105.789062 332.546875 64.339844 279.417969 41.089844 225.859375 C 17.976562 172.796875 12.429688 118.460938 14.566406 82.96875 L 15.417969 68.386719 L 28.996094 63.050781 L 176.535156 5.796875 L 184.785156 2.59375 L 193.03125 5.796875 L 340.566406 63.050781 L 354.214844 68.316406 Z M 354.214844 68.386719 " fill-opacity="1" fill-rule="nonzero"/></g><path fill="#563c5c" d="M 128.554688 228.558594 L 130.617188 230.617188 L 147.523438 213.703125 C 150.308594 210.917969 154.824219 210.917969 157.613281 213.703125 C 160.398438 216.492188 160.398438 221.011719 157.613281 223.800781 L 140.707031 240.710938 L 142.765625 242.769531 C 147.273438 247.28125 144.015625 254.953125 137.71875 254.953125 C 133.996094 254.953125 134.28125 254.476562 118.464844 238.648438 C 111.800781 231.980469 121.886719 221.882812 128.554688 228.558594 Z M 128.554688 228.558594 " fill-opacity="1" fill-rule="nonzero"/><g clip-path="url(#65497db7cb)"><path fill="#563c5c" d="M 113.394531 171.84375 L 113.394531 174.753906 L 137.304688 174.753906 C 141.246094 174.753906 144.4375 177.949219 144.4375 181.894531 C 144.4375 185.832031 141.246094 189.03125 137.304688 189.03125 L 113.394531 189.03125 L 113.394531 191.941406 C 113.394531 201.371094 99.125 201.382812 99.125 191.941406 L 99.125 171.84375 C 99.125 162.410156 113.394531 162.402344 113.394531 171.84375 Z M 113.394531 171.84375 " fill-opacity="1" fill-rule="nonzero"/></g><path fill="#563c5c" d="M 147.523438 150.082031 L 130.613281 133.171875 L 128.554688 135.230469 C 121.902344 141.886719 111.804688 131.796875 118.464844 125.136719 C 130.726562 112.867188 105.554688 138.050781 132.671875 110.921875 C 139.335938 104.253906 149.4375 114.339844 142.765625 121.015625 L 140.707031 123.078125 L 157.613281 139.988281 C 160.394531 142.773438 160.394531 147.292969 157.613281 150.082031 C 154.824219 152.867188 150.308594 152.867188 147.523438 150.082031 Z M 147.523438 150.082031 " fill-opacity="1" fill-rule="nonzero"/><g clip-path="url(#52318166be)"><path fill="#563c5c" d="M 179.367188 91.574219 L 199.457031 91.574219 C 208.882812 91.574219 208.894531 105.847656 199.457031 105.847656 L 196.546875 105.847656 L 196.546875 129.769531 C 196.546875 133.707031 193.351562 136.902344 189.414062 136.902344 C 185.46875 136.902344 182.277344 133.707031 182.277344 129.769531 L 182.277344 105.847656 L 179.367188 105.847656 C 169.9375 105.847656 169.929688 91.574219 179.367188 91.574219 Z M 179.367188 91.574219 " fill-opacity="1" fill-rule="nonzero"/></g><g clip-path="url(#bc8c91cb96)"><path fill="#563c5c" d="M 179.367188 257.9375 L 182.277344 257.9375 L 182.277344 234.019531 C 182.277344 230.078125 185.46875 226.882812 189.414062 226.882812 C 193.351562 226.882812 196.546875 230.078125 196.546875 234.019531 L 196.546875 257.9375 L 199.457031 257.9375 C 208.882812 257.9375 208.894531 272.210938 199.457031 272.210938 L 179.367188 272.210938 C 169.9375 272.210938 169.929688 257.9375 179.367188 257.9375 Z M 179.367188 257.9375 " fill-opacity="1" fill-rule="nonzero"/></g><path fill="#563c5c" d="M 238.117188 123.078125 L 236.0625 121.015625 C 229.394531 114.347656 239.476562 104.246094 246.148438 110.921875 C 258.414062 123.1875 233.238281 98.007812 260.359375 125.136719 C 264.871094 129.644531 261.613281 137.316406 255.3125 137.316406 C 251.890625 137.316406 250.335938 135.300781 248.210938 133.171875 L 231.304688 150.082031 C 228.519531 152.867188 224 152.867188 221.210938 150.082031 C 218.429688 147.292969 218.429688 142.773438 221.210938 139.988281 Z M 238.117188 123.078125 " fill-opacity="1" fill-rule="nonzero"/><g clip-path="url(#860693d140)"><path fill="#563c5c" d="M 241.519531 189.03125 C 237.582031 189.03125 234.386719 185.832031 234.386719 181.894531 C 234.386719 177.953125 237.582031 174.753906 241.519531 174.753906 L 265.429688 174.753906 L 265.429688 171.84375 C 265.429688 162.414062 279.699219 162.402344 279.699219 171.84375 L 279.699219 191.941406 C 279.699219 201.371094 265.429688 201.382812 265.429688 191.941406 L 265.429688 189.03125 Z M 241.519531 189.03125 " fill-opacity="1" fill-rule="nonzero"/></g><path fill="#563c5c" d="M 231.300781 213.703125 L 248.210938 230.617188 L 250.269531 228.558594 C 256.9375 221.890625 267.03125 231.972656 260.359375 238.648438 C 248.097656 250.917969 273.269531 225.734375 246.148438 252.863281 C 239.539062 259.476562 229.304688 249.53125 236.0625 242.769531 L 238.117188 240.707031 L 221.210938 223.796875 C 218.429688 221.011719 218.429688 216.492188 221.210938 213.703125 C 224 210.917969 228.519531 210.917969 231.300781 213.703125 Z M 231.300781 213.703125 " fill-opacity="1" fill-rule="nonzero"/><g clip-path="url(#98e5ae7aa4)"><path fill="#563c5c" d="M 179.367188 257.9375 L 182.277344 257.9375 L 182.277344 234.019531 C 182.277344 230.078125 185.46875 226.882812 189.414062 226.882812 L 189.414062 272.210938 L 179.367188 272.210938 C 169.9375 272.210938 169.929688 257.9375 179.367188 257.9375 Z M 179.367188 257.9375 " fill-opacity="1" fill-rule="nonzero"/></g><g clip-path="url(#baa75c86ed)"><path fill="#563c5c" d="M 179.367188 91.574219 L 189.414062 91.574219 L 189.414062 136.902344 C 185.46875 136.902344 182.277344 133.707031 182.277344 129.769531 L 182.277344 105.847656 L 179.367188 105.847656 C 169.9375 105.847656 169.929688 91.574219 179.367188 91.574219 Z M 179.367188 91.574219 " fill-opacity="1" fill-rule="nonzero"/></g><path fill="#c6adce" d="M 189.410156 241.15625 C 222.078125 241.15625 248.65625 214.570312 248.65625 181.894531 C 248.65625 149.210938 222.078125 122.628906 189.410156 122.628906 C 156.742188 122.628906 130.167969 149.210938 130.167969 181.894531 C 130.167969 214.570312 156.742188 241.15625 189.410156 241.15625 Z M 189.410156 241.15625 " fill-opacity="1" fill-rule="nonzero"/><path fill="#563c5c" d="M 186.53125 170.730469 C 186.53125 171.246094 186.554688 171.757812 186.605469 172.273438 C 186.65625 172.785156 186.730469 173.292969 186.832031 173.796875 C 186.933594 174.304688 187.058594 174.804688 187.207031 175.296875 C 187.359375 175.792969 187.53125 176.273438 187.726562 176.753906 C 187.921875 177.226562 188.144531 177.691406 188.390625 178.148438 C 188.628906 178.605469 188.894531 179.042969 189.179688 179.472656 C 189.46875 179.902344 189.773438 180.3125 190.101562 180.710938 C 190.429688 181.109375 190.773438 181.492188 191.136719 181.855469 C 191.5 182.21875 191.882812 182.566406 192.28125 182.894531 C 192.679688 183.222656 193.09375 183.527344 193.519531 183.8125 C 193.949219 184.097656 194.390625 184.363281 194.84375 184.605469 C 195.300781 184.851562 195.765625 185.070312 196.238281 185.269531 C 196.71875 185.464844 197.199219 185.636719 197.691406 185.789062 C 198.183594 185.9375 198.683594 186.0625 199.191406 186.164062 C 199.699219 186.261719 200.203125 186.339844 200.71875 186.390625 C 201.234375 186.4375 201.742188 186.464844 202.257812 186.464844 C 202.773438 186.464844 203.289062 186.4375 203.800781 186.390625 C 204.3125 186.339844 204.824219 186.261719 205.328125 186.164062 C 205.832031 186.0625 206.332031 185.9375 206.824219 185.789062 C 207.320312 185.636719 207.804688 185.464844 208.277344 185.269531 C 208.757812 185.070312 209.222656 184.851562 209.671875 184.605469 C 210.128906 184.363281 210.570312 184.097656 210.996094 183.8125 C 211.425781 183.527344 211.839844 183.222656 212.238281 182.894531 C 212.636719 182.566406 213.019531 182.21875 213.382812 181.855469 C 213.75 181.492188 214.09375 181.109375 214.421875 180.710938 C 214.746094 180.3125 215.054688 179.902344 215.339844 179.472656 C 215.625 179.042969 215.886719 178.605469 216.132812 178.148438 C 216.375 177.691406 216.597656 177.226562 216.792969 176.753906 C 216.992188 176.273438 217.164062 175.792969 217.316406 175.296875 C 217.460938 174.804688 217.589844 174.304688 217.6875 173.796875 C 217.789062 173.292969 217.863281 172.785156 217.917969 172.273438 C 217.964844 171.757812 217.992188 171.246094 217.992188 170.730469 C 217.992188 170.214844 217.964844 169.699219 217.917969 169.1875 C 217.863281 168.675781 217.789062 168.164062 217.6875 167.660156 C 217.589844 167.15625 217.460938 166.65625 217.316406 166.164062 C 217.164062 165.667969 216.992188 165.183594 216.792969 164.707031 C 216.597656 164.230469 216.375 163.765625 216.132812 163.3125 C 215.886719 162.859375 215.625 162.414062 215.339844 161.988281 C 215.054688 161.558594 214.746094 161.144531 214.421875 160.746094 C 214.09375 160.347656 213.75 159.96875 213.382812 159.601562 C 213.019531 159.238281 212.636719 158.890625 212.238281 158.5625 C 211.839844 158.238281 211.425781 157.933594 210.996094 157.644531 C 210.570312 157.359375 210.128906 157.097656 209.671875 156.851562 C 209.222656 156.609375 208.757812 156.390625 208.277344 156.191406 C 207.804688 155.992188 207.320312 155.820312 206.824219 155.671875 C 206.332031 155.523438 205.832031 155.394531 205.328125 155.296875 C 204.824219 155.195312 204.3125 155.121094 203.800781 155.066406 C 203.289062 155.019531 202.773438 154.992188 202.257812 154.992188 C 201.742188 154.992188 201.234375 155.019531 200.71875 155.066406 C 200.203125 155.121094 199.699219 155.195312 199.191406 155.296875 C 198.683594 155.394531 198.183594 155.523438 197.691406 155.671875 C 197.199219 155.820312 196.71875 155.992188 196.238281 156.191406 C 195.765625 156.390625 195.300781 156.609375 194.84375 156.851562 C 194.390625 157.097656 193.949219 157.359375 193.519531 157.644531 C 193.09375 157.933594 192.679688 158.238281 192.28125 158.5625 C 191.882812 158.890625 191.5 159.238281 191.136719 159.601562 C 190.773438 159.96875 190.429688 160.347656 190.101562 160.746094 C 189.773438 161.144531 189.46875 161.558594 189.179688 161.988281 C 188.894531 162.414062 188.628906 162.859375 188.390625 163.3125 C 188.144531 163.765625 187.921875 164.230469 187.726562 164.707031 C 187.53125 165.183594 187.359375 165.667969 187.207031 166.164062 C 187.058594 166.65625 186.933594 167.15625 186.832031 167.660156 C 186.730469 168.164062 186.65625 168.675781 186.605469 169.1875 C 186.554688 169.699219 186.53125 170.214844 186.53125 170.730469 Z M 186.53125 170.730469 " fill-opacity="1" fill-rule="nonzero"/><path fill="#a47dae" d="M 189.410156 122.628906 L 189.410156 241.15625 C 156.742188 241.15625 130.167969 214.570312 130.167969 181.894531 C 130.167969 149.210938 156.742188 122.628906 189.410156 122.628906 Z M 189.410156 122.628906 " fill-opacity="1" fill-rule="nonzero"/><path fill="#563c5c" d="M 189.410156 161.648438 L 189.410156 179.804688 C 187.597656 177.238281 186.527344 174.109375 186.527344 170.726562 C 186.527344 167.34375 187.597656 164.214844 189.410156 161.648438 Z M 189.410156 161.648438 " fill-opacity="1" fill-rule="nonzero"/><path fill="#563c5c" d="M 166.863281 194.746094 C 166.863281 195.378906 166.925781 196.011719 167.050781 196.636719 C 167.175781 197.261719 167.359375 197.871094 167.601562 198.457031 C 167.84375 199.046875 168.144531 199.605469 168.5 200.136719 C 168.855469 200.667969 169.257812 201.15625 169.703125 201.609375 C 170.15625 202.054688 170.644531 202.460938 171.175781 202.8125 C 171.707031 203.167969 172.265625 203.46875 172.851562 203.710938 C 173.4375 203.953125 174.046875 204.136719 174.671875 204.261719 C 175.296875 204.386719 175.929688 204.449219 176.566406 204.449219 C 177.203125 204.449219 177.832031 204.386719 178.457031 204.261719 C 179.082031 204.136719 179.6875 203.953125 180.277344 203.710938 C 180.863281 203.46875 181.425781 203.167969 181.957031 202.8125 C 182.484375 202.460938 182.976562 202.054688 183.421875 201.609375 C 183.875 201.15625 184.277344 200.667969 184.628906 200.136719 C 184.984375 199.605469 185.285156 199.046875 185.527344 198.457031 C 185.769531 197.871094 185.953125 197.261719 186.078125 196.636719 C 186.203125 196.011719 186.269531 195.378906 186.269531 194.746094 C 186.269531 194.109375 186.203125 193.476562 186.078125 192.851562 C 185.953125 192.226562 185.769531 191.621094 185.527344 191.03125 C 185.285156 190.441406 184.984375 189.882812 184.628906 189.351562 C 184.277344 188.824219 183.875 188.332031 183.421875 187.882812 C 182.976562 187.433594 182.484375 187.03125 181.957031 186.675781 C 181.425781 186.324219 180.863281 186.019531 180.277344 185.78125 C 179.6875 185.535156 179.082031 185.351562 178.457031 185.226562 C 177.832031 185.101562 177.203125 185.039062 176.566406 185.039062 C 175.929688 185.039062 175.296875 185.101562 174.671875 185.226562 C 174.046875 185.351562 173.4375 185.535156 172.851562 185.78125 C 172.265625 186.019531 171.707031 186.324219 171.175781 186.675781 C 170.644531 187.03125 170.15625 187.433594 169.703125 187.882812 C 169.257812 188.332031 168.855469 188.824219 168.5 189.351562 C 168.144531 189.882812 167.84375 190.441406 167.601562 191.03125 C 167.359375 191.621094 167.175781 192.226562 167.050781 192.851562 C 166.925781 193.476562 166.863281 194.109375 166.863281 194.746094 Z M 166.863281 194.746094 " fill-opacity="1" fill-rule="nonzero"/></svg>