<svg xmlns="http://www.w3.org/2000/svg" xmlns:xlink="http://www.w3.org/1999/xlink" width="500" zoomAndPan="magnify" viewBox="0 0 375 374.999991" height="500" preserveAspectRatio="xMidYMid meet" version="1.0"><defs><clipPath id="c726599835"><path d="M 29 19.070312 L 346 19.070312 L 346 355 L 29 355 Z M 29 19.070312 " clip-rule="nonzero"/></clipPath><clipPath id="76fdde3e0f"><path d="M 103.226562 103.226562 L 271.976562 103.226562 L 271.976562 271.976562 L 103.226562 271.976562 Z M 103.226562 103.226562 " clip-rule="nonzero"/></clipPath></defs><g clip-path="url(#c726599835)"><path fill="#8db9a2" d="M 187.5 19.070312 C 190.527344 19.070312 193.550781 19.730469 196.316406 20.980469 L 320.203125 73.546875 C 334.675781 79.667969 345.464844 93.941406 345.402344 111.179688 C 345.070312 176.445312 318.230469 295.859375 204.867188 350.136719 C 193.882812 355.402344 181.117188 355.402344 170.128906 350.136719 C 56.769531 295.859375 29.925781 176.445312 29.597656 111.179688 C 29.53125 93.941406 40.324219 79.667969 54.796875 73.546875 L 178.75 20.980469 C 181.445312 19.730469 184.472656 19.070312 187.5 19.070312 Z M 187.5 19.070312 " fill-opacity="1" fill-rule="nonzero"/></g><g clip-path="url(#76fdde3e0f)"><path fill="#528ca3" d="M 103.226562 187.496094 C 103.226562 193.320312 107.933594 198.027344 113.757812 198.027344 L 117.542969 198.027344 C 133.96875 198.027344 142.199219 217.878906 130.578125 229.496094 L 127.914062 232.195312 C 123.796875 236.3125 123.796875 242.992188 127.914062 247.109375 C 132.027344 251.222656 138.710938 251.222656 142.824219 247.109375 L 145.523438 244.410156 C 157.144531 232.789062 176.992188 241.019531 176.992188 257.445312 L 176.992188 261.230469 C 176.992188 267.058594 181.699219 271.765625 187.527344 271.765625 C 193.355469 271.765625 198.0625 267.058594 198.0625 261.230469 L 198.0625 257.445312 C 198.0625 241.019531 217.910156 232.789062 229.53125 244.410156 L 232.230469 247.109375 C 236.34375 251.222656 243.027344 251.222656 247.140625 247.109375 C 251.257812 242.992188 251.257812 236.3125 247.140625 232.195312 L 244.441406 229.496094 C 232.824219 217.878906 241.050781 198.027344 257.476562 198.027344 L 261.261719 198.027344 C 267.089844 198.027344 271.796875 193.320312 271.796875 187.496094 C 271.796875 181.667969 267.089844 176.960938 261.261719 176.960938 L 257.476562 176.960938 C 241.050781 176.960938 232.824219 157.113281 244.441406 145.492188 L 247.140625 142.792969 C 251.257812 138.675781 251.257812 131.996094 247.140625 127.878906 C 243.027344 123.765625 236.34375 123.765625 232.230469 127.878906 L 229.53125 130.578125 C 217.878906 142.199219 198.027344 133.96875 198.027344 117.542969 L 198.027344 113.757812 C 198.027344 107.933594 193.320312 103.226562 187.496094 103.226562 C 181.667969 103.226562 176.960938 107.933594 176.960938 113.757812 L 176.960938 117.542969 C 176.960938 133.96875 157.113281 142.199219 145.492188 130.578125 L 142.792969 127.914062 C 138.675781 123.796875 132.027344 123.796875 127.914062 127.914062 C 123.796875 132.027344 123.796875 138.710938 127.914062 142.824219 L 130.613281 145.523438 C 142.199219 157.113281 133.96875 176.960938 117.542969 176.960938 L 113.757812 176.960938 C 107.933594 176.960938 103.226562 181.667969 103.226562 187.496094 Z M 192.761719 176.960938 C 192.761719 178 192.660156 179.027344 192.457031 180.042969 C 192.253906 181.0625 191.957031 182.050781 191.558594 183.007812 C 191.160156 183.964844 190.675781 184.875 190.097656 185.738281 C 189.523438 186.601562 188.867188 187.398438 188.132812 188.132812 C 187.398438 188.867188 186.601562 189.523438 185.738281 190.097656 C 184.875 190.675781 183.964844 191.160156 183.007812 191.558594 C 182.050781 191.957031 181.0625 192.253906 180.042969 192.457031 C 179.027344 192.660156 178 192.761719 176.960938 192.761719 C 175.921875 192.761719 174.894531 192.660156 173.878906 192.457031 C 172.859375 192.253906 171.871094 191.957031 170.914062 191.558594 C 169.957031 191.160156 169.046875 190.675781 168.183594 190.097656 C 167.320312 189.523438 166.523438 188.867188 165.789062 188.132812 C 165.054688 187.398438 164.398438 186.601562 163.824219 185.738281 C 163.246094 184.875 162.761719 183.964844 162.363281 183.007812 C 161.964844 182.050781 161.667969 181.0625 161.464844 180.042969 C 161.261719 179.027344 161.160156 178 161.160156 176.960938 C 161.160156 175.921875 161.261719 174.894531 161.464844 173.878906 C 161.667969 172.859375 161.964844 171.871094 162.363281 170.914062 C 162.761719 169.957031 163.246094 169.046875 163.824219 168.183594 C 164.398438 167.320312 165.054688 166.523438 165.789062 165.789062 C 166.523438 165.054688 167.320312 164.398438 168.183594 163.824219 C 169.046875 163.246094 169.957031 162.761719 170.914062 162.363281 C 171.871094 161.964844 172.859375 161.667969 173.878906 161.464844 C 174.894531 161.261719 175.921875 161.160156 176.960938 161.160156 C 178 161.160156 179.027344 161.261719 180.042969 161.464844 C 181.0625 161.667969 182.050781 161.964844 183.007812 162.363281 C 183.964844 162.761719 184.875 163.246094 185.738281 163.824219 C 186.601562 164.398438 187.398438 165.054688 188.132812 165.789062 C 188.867188 166.523438 189.523438 167.320312 190.097656 168.183594 C 190.675781 169.046875 191.160156 169.957031 191.558594 170.914062 C 191.957031 171.871094 192.253906 172.859375 192.457031 173.878906 C 192.660156 174.894531 192.761719 175.921875 192.761719 176.960938 Z M 211.195312 203.296875 C 211.195312 203.8125 211.144531 204.328125 211.042969 204.835938 C 210.941406 205.34375 210.792969 205.839844 210.59375 206.316406 C 210.394531 206.796875 210.152344 207.253906 209.863281 207.683594 C 209.574219 208.117188 209.25 208.515625 208.882812 208.882812 C 208.515625 209.25 208.117188 209.574219 207.683594 209.863281 C 207.253906 210.152344 206.796875 210.394531 206.320312 210.59375 C 205.839844 210.792969 205.34375 210.941406 204.835938 211.042969 C 204.328125 211.144531 203.8125 211.195312 203.296875 211.195312 C 202.777344 211.195312 202.261719 211.144531 201.753906 211.042969 C 201.246094 210.941406 200.75 210.792969 200.273438 210.59375 C 199.792969 210.394531 199.335938 210.152344 198.90625 209.863281 C 198.472656 209.574219 198.074219 209.25 197.707031 208.882812 C 197.34375 208.515625 197.015625 208.117188 196.726562 207.683594 C 196.4375 207.253906 196.195312 206.796875 195.996094 206.316406 C 195.796875 205.839844 195.648438 205.34375 195.546875 204.835938 C 195.445312 204.328125 195.394531 203.8125 195.394531 203.296875 C 195.394531 202.777344 195.445312 202.261719 195.546875 201.753906 C 195.648438 201.246094 195.796875 200.75 195.996094 200.273438 C 196.195312 199.792969 196.4375 199.335938 196.726562 198.90625 C 197.015625 198.472656 197.34375 198.074219 197.707031 197.707031 C 198.074219 197.34375 198.472656 197.015625 198.90625 196.726562 C 199.335938 196.4375 199.792969 196.195312 200.273438 195.996094 C 200.75 195.796875 201.246094 195.648438 201.753906 195.546875 C 202.261719 195.445312 202.777344 195.394531 203.296875 195.394531 C 203.8125 195.394531 204.328125 195.445312 204.835938 195.546875 C 205.34375 195.648438 205.839844 195.796875 206.320312 195.996094 C 206.796875 196.195312 207.253906 196.4375 207.683594 196.726562 C 208.117188 197.015625 208.515625 197.34375 208.882812 197.707031 C 209.25 198.074219 209.574219 198.472656 209.863281 198.90625 C 210.152344 199.335938 210.394531 199.792969 210.59375 200.273438 C 210.792969 200.75 210.941406 201.246094 211.042969 201.753906 C 211.144531 202.261719 211.195312 202.777344 211.195312 203.296875 Z M 211.195312 203.296875 " fill-opacity="1" fill-rule="nonzero"/></g><path fill="#ecc187" d="M 176.960938 161.160156 C 175.921875 161.160156 174.894531 161.261719 173.878906 161.464844 C 172.859375 161.667969 171.871094 161.964844 170.914062 162.363281 C 169.957031 162.761719 169.046875 163.246094 168.183594 163.824219 C 167.320312 164.398438 166.523438 165.054688 165.789062 165.789062 C 165.054688 166.523438 164.398438 167.320312 163.824219 168.183594 C 163.246094 169.046875 162.761719 169.957031 162.363281 170.914062 C 161.964844 171.871094 161.667969 172.859375 161.464844 173.878906 C 161.261719 174.894531 161.160156 175.921875 161.160156 176.960938 C 161.160156 178 161.261719 179.027344 161.464844 180.042969 C 161.667969 181.0625 161.964844 182.050781 162.363281 183.007812 C 162.761719 183.964844 163.246094 184.875 163.824219 185.738281 C 164.398438 186.601562 165.054688 187.398438 165.789062 188.132812 C 166.523438 188.867188 167.320312 189.523438 168.183594 190.097656 C 169.046875 190.675781 169.957031 191.160156 170.914062 191.558594 C 171.871094 191.957031 172.859375 192.253906 173.878906 192.457031 C 174.894531 192.660156 175.921875 192.761719 176.960938 192.761719 C 178 192.761719 179.027344 192.660156 180.042969 192.457031 C 181.0625 192.253906 182.050781 191.957031 183.007812 191.558594 C 183.964844 191.160156 184.875 190.675781 185.738281 190.097656 C 186.601562 189.523438 187.398438 188.867188 188.132812 188.132812 C 188.867188 187.398438 189.523438 186.601562 190.097656 185.738281 C 190.675781 184.875 191.160156 183.964844 191.558594 183.007812 C 191.957031 182.050781 192.253906 181.0625 192.457031 180.042969 C 192.660156 179.027344 192.761719 178 192.761719 176.960938 C 192.761719 175.921875 192.660156 174.894531 192.457031 173.878906 C 192.253906 172.859375 191.957031 171.871094 191.558594 170.914062 C 191.160156 169.957031 190.675781 169.046875 190.097656 168.183594 C 189.523438 167.320312 188.867188 166.523438 188.132812 165.789062 C 187.398438 165.054688 186.601562 164.398438 185.738281 163.824219 C 184.875 163.246094 183.964844 162.761719 183.007812 162.363281 C 182.050781 161.964844 181.0625 161.667969 180.042969 161.464844 C 179.027344 161.261719 178 161.160156 176.960938 161.160156 Z M 176.960938 161.160156 " fill-opacity="1" fill-rule="nonzero"/></svg>