<svg xmlns="http://www.w3.org/2000/svg" xmlns:xlink="http://www.w3.org/1999/xlink" width="500" zoomAndPan="magnify" viewBox="0 0 375 374.999991" height="500" preserveAspectRatio="xMidYMid meet" version="1.0"><defs><clipPath id="9759c5ae9a"><path d="M 29 18.75 L 346 18.75 L 346 356.25 L 29 356.25 Z M 29 18.75 " clip-rule="nonzero"/></clipPath></defs><g clip-path="url(#9759c5ae9a)"><path fill="#1c1f21" d="M 166.40625 145.3125 C 165.714844 145.3125 165.027344 145.378906 164.347656 145.515625 C 163.667969 145.648438 163.011719 145.851562 162.371094 146.117188 C 161.730469 146.378906 161.121094 146.707031 160.546875 147.089844 C 159.972656 147.476562 159.4375 147.910156 158.949219 148.402344 C 158.457031 148.890625 158.023438 149.425781 157.636719 150 C 157.253906 150.574219 156.925781 151.183594 156.664062 151.824219 C 156.398438 152.464844 156.195312 153.121094 156.0625 153.800781 C 155.925781 154.480469 155.859375 155.167969 155.859375 155.859375 C 155.859375 156.550781 155.925781 157.238281 156.0625 157.917969 C 156.195312 158.597656 156.398438 159.253906 156.664062 159.894531 C 156.925781 160.535156 157.253906 161.144531 157.636719 161.71875 C 158.023438 162.292969 158.457031 162.828125 158.949219 163.316406 C 159.4375 163.808594 159.972656 164.242188 160.546875 164.628906 C 161.121094 165.011719 161.730469 165.339844 162.371094 165.601562 C 163.011719 165.867188 163.667969 166.070312 164.347656 166.203125 C 165.027344 166.339844 165.714844 166.40625 166.40625 166.40625 C 167.097656 166.40625 167.785156 166.339844 168.464844 166.203125 C 169.144531 166.070312 169.800781 165.867188 170.441406 165.601562 C 171.082031 165.339844 171.691406 165.011719 172.265625 164.628906 C 172.839844 164.242188 173.375 163.808594 173.863281 163.316406 C 174.355469 162.828125 174.789062 162.292969 175.175781 161.71875 C 175.558594 161.144531 175.886719 160.535156 176.148438 159.894531 C 176.414062 159.253906 176.617188 158.597656 176.75 157.917969 C 176.886719 157.238281 176.953125 156.550781 176.953125 155.859375 C 176.953125 155.167969 176.886719 154.480469 176.75 153.800781 C 176.617188 153.121094 176.414062 152.464844 176.148438 151.824219 C 175.886719 151.183594 175.558594 150.574219 175.175781 150 C 174.789062 149.425781 174.355469 148.890625 173.863281 148.402344 C 173.375 147.910156 172.839844 147.476562 172.265625 147.089844 C 171.691406 146.707031 171.082031 146.378906 170.441406 146.117188 C 169.800781 145.851562 169.144531 145.648438 168.464844 145.515625 C 167.785156 145.378906 167.097656 145.3125 166.40625 145.3125 Z M 326.257812 73.910156 L 199.695312 21.175781 C 195.773438 19.695312 191.722656 18.886719 187.53125 18.75 C 183.34375 18.882812 179.285156 19.6875 175.363281 21.167969 L 48.800781 73.902344 C 47.367188 74.5 45.980469 75.195312 44.644531 75.996094 C 43.3125 76.796875 42.042969 77.6875 40.84375 78.675781 C 39.640625 79.660156 38.519531 80.730469 37.472656 81.882812 C 36.429688 83.035156 35.476562 84.257812 34.613281 85.554688 C 33.75 86.847656 32.984375 88.195312 32.320312 89.601562 C 31.65625 91.007812 31.101562 92.457031 30.652344 93.945312 C 30.199219 95.433594 29.863281 96.945312 29.636719 98.484375 C 29.40625 100.023438 29.296875 101.570312 29.296875 103.125 C 29.296875 233.972656 104.773438 324.425781 175.304688 353.824219 C 177.234375 354.625 179.21875 355.230469 181.269531 355.636719 C 183.316406 356.046875 185.382812 356.25 187.46875 356.25 C 189.558594 356.25 191.625 356.046875 193.671875 355.636719 C 195.71875 355.230469 197.707031 354.625 199.636719 353.824219 C 256.113281 330.285156 345.703125 249 345.703125 103.125 C 345.703125 101.570312 345.589844 100.027344 345.363281 98.492188 C 345.136719 96.957031 344.800781 95.445312 344.351562 93.957031 C 343.902344 92.472656 343.347656 91.023438 342.683594 89.621094 C 342.023438 88.214844 341.261719 86.867188 340.402344 85.574219 C 339.542969 84.28125 338.589844 83.058594 337.550781 81.90625 C 336.511719 80.753906 335.390625 79.683594 334.191406 78.695312 C 332.996094 77.707031 331.730469 76.8125 330.402344 76.011719 C 329.070312 75.207031 327.691406 74.507812 326.257812 73.910156 Z M 271.875 187.5 L 263.886719 187.5 C 245.09375 187.5 235.679688 210.222656 248.96875 223.511719 L 254.625 229.160156 C 255.113281 229.648438 255.550781 230.183594 255.9375 230.757812 C 256.320312 231.335938 256.644531 231.941406 256.910156 232.582031 C 257.175781 233.222656 257.375 233.882812 257.511719 234.5625 C 257.644531 235.238281 257.714844 235.925781 257.714844 236.617188 C 257.714844 237.3125 257.644531 237.996094 257.511719 238.675781 C 257.375 239.355469 257.175781 240.015625 256.910156 240.65625 C 256.644531 241.296875 256.320312 241.902344 255.9375 242.480469 C 255.550781 243.054688 255.113281 243.585938 254.625 244.078125 C 254.132812 244.566406 253.601562 245.003906 253.027344 245.390625 C 252.449219 245.773438 251.84375 246.097656 251.203125 246.363281 C 250.5625 246.628906 249.902344 246.828125 249.222656 246.964844 C 248.542969 247.097656 247.859375 247.167969 247.164062 247.167969 C 246.472656 247.167969 245.785156 247.097656 245.109375 246.964844 C 244.429688 246.828125 243.769531 246.628906 243.128906 246.363281 C 242.488281 246.097656 241.882812 245.773438 241.304688 245.390625 C 240.730469 245.003906 240.195312 244.566406 239.707031 244.078125 L 234.058594 238.421875 C 220.769531 225.132812 198.046875 234.546875 198.046875 253.339844 L 198.046875 261.328125 C 198.046875 262.019531 197.980469 262.707031 197.84375 263.386719 C 197.710938 264.066406 197.507812 264.722656 197.242188 265.363281 C 196.980469 266.003906 196.652344 266.613281 196.269531 267.1875 C 195.882812 267.761719 195.449219 268.296875 194.957031 268.785156 C 194.46875 269.277344 193.933594 269.710938 193.359375 270.097656 C 192.785156 270.480469 192.175781 270.808594 191.535156 271.070312 C 190.894531 271.335938 190.238281 271.539062 189.558594 271.671875 C 188.878906 271.808594 188.191406 271.875 187.5 271.875 C 186.808594 271.875 186.121094 271.808594 185.441406 271.671875 C 184.761719 271.539062 184.105469 271.335938 183.464844 271.070312 C 182.824219 270.808594 182.214844 270.480469 181.640625 270.097656 C 181.066406 269.710938 180.53125 269.277344 180.042969 268.785156 C 179.550781 268.296875 179.117188 267.761719 178.730469 267.1875 C 178.347656 266.613281 178.019531 266.003906 177.757812 265.363281 C 177.492188 264.722656 177.289062 264.066406 177.15625 263.386719 C 177.019531 262.707031 176.953125 262.019531 176.953125 261.328125 L 176.953125 253.339844 C 176.953125 234.546875 154.230469 225.132812 140.941406 238.421875 L 135.292969 244.078125 C 134.804688 244.566406 134.269531 245.003906 133.695312 245.386719 C 133.117188 245.773438 132.511719 246.097656 131.871094 246.359375 C 131.230469 246.625 130.570312 246.824219 129.894531 246.960938 C 129.214844 247.09375 128.527344 247.160156 127.835938 247.160156 C 127.144531 247.160156 126.457031 247.09375 125.777344 246.957031 C 125.101562 246.824219 124.441406 246.621094 123.800781 246.355469 C 123.164062 246.09375 122.554688 245.765625 121.980469 245.382812 C 121.402344 245 120.871094 244.5625 120.382812 244.070312 C 119.890625 243.582031 119.453125 243.050781 119.070312 242.472656 C 118.6875 241.898438 118.359375 241.289062 118.097656 240.652344 C 117.832031 240.011719 117.628906 239.351562 117.496094 238.671875 C 117.359375 237.996094 117.292969 237.308594 117.292969 236.617188 C 117.292969 235.925781 117.359375 235.238281 117.492188 234.558594 C 117.628906 233.882812 117.828125 233.222656 118.09375 232.582031 C 118.355469 231.941406 118.679688 231.335938 119.066406 230.757812 C 119.449219 230.183594 119.886719 229.648438 120.375 229.160156 L 126.03125 223.511719 C 139.320312 210.222656 129.90625 187.5 111.113281 187.5 L 103.125 187.5 C 102.433594 187.5 101.746094 187.433594 101.066406 187.296875 C 100.386719 187.164062 99.730469 186.960938 99.089844 186.695312 C 98.449219 186.433594 97.839844 186.105469 97.265625 185.722656 C 96.691406 185.335938 96.15625 184.902344 95.667969 184.410156 C 95.175781 183.921875 94.742188 183.386719 94.355469 182.8125 C 93.972656 182.238281 93.644531 181.628906 93.382812 180.988281 C 93.117188 180.347656 92.914062 179.691406 92.78125 179.011719 C 92.644531 178.332031 92.578125 177.644531 92.578125 176.953125 C 92.578125 176.261719 92.644531 175.574219 92.78125 174.894531 C 92.914062 174.214844 93.117188 173.558594 93.382812 172.917969 C 93.644531 172.277344 93.972656 171.667969 94.355469 171.09375 C 94.742188 170.519531 95.175781 169.984375 95.667969 169.496094 C 96.15625 169.003906 96.691406 168.570312 97.265625 168.183594 C 97.839844 167.800781 98.449219 167.472656 99.089844 167.210938 C 99.730469 166.945312 100.386719 166.742188 101.066406 166.609375 C 101.746094 166.472656 102.433594 166.40625 103.125 166.40625 L 111.113281 166.40625 C 129.90625 166.40625 139.320312 143.683594 126.03125 130.394531 L 120.375 124.746094 C 119.886719 124.257812 119.449219 123.722656 119.066406 123.148438 C 118.679688 122.570312 118.355469 121.964844 118.09375 121.324219 C 117.828125 120.683594 117.628906 120.023438 117.492188 119.347656 C 117.359375 118.667969 117.292969 117.980469 117.292969 117.289062 C 117.292969 116.597656 117.359375 115.910156 117.496094 115.230469 C 117.628906 114.554688 117.832031 113.894531 118.097656 113.253906 C 118.359375 112.613281 118.6875 112.007812 119.070312 111.433594 C 119.453125 110.855469 119.890625 110.324219 120.382812 109.835938 C 120.871094 109.34375 121.402344 108.90625 121.980469 108.523438 C 122.554688 108.140625 123.164062 107.8125 123.800781 107.546875 C 124.441406 107.285156 125.101562 107.082031 125.777344 106.949219 C 126.457031 106.8125 127.144531 106.746094 127.835938 106.746094 C 128.527344 106.746094 129.214844 106.8125 129.894531 106.945312 C 130.570312 107.082031 131.230469 107.28125 131.871094 107.546875 C 132.511719 107.808594 133.117188 108.132812 133.695312 108.519531 C 134.269531 108.902344 134.804688 109.339844 135.292969 109.828125 L 140.941406 115.484375 C 154.230469 128.773438 176.953125 119.359375 176.953125 100.566406 L 176.953125 92.578125 C 176.953125 91.886719 177.019531 91.199219 177.15625 90.519531 C 177.289062 89.839844 177.492188 89.183594 177.757812 88.542969 C 178.019531 87.902344 178.347656 87.292969 178.730469 86.71875 C 179.117188 86.144531 179.550781 85.609375 180.042969 85.121094 C 180.53125 84.628906 181.066406 84.195312 181.640625 83.808594 C 182.214844 83.425781 182.824219 83.097656 183.464844 82.835938 C 184.105469 82.570312 184.761719 82.367188 185.441406 82.234375 C 186.121094 82.097656 186.808594 82.03125 187.5 82.03125 C 188.191406 82.03125 188.878906 82.097656 189.558594 82.234375 C 190.238281 82.367188 190.894531 82.570312 191.535156 82.835938 C 192.175781 83.097656 192.785156 83.425781 193.359375 83.808594 C 193.933594 84.195312 194.46875 84.628906 194.957031 85.121094 C 195.449219 85.609375 195.882812 86.144531 196.269531 86.71875 C 196.652344 87.292969 196.980469 87.902344 197.242188 88.542969 C 197.507812 89.183594 197.710938 89.839844 197.84375 90.519531 C 197.980469 91.199219 198.046875 91.886719 198.046875 92.578125 L 198.046875 100.566406 C 198.046875 119.359375 220.769531 128.773438 234.058594 115.484375 L 239.707031 109.828125 C 240.195312 109.339844 240.730469 108.902344 241.304688 108.515625 C 241.882812 108.132812 242.488281 107.808594 243.128906 107.542969 C 243.769531 107.277344 244.429688 107.078125 245.109375 106.941406 C 245.785156 106.808594 246.472656 106.738281 247.164062 106.738281 C 247.859375 106.738281 248.542969 106.808594 249.222656 106.941406 C 249.902344 107.078125 250.5625 107.277344 251.203125 107.542969 C 251.84375 107.808594 252.449219 108.132812 253.027344 108.515625 C 253.601562 108.902344 254.132812 109.339844 254.625 109.828125 C 255.113281 110.320312 255.550781 110.851562 255.9375 111.425781 C 256.320312 112.003906 256.644531 112.609375 256.910156 113.25 C 257.175781 113.890625 257.375 114.550781 257.511719 115.230469 C 257.644531 115.910156 257.714844 116.59375 257.714844 117.289062 C 257.714844 117.980469 257.644531 118.664062 257.511719 119.34375 C 257.375 120.023438 257.175781 120.683594 256.910156 121.324219 C 256.644531 121.964844 256.320312 122.570312 255.9375 123.148438 C 255.550781 123.722656 255.113281 124.257812 254.625 124.746094 L 248.96875 130.394531 C 235.679688 143.683594 245.09375 166.40625 263.886719 166.40625 L 271.875 166.40625 C 272.566406 166.40625 273.253906 166.472656 273.933594 166.609375 C 274.613281 166.742188 275.269531 166.945312 275.910156 167.210938 C 276.550781 167.472656 277.160156 167.800781 277.734375 168.183594 C 278.308594 168.570312 278.84375 169.003906 279.332031 169.496094 C 279.824219 169.984375 280.257812 170.519531 280.644531 171.09375 C 281.027344 171.667969 281.355469 172.277344 281.617188 172.917969 C 281.882812 173.558594 282.085938 174.214844 282.21875 174.894531 C 282.355469 175.574219 282.421875 176.261719 282.421875 176.953125 C 282.421875 177.644531 282.355469 178.332031 282.21875 179.011719 C 282.085938 179.691406 281.882812 180.347656 281.617188 180.988281 C 281.355469 181.628906 281.027344 182.238281 280.644531 182.8125 C 280.257812 183.386719 279.824219 183.921875 279.332031 184.410156 C 278.84375 184.902344 278.308594 185.335938 277.734375 185.722656 C 277.160156 186.105469 276.550781 186.433594 275.910156 186.695312 C 275.269531 186.960938 274.613281 187.164062 273.933594 187.296875 C 273.253906 187.433594 272.566406 187.5 271.875 187.5 Z M 208.59375 187.5 C 207.902344 187.5 207.214844 187.566406 206.535156 187.703125 C 205.855469 187.835938 205.199219 188.039062 204.558594 188.304688 C 203.917969 188.566406 203.308594 188.894531 202.734375 189.277344 C 202.160156 189.664062 201.625 190.097656 201.136719 190.589844 C 200.644531 191.078125 200.210938 191.613281 199.824219 192.1875 C 199.441406 192.761719 199.113281 193.371094 198.851562 194.011719 C 198.585938 194.652344 198.382812 195.308594 198.25 195.988281 C 198.113281 196.667969 198.046875 197.355469 198.046875 198.046875 C 198.046875 198.738281 198.113281 199.425781 198.25 200.105469 C 198.382812 200.785156 198.585938 201.441406 198.851562 202.082031 C 199.113281 202.722656 199.441406 203.332031 199.824219 203.90625 C 200.210938 204.480469 200.644531 205.015625 201.136719 205.503906 C 201.625 205.996094 202.160156 206.429688 202.734375 206.816406 C 203.308594 207.199219 203.917969 207.527344 204.558594 207.789062 C 205.199219 208.054688 205.855469 208.257812 206.535156 208.390625 C 207.214844 208.527344 207.902344 208.59375 208.59375 208.59375 C 209.285156 208.59375 209.972656 208.527344 210.652344 208.390625 C 211.332031 208.257812 211.988281 208.054688 212.628906 207.789062 C 213.269531 207.527344 213.878906 207.199219 214.453125 206.816406 C 215.027344 206.429688 215.5625 205.996094 216.050781 205.503906 C 216.542969 205.015625 216.976562 204.480469 217.363281 203.90625 C 217.746094 203.332031 218.074219 202.722656 218.335938 202.082031 C 218.601562 201.441406 218.804688 200.785156 218.9375 200.105469 C 219.074219 199.425781 219.140625 198.738281 219.140625 198.046875 C 219.140625 197.355469 219.074219 196.667969 218.9375 195.988281 C 218.804688 195.308594 218.601562 194.652344 218.335938 194.011719 C 218.074219 193.371094 217.746094 192.761719 217.363281 192.1875 C 216.976562 191.613281 216.542969 191.078125 216.050781 190.589844 C 215.5625 190.097656 215.027344 189.664062 214.453125 189.277344 C 213.878906 188.894531 213.269531 188.566406 212.628906 188.304688 C 211.988281 188.039062 211.332031 187.835938 210.652344 187.703125 C 209.972656 187.566406 209.285156 187.5 208.59375 187.5 Z M 208.59375 187.5 " fill-opacity="1" fill-rule="nonzero"/></g></svg>