<svg xmlns="http://www.w3.org/2000/svg" xmlns:xlink="http://www.w3.org/1999/xlink" width="500" zoomAndPan="magnify" viewBox="0 0 375 374.999991" height="500" preserveAspectRatio="xMidYMid meet" version="1.0"><defs><clipPath id="59b613a62e"><path d="M 94 94 L 281 94 L 281 281 L 94 281 Z M 94 94 " clip-rule="nonzero"/></clipPath><clipPath id="38b168cb9a"><path d="M 289 272.800781 L 102.199219 289 L 86 102.199219 L 272.800781 86 Z M 289 272.800781 " clip-rule="nonzero"/></clipPath><clipPath id="0f6ce678b4"><path d="M 289 272.800781 L 102.199219 289 L 86 102.199219 L 272.800781 86 Z M 289 272.800781 " clip-rule="nonzero"/></clipPath><clipPath id="e2251b8945"><path d="M 182 180 L 218 180 L 218 216 L 182 216 Z M 182 180 " clip-rule="nonzero"/></clipPath><clipPath id="395ccca37d"><path d="M 289 272.800781 L 102.199219 289 L 86 102.199219 L 272.800781 86 Z M 289 272.800781 " clip-rule="nonzero"/></clipPath><clipPath id="7657e81a8d"><path d="M 289 272.800781 L 102.199219 289 L 86 102.199219 L 272.800781 86 Z M 289 272.800781 " clip-rule="nonzero"/></clipPath></defs><path fill="#528ca3" d="M 187.5 0 C 190.867188 0 194.238281 0.730469 197.3125 2.125 L 335.230469 60.644531 C 351.34375 67.457031 363.355469 83.347656 363.28125 102.539062 C 362.914062 175.195312 333.03125 308.128906 206.835938 368.554688 C 194.605469 374.414062 180.394531 374.414062 168.164062 368.554688 C 41.96875 308.128906 12.085938 175.195312 11.71875 102.539062 C 11.644531 83.347656 23.65625 67.457031 39.769531 60.644531 L 177.757812 2.125 C 180.761719 0.730469 184.128906 0 187.5 0 Z M 187.5 0 " fill-opacity="1" fill-rule="nonzero"/><g clip-path="url(#59b613a62e)"><g clip-path="url(#38b168cb9a)"><g clip-path="url(#0f6ce678b4)"><path fill="#ecc187" d="M 280.898438 179.402344 C 280.339844 172.941406 274.667969 168.179688 268.210938 168.738281 L 264.015625 169.101562 C 245.8125 170.679688 234.78125 149.472656 246.542969 135.476562 L 249.238281 132.226562 C 253.40625 127.273438 252.761719 119.867188 247.808594 115.699219 C 242.851562 111.535156 235.445312 112.179688 231.28125 117.132812 L 228.546875 120.386719 C 216.785156 134.378906 193.996094 127.167969 192.414062 108.960938 L 192.050781 104.765625 C 191.492188 98.308594 185.820312 93.542969 179.363281 94.105469 C 172.90625 94.664062 168.140625 100.332031 168.703125 106.789062 L 169.066406 110.988281 C 170.644531 129.191406 149.433594 140.222656 135.441406 128.457031 L 132.1875 125.726562 C 127.234375 121.5625 119.828125 122.203125 115.660156 127.160156 C 111.496094 132.117188 112.136719 139.523438 117.09375 143.6875 L 120.34375 146.417969 C 134.339844 158.179688 127.128906 180.972656 108.921875 182.550781 L 104.726562 182.914062 C 98.269531 183.476562 93.503906 189.144531 94.0625 195.601562 C 94.625 202.058594 100.292969 206.824219 106.75 206.265625 L 110.945312 205.902344 C 129.152344 204.324219 140.179688 225.53125 128.417969 239.527344 L 125.6875 242.777344 C 121.523438 247.734375 122.164062 255.140625 127.121094 259.304688 C 132.078125 263.46875 139.484375 262.828125 143.648438 257.871094 L 146.378906 254.621094 C 158.179688 240.621094 180.96875 247.835938 182.546875 266.042969 L 182.910156 270.238281 C 183.472656 276.695312 189.140625 281.460938 195.597656 280.898438 C 202.058594 280.339844 206.820312 274.667969 206.261719 268.210938 L 205.898438 264.015625 C 204.320312 245.8125 225.527344 234.78125 239.523438 246.542969 L 242.773438 249.238281 C 247.726562 253.40625 255.097656 252.765625 259.261719 247.808594 C 263.429688 242.855469 262.785156 235.449219 257.828125 231.28125 L 254.578125 228.550781 C 240.621094 216.820312 247.835938 194.03125 266.042969 192.453125 L 270.238281 192.089844 C 276.695312 191.527344 281.460938 185.859375 280.898438 179.402344 Z M 182.675781 199.679688 C 182.625 199.109375 182.605469 198.53125 182.609375 197.957031 C 182.617188 197.382812 182.652344 196.808594 182.714844 196.234375 C 182.777344 195.664062 182.871094 195.09375 182.988281 194.53125 C 183.105469 193.96875 183.253906 193.414062 183.425781 192.863281 C 183.601562 192.316406 183.800781 191.777344 184.027344 191.246094 C 184.253906 190.71875 184.503906 190.199219 184.78125 189.695312 C 185.058594 189.191406 185.359375 188.703125 185.6875 188.226562 C 186.011719 187.75 186.359375 187.292969 186.730469 186.851562 C 187.101562 186.414062 187.492188 185.992188 187.902344 185.589844 C 188.316406 185.1875 188.746094 184.804688 189.195312 184.445312 C 189.644531 184.085938 190.109375 183.75 190.59375 183.433594 C 191.074219 183.121094 191.570312 182.828125 192.082031 182.5625 C 192.59375 182.300781 193.117188 182.058594 193.652344 181.84375 C 194.183594 181.632812 194.730469 181.445312 195.28125 181.28125 C 195.835938 181.121094 196.394531 180.988281 196.960938 180.882812 C 197.527344 180.777344 198.09375 180.699219 198.667969 180.648438 C 199.242188 180.601562 199.816406 180.578125 200.390625 180.585938 C 200.96875 180.59375 201.542969 180.628906 202.113281 180.691406 C 202.6875 180.753906 203.253906 180.84375 203.816406 180.964844 C 204.382812 181.082031 204.9375 181.226562 205.484375 181.402344 C 206.035156 181.574219 206.574219 181.777344 207.101562 182.003906 C 207.632812 182.230469 208.148438 182.480469 208.652344 182.757812 C 209.160156 183.035156 209.648438 183.335938 210.125 183.660156 C 210.597656 183.988281 211.054688 184.335938 211.496094 184.707031 C 211.9375 185.074219 212.359375 185.46875 212.761719 185.878906 C 213.164062 186.289062 213.542969 186.722656 213.90625 187.171875 C 214.265625 187.621094 214.601562 188.085938 214.917969 188.566406 C 215.230469 189.050781 215.519531 189.546875 215.785156 190.058594 C 216.050781 190.570312 216.289062 191.089844 216.503906 191.625 C 216.71875 192.160156 216.90625 192.703125 217.066406 193.257812 C 217.226562 193.808594 217.359375 194.367188 217.464844 194.933594 C 217.574219 195.5 217.648438 196.070312 217.699219 196.644531 C 217.75 197.21875 217.769531 197.792969 217.765625 198.367188 C 217.757812 198.945312 217.722656 199.515625 217.660156 200.089844 C 217.597656 200.660156 217.503906 201.230469 217.386719 201.792969 C 217.269531 202.355469 217.121094 202.914062 216.949219 203.460938 C 216.773438 204.011719 216.574219 204.550781 216.347656 205.078125 C 216.121094 205.609375 215.871094 206.125 215.59375 206.628906 C 215.316406 207.132812 215.011719 207.625 214.6875 208.097656 C 214.363281 208.574219 214.015625 209.03125 213.644531 209.472656 C 213.273438 209.914062 212.882812 210.335938 212.472656 210.738281 C 212.058594 211.140625 211.628906 211.519531 211.179688 211.878906 C 210.730469 212.238281 210.265625 212.578125 209.78125 212.890625 C 209.300781 213.207031 208.804688 213.496094 208.292969 213.761719 C 207.78125 214.027344 207.257812 214.265625 206.722656 214.480469 C 206.191406 214.695312 205.644531 214.882812 205.09375 215.042969 C 204.539062 215.203125 203.980469 215.335938 203.414062 215.441406 C 202.847656 215.546875 202.28125 215.625 201.707031 215.675781 C 201.132812 215.726562 200.558594 215.746094 199.980469 215.738281 C 199.40625 215.734375 198.832031 215.699219 198.261719 215.632812 C 197.6875 215.570312 197.121094 215.480469 196.558594 215.363281 C 195.992188 215.242188 195.4375 215.097656 194.886719 214.921875 C 194.339844 214.75 193.800781 214.550781 193.269531 214.324219 C 192.742188 214.097656 192.226562 213.84375 191.71875 213.566406 C 191.214844 213.289062 190.726562 212.988281 190.25 212.664062 C 189.777344 212.335938 189.320312 211.988281 188.878906 211.621094 C 188.4375 211.25 188.015625 210.859375 187.613281 210.445312 C 187.210938 210.035156 186.828125 209.605469 186.46875 209.15625 C 186.109375 208.707031 185.773438 208.238281 185.457031 207.757812 C 185.144531 207.273438 184.855469 206.777344 184.589844 206.265625 C 184.324219 205.757812 184.082031 205.234375 183.871094 204.699219 C 183.65625 204.164062 183.46875 203.621094 183.308594 203.070312 C 183.148438 202.515625 183.015625 201.957031 182.90625 201.390625 C 182.800781 200.824219 182.726562 200.253906 182.675781 199.679688 Z M 159.710938 172.265625 C 159.664062 171.691406 159.667969 171.117188 159.734375 170.542969 C 159.796875 169.96875 159.914062 169.40625 160.089844 168.855469 C 160.261719 168.304688 160.488281 167.777344 160.765625 167.273438 C 161.042969 166.765625 161.371094 166.292969 161.742188 165.851562 C 162.113281 165.410156 162.523438 165.007812 162.972656 164.648438 C 163.421875 164.285156 163.90625 163.972656 164.417969 163.707031 C 164.929688 163.441406 165.460938 163.226562 166.015625 163.066406 C 166.570312 162.90625 167.136719 162.800781 167.710938 162.75 C 168.285156 162.699219 168.859375 162.707031 169.433594 162.769531 C 170.007812 162.832031 170.566406 162.953125 171.117188 163.125 C 171.667969 163.300781 172.195312 163.527344 172.703125 163.804688 C 173.207031 164.082031 173.683594 164.40625 174.125 164.777344 C 174.566406 165.148438 174.96875 165.558594 175.328125 166.011719 C 175.6875 166.460938 176.003906 166.941406 176.269531 167.453125 C 176.535156 167.964844 176.746094 168.5 176.910156 169.054688 C 177.070312 169.605469 177.175781 170.171875 177.226562 170.746094 C 177.273438 171.320312 177.269531 171.894531 177.207031 172.46875 C 177.140625 173.042969 177.023438 173.605469 176.847656 174.15625 C 176.675781 174.707031 176.449219 175.234375 176.171875 175.738281 C 175.894531 176.246094 175.570312 176.71875 175.199219 177.160156 C 174.828125 177.601562 174.414062 178.003906 173.964844 178.363281 C 173.515625 178.726562 173.035156 179.039062 172.519531 179.304688 C 172.007812 179.570312 171.476562 179.785156 170.921875 179.945312 C 170.367188 180.105469 169.804688 180.210938 169.226562 180.261719 C 168.652344 180.3125 168.078125 180.304688 167.503906 180.242188 C 166.933594 180.179688 166.371094 180.058594 165.820312 179.886719 C 165.269531 179.710938 164.742188 179.488281 164.234375 179.207031 C 163.730469 178.929688 163.257812 178.605469 162.8125 178.234375 C 162.371094 177.863281 161.972656 177.453125 161.609375 177.003906 C 161.25 176.550781 160.9375 176.070312 160.667969 175.558594 C 160.402344 175.046875 160.191406 174.511719 160.027344 173.960938 C 159.867188 173.40625 159.761719 172.839844 159.710938 172.265625 Z M 159.710938 172.265625 " fill-opacity="1" fill-rule="nonzero"/></g></g></g><g clip-path="url(#e2251b8945)"><g clip-path="url(#395ccca37d)"><g clip-path="url(#7657e81a8d)"><path fill="#9cc2af" d="M 201.707031 215.675781 C 202.28125 215.625 202.847656 215.546875 203.414062 215.441406 C 203.980469 215.335938 204.539062 215.203125 205.09375 215.042969 C 205.644531 214.882812 206.191406 214.695312 206.722656 214.480469 C 207.257812 214.265625 207.78125 214.027344 208.292969 213.761719 C 208.804688 213.496094 209.300781 213.207031 209.78125 212.890625 C 210.265625 212.578125 210.730469 212.238281 211.179688 211.878906 C 211.628906 211.519531 212.058594 211.140625 212.472656 210.738281 C 212.882812 210.335938 213.273438 209.914062 213.644531 209.472656 C 214.015625 209.03125 214.363281 208.574219 214.6875 208.097656 C 215.011719 207.625 215.316406 207.132812 215.59375 206.628906 C 215.871094 206.125 216.121094 205.609375 216.347656 205.078125 C 216.574219 204.550781 216.773438 204.011719 216.949219 203.460938 C 217.121094 202.914062 217.269531 202.355469 217.386719 201.792969 C 217.503906 201.230469 217.597656 200.660156 217.660156 200.089844 C 217.722656 199.515625 217.757812 198.945312 217.765625 198.367188 C 217.769531 197.792969 217.75 197.21875 217.699219 196.644531 C 217.648438 196.070312 217.574219 195.5 217.464844 194.933594 C 217.359375 194.367188 217.226562 193.808594 217.066406 193.257812 C 216.90625 192.703125 216.71875 192.160156 216.503906 191.625 C 216.289062 191.089844 216.050781 190.570312 215.785156 190.058594 C 215.519531 189.546875 215.230469 189.050781 214.917969 188.566406 C 214.601562 188.085938 214.265625 187.621094 213.90625 187.171875 C 213.542969 186.722656 213.164062 186.289062 212.761719 185.878906 C 212.359375 185.46875 211.9375 185.074219 211.496094 184.707031 C 211.054688 184.335938 210.597656 183.988281 210.125 183.660156 C 209.648438 183.335938 209.160156 183.035156 208.652344 182.757812 C 208.148438 182.480469 207.632812 182.230469 207.101562 182.003906 C 206.574219 181.777344 206.035156 181.574219 205.484375 181.402344 C 204.9375 181.226562 204.382812 181.082031 203.816406 180.964844 C 203.253906 180.84375 202.6875 180.753906 202.113281 180.691406 C 201.542969 180.628906 200.96875 180.59375 200.390625 180.585938 C 199.816406 180.578125 199.242188 180.601562 198.667969 180.648438 C 198.09375 180.699219 197.527344 180.777344 196.960938 180.882812 C 196.394531 180.988281 195.835938 181.121094 195.28125 181.28125 C 194.730469 181.445312 194.183594 181.632812 193.652344 181.84375 C 193.117188 182.058594 192.59375 182.300781 192.082031 182.5625 C 191.570312 182.828125 191.074219 183.121094 190.59375 183.433594 C 190.109375 183.75 189.644531 184.085938 189.195312 184.445312 C 188.746094 184.804688 188.316406 185.1875 187.902344 185.589844 C 187.492188 185.992188 187.101562 186.414062 186.730469 186.851562 C 186.359375 187.292969 186.011719 187.75 185.6875 188.226562 C 185.359375 188.703125 185.058594 189.191406 184.78125 189.695312 C 184.503906 190.199219 184.253906 190.71875 184.027344 191.246094 C 183.800781 191.777344 183.601562 192.316406 183.425781 192.863281 C 183.253906 193.414062 183.105469 193.96875 182.988281 194.53125 C 182.871094 195.09375 182.777344 195.664062 182.714844 196.234375 C 182.652344 196.808594 182.617188 197.382812 182.609375 197.957031 C 182.605469 198.53125 182.625 199.109375 182.675781 199.679688 C 182.726562 200.253906 182.800781 200.824219 182.90625 201.390625 C 183.015625 201.957031 183.148438 202.515625 183.308594 203.070312 C 183.46875 203.621094 183.65625 204.164062 183.871094 204.699219 C 184.082031 205.234375 184.324219 205.757812 184.589844 206.265625 C 184.855469 206.777344 185.144531 207.273438 185.457031 207.757812 C 185.773438 208.238281 186.109375 208.707031 186.46875 209.15625 C 186.828125 209.605469 187.210938 210.035156 187.613281 210.445312 C 188.015625 210.859375 188.4375 211.25 188.878906 211.621094 C 189.320312 211.988281 189.777344 212.335938 190.25 212.664062 C 190.726562 212.988281 191.214844 213.289062 191.71875 213.566406 C 192.226562 213.84375 192.742188 214.097656 193.269531 214.324219 C 193.800781 214.550781 194.339844 214.75 194.886719 214.921875 C 195.4375 215.097656 195.992188 215.242188 196.558594 215.363281 C 197.121094 215.480469 197.6875 215.570312 198.261719 215.632812 C 198.832031 215.699219 199.40625 215.734375 199.980469 215.738281 C 200.558594 215.746094 201.132812 215.726562 201.707031 215.675781 Z M 201.707031 215.675781 " fill-opacity="1" fill-rule="nonzero"/></g></g></g></svg>