<svg xmlns="http://www.w3.org/2000/svg" viewBox="0 0 560 560" fill="none" shape-rendering="auto"><metadata xmlns:rdf="http://www.w3.org/1999/02/22-rdf-syntax-ns#" xmlns:xsi="http://www.w3.org/2001/XMLSchema-instance" xmlns:dc="http://purl.org/dc/elements/1.1/" xmlns:dcterms="http://purl.org/dc/terms/"><rdf:RDF><rdf:Description><dc:title>Notionists</dc:title><dc:creator>Zoish</dc:creator><dc:source xsi:type="dcterms:URI">https://heyzoish.gumroad.com/l/notionists</dc:source><dcterms:license xsi:type="dcterms:URI">https://creativecommons.org/publicdomain/zero/1.0/</dcterms:license><dc:rights>Remix of „Notionists” (https://heyzoish.gumroad.com/l/notionists) by „Zoish”, licensed under „CC0 1.0” (https://creativecommons.org/publicdomain/zero/1.0/)</dc:rights></rdf:Description></rdf:RDF></metadata><mask id="viewboxMask"><rect width="560" height="560" rx="0" ry="0" x="0" y="0" fill="#fff" /></mask><g mask="url(#viewboxMask)"><rect fill="#ffffff" width="560" height="560" x="0" y="0" /><g transform="translate(136 328)"><path d="M169 101c4.8-14.2 4-16.2-9.8-18.7-10.2-1.8-19.3-6.3-29-9.4-11-3.5-18-13.8-29.5-16.5-6 29.8 33.7 56.5 68.2 44.6Z" fill="#fff"/><path fill-rule="evenodd" clip-rule="evenodd" d="M97.6 96.6a76.7 76.7 0 0 0 67.5 21.2l6.4-2.5c4.8-1.9 9.2-3.5 13.2-5.8 5.2-3 9.3-9.2 4.8-13.8-10-10.3-5-16.2 4-22.2 4-2.6 6.4-6.2 4.3-10.7-2.7-6-8-3.8-12-2a50 50 0 0 1-15 3l-2.4.3c-24.8 2.8-44.9-9-64.8-20.5l-.6-.3c-11.8-7-19-4.6-20.5 9.2a50.7 50.7 0 0 0 15.1 44.1Zm61.6-14.3c13.9 2.5 14.6 4.5 9.7 18.8-34.5 11.8-74.2-15-68.2-44.7 6 1.5 11 5 15.8 8.6a49 49 0 0 0 13.7 8c3.3 1 6.5 2.2 9.7 3.4 6.3 2.4 12.5 4.7 19.3 6Z" fill="#000"/></g><g transform="translate(246 125)"><path d="M41.2 197.6c-5.4-4.8-10.2-9.4-5.5-15.8 5-6.7 9.8.1 14.7 1.4 3.2.9 5.6 4.4 9.3 3.3 6.5-1.8 14-2.5 15-11.4.8-8.5-6-10.5-11.7-13.1-4.4-2-13 1-11.3-8 1.5-8.3 9.1-7.7 15.6-7.1a25 25 0 0 1 24 25c.5 16.2-8.4 28.5-23.3 30-8.7 1-18 2-26.8-4.3Z" fill="#000"/></g><g transform="translate(-45 137)"><path d="M407.4 122.5c13 .3 25.4 1.1 37.6 2.5 3 .4 5 3.3 5 6.7 0 3.3-1.7 5.6-4.7 7-11.2 4.8-22 8.2-33.7.2-6.5-4.5-9-8.7-4.2-16.4ZM247.6 117c7 0 7.8 3.8 7 8.5-2 10.2-20 22.4-30.4 20.5-5.9-1-10.5-4-10.7-10.5-.2-6.7 4.8-8.2 10.3-8.4 9-.3 15.8-5.2 23.8-10ZM215.1 76.6c5-12 9-29.4 24.1-22.5 20.7 9.4 13.9 30.7 9.7 47.4-1.6 6.3-14.5 15.9-18.3 14.3-16.3-6.8-19.2-21.7-15.5-39.2ZM442 113.4c-8.6 7.5-17 7.6-22.2-1.5-9-16-8.6-32.8 3.3-47.2 2.5-3 13.8-3.6 16.3-1 14 15 14.6 31.8 2.6 49.7Z" fill="#000"/></g><g transform="translate(-45 137)"><path fill-rule="evenodd" clip-rule="evenodd" d="M372.1 25c48-35 106.4-15.5 124.2 37 11.5 33.7-3 78.3-44 93.1-41.7 15.1-78 1.6-98.3-36.3a72.8 72.8 0 0 1-7.6-28c-1-11.5-5.7-17.1-16.7-18.6-12.4-1.6-20.5 3.6-24.5 15.4-1.3 3.8-2 7.8-2.8 11.7-.8 4.7-1.7 9.4-3.5 14-21.2 53.8-89.3 64.8-129 22.7a81.8 81.8 0 0 1-16.8-32.6 44.2 44.2 0 0 0-30.5-30.9c-19.7-6.6-39.3-13.9-59-21-11-4.2-22-8.3-33.2-12.2-5.7-2-11.7-4.4-8.7-11.3 2.2-5 6-3.4 9.7-1.8 1.1.5 2.3 1 3.4 1.3a530.5 530.5 0 0 1 50.3 18c16.6 6.6 33 13.1 50.2 18a18 18 0 0 0 22.5-11.1 68.8 68.8 0 0 1 63-44.6c34.6-2 62.7 12.9 77 47.2 1 2 2 4 3.2 6l1.6 3a57 57 0 0 1 45.6.6 81.5 81.5 0 0 1 24-39.5ZM248.8 144.5c24.3-10 40-27.5 43-53.8 5.6-49.4-42-83.2-89.2-65.2a63.4 63.4 0 0 0-27.7 95.1c18.4 25.1 42.8 31.3 74 24ZM433.6 20.1c19.5 1.6 33.6 15.1 44.7 31 14.2 23.7 11.3 55.3-11 79-14.8 15.7-48 23.3-70.3 13a62.3 62.3 0 0 1-37.6-65.7c6-45.2 40-60.2 74.2-57.3Z" fill="#000"/></g><g transform="translate(119 114)"><path d="M131.2 43.2c-5.6 16.8-6.6 15.4-23 11.6-26.2-6-52.7-19.2-80.3-4.3-2 1.1-5 1-7.6.8-3.6-.2-8.2 1.3-10.1-3.3-2.1-5 1.5-8.3 5.3-10.3C35.2 27.7 53 13.4 77.9 16c12.8 1.3 26-2.8 39.3-2.4 18.8.7 22.4 5.7 16 23.9l-2 5.8ZM298.7 21.8c9.6 6.6 12.5 16.8 18.3 25a7 7 0 0 1-.6 9.4c-2.4 2.7-5.4 2.8-8.1 1.2-19.1-11-38.9-6.4-58-1.2-10.2 2.7-14.6-.8-17.2-9.2-1.7-5.7-2.9-11.5-3.6-17.4-1.3-9.8 6.9-11.9 13-12.2 18.5-.9 37.4-4.5 56.2 4.4Z" fill="#000"/></g></g></svg>