<svg xmlns="http://www.w3.org/2000/svg" viewBox="0 0 560 560" fill="none" shape-rendering="auto"><metadata xmlns:rdf="http://www.w3.org/1999/02/22-rdf-syntax-ns#" xmlns:xsi="http://www.w3.org/2001/XMLSchema-instance" xmlns:dc="http://purl.org/dc/elements/1.1/" xmlns:dcterms="http://purl.org/dc/terms/"><rdf:RDF><rdf:Description><dc:title>Notionists</dc:title><dc:creator>Zoish</dc:creator><dc:source xsi:type="dcterms:URI">https://heyzoish.gumroad.com/l/notionists</dc:source><dcterms:license xsi:type="dcterms:URI">https://creativecommons.org/publicdomain/zero/1.0/</dcterms:license><dc:rights>Remix of „Notionists” (https://heyzoish.gumroad.com/l/notionists) by „Zoish”, licensed under „CC0 1.0” (https://creativecommons.org/publicdomain/zero/1.0/)</dc:rights></rdf:Description></rdf:RDF></metadata><mask id="viewboxMask"><rect width="560" height="560" rx="0" ry="0" x="0" y="0" fill="#fff" /></mask><g mask="url(#viewboxMask)"><rect fill="#ffffff" width="560" height="560" x="0" y="0" /><g transform="translate(136 328)"><path d="M176 65c-3.3-2.8-6.4-5.1-11.4-2.8-7.9 3.6-16.1 6.5-24.3 9.8 8.5 11.3 17.4 21.9 23.8 34.4 4.2 8.3 11.8 14.4 22 10.5 9.4-3.5 9.3-12.6 8.4-20.7A42.6 42.6 0 0 0 176 65Z" fill="#fff"/><path fill-rule="evenodd" clip-rule="evenodd" d="M209 98v-4.9c1-6.4-.6-11.9-2-16.6l-1.3-5.2c3-5.6 7-3.3 10.7-1.1 4 2.3 7.5 4.3 9.2-2.9 1.8-7.2-2-15.5-10.5-20.3-7.8 8.7-16.3 7.7-25.4 2.7C183.2 46 176 44 169 47.3c-11 5-22.8 6.5-34.6 8.1L123 57l-2.5.4c-11.3 2-22.5 3.9-32.7-4.6-3.4-2.8-7.4-1-10.4 1.9-3 3-4 6.6-2.1 10.4 1.6 3.2 4 4.7 8.1 4.8 23.3.2 42.8 8.8 57.4 27.2 3 3.7 5.5 7.6 8 11.5 1.7 2.5 3.3 5 5 7.3 14 19.7 40.7 23.2 52.3-.4C209 110 209 104.3 209 98Zm-44.4-35.8c5-2.3 8.1 0 11.4 2.9a42.6 42.6 0 0 1 18.5 31c.9 8.2 1 17.3-8.4 20.8-10.2 4-17.8-2.2-22-10.5A185.7 185.7 0 0 0 144.9 78l-4.6-6 7.3-2.9a281 281 0 0 0 17-7Z" fill="#000"/></g><g transform="translate(246 125)"><path d="M65.7 43.5c-4.3 23.6-7.3 45.8-.3 68.8A79.4 79.4 0 0 0 98 157.1c22.3 14.8 22.7 43 .4 57.5-24.6 16.2-50.8 14-77 7.5-11.8-3-17.9-14.2-21-25.4-2.7-9.6 6.5-25.2 16.6-31 3.1 3.8 2.4 7 .2 11.3-6.7 12.3 0 31.4 13.5 32.6 19.8 1.7 40.7 5.8 59.1-8 12.5-9.4 14-21.5 1.8-31.4-7.3-5.9-14.4-11.7-20.6-18.8-28-31.7-29.9-68.2-20-107 3.5-14.3 9.2-27 19-38C73 3 76-.9 80.5 2c5.9 3.9 1.2 8.4-1 12-5.6 9-10.6 18.3-13.8 29.5Z" fill="#000"/></g><g transform="translate(-45 137)"><path d="M409.2 75.7c13.1.3 25.4 1 37.7 2.5 3 .3 4.9 3.3 5 6.6 0 3.4-1.8 5.7-4.8 7-11.1 4.9-22 8.3-33.7.2-6.5-4.4-8.9-8.6-4.2-16.3ZM254.7 78.4c6.2 3.3 5.2 7 2.1 10.8-6.5 8-28.2 10-36.4 3.5-4.7-3.8-7.3-8.6-4.4-14.4 3-6 8.2-5 13-2.5 8 4 16.4 3 25.7 2.6Z" fill="#000"/></g><g transform="translate(-45 137)"></g><g transform="translate(119 114)"><path d="M107.5 34.6c4.3 5.6 14.4 8.2 8.3 16.8-5.8 8.2-15.6 8.7-24.3 6.4C82 55.5 73 52 64.4 47.2c-12.1-7-23.1-6.2-34.8.2-6.6 3.6-16 9.8-20.4 1.9-5-9.2 7-11.4 12.8-15.4 18-12.8 38.8-14 60-12.2 9.6.8 16.7 7.7 25.5 13ZM231.2 44.2c15.9-7.4 30.7-14.8 48.2-12.7a47.6 47.6 0 0 1 30 15.2c2.9 3.1 5 7.5 1.4 11.4-3.6 3.7-8.6 4.5-12.5.4-10-10.7-20.3-8.4-30.7-1.4-9 6.1-19.6 5.5-29.4 6.4-10.7 1-13.4-6.6-7-19.3Z" fill="#000"/></g></g></svg>