<svg xmlns="http://www.w3.org/2000/svg" viewBox="0 0 560 560" fill="none" shape-rendering="auto"><metadata xmlns:rdf="http://www.w3.org/1999/02/22-rdf-syntax-ns#" xmlns:xsi="http://www.w3.org/2001/XMLSchema-instance" xmlns:dc="http://purl.org/dc/elements/1.1/" xmlns:dcterms="http://purl.org/dc/terms/"><rdf:RDF><rdf:Description><dc:title>Notionists</dc:title><dc:creator>Zoish</dc:creator><dc:source xsi:type="dcterms:URI">https://heyzoish.gumroad.com/l/notionists</dc:source><dcterms:license xsi:type="dcterms:URI">https://creativecommons.org/publicdomain/zero/1.0/</dcterms:license><dc:rights>Remix of „Notionists” (https://heyzoish.gumroad.com/l/notionists) by „Zoish”, licensed under „CC0 1.0” (https://creativecommons.org/publicdomain/zero/1.0/)</dc:rights></rdf:Description></rdf:RDF></metadata><mask id="viewboxMask"><rect width="560" height="560" rx="0" ry="0" x="0" y="0" fill="#fff" /></mask><g mask="url(#viewboxMask)"><rect fill="#ffffff" width="560" height="560" x="0" y="0" /><g transform="translate(136 328)"><path fill-rule="evenodd" clip-rule="evenodd" d="M88 70.6a153.5 153.5 0 0 0 115.3-.2c4.1-1.8 8.8-4 12.4 1.5 4.2 6.4.6 12.2-3.4 17.4A71.8 71.8 0 0 1 203 100c-3.8 3.4-9 7.4-13.6 3.4-8.8-7.6-14.7-5.6-22.7 1.7-11.3 10.2-21 4.5-27.6-7-21.8 14.3-21.8 14.3-32.7 1.8h-.9c-.6-.1-1.3-.1-1.6.2-14.7 12.7-17.9 11.3-24-8.6l-1-5c-1.4-6.7-2.7-13.5-12.1-14.9.4-4.5 3.2-7.5 6.3-10.2 3.1.4 5 2.4 7 4.5 2 2.2 4.1 4.4 7.7 4.8Zm11 14.3a22.3 22.3 0 0 0-13.5-6.3c-1.3 6 1.1 10.1 3.4 14.3l2.3 4.2c6-1.6 7.8-5.5 7.8-12.2Zm27.6 8.8c1.8 6-2.6 8.1-8 7.9-4.3-2.8-4.5-6-4.8-9.2 0-1 0-2-.3-3 6.2-1.9 11.4-1.2 13 4.3Zm36.8 4.4c1.7-7.5-2-6.8-5.6-6-1.4.2-2.8.4-3.8.2-2.4-.6-5.3.5-5.2 3.8.2 5.2 4.3 5.8 8.1 5.7 1.9 0 3.7-1.4 6.5-3.7Zm29-2.4c-3.8-4.7-5-8.8 1.5-12.1 4.6-1.3 8.7-2.3 8.5 2-.3 5.2-3.6 9.2-10 10Z" fill="#000"/></g><g transform="translate(246 125)"><path d="M7.4 185c5.4-8.7 22.6-12.2 32.1-7.3 6.6 3.4 13 7.6 20 1.7 6.5-5.6 4.6-12.2 1.5-18.7-1.6-3.2-.8-5.7 2.2-7.5 3-1.9 5.5-1.1 8.2.8a20.1 20.1 0 0 1 8 21.5c-1.6 7.3-3.8 16-12.7 19-4 1.4-8.8 3.5-12.3 2.4-15.4-4.7-33.8 3.4-47-12Z" fill="#000"/></g><g transform="translate(-45 137)"><path d="M409.2 75.7c13.1.3 25.4 1 37.7 2.5 3 .3 4.9 3.3 5 6.6 0 3.4-1.8 5.7-4.8 7-11.1 4.9-22 8.3-33.7.2-6.5-4.4-8.9-8.6-4.2-16.3ZM254.7 78.4c6.2 3.3 5.2 7 2.1 10.8-6.5 8-28.2 10-36.4 3.5-4.7-3.8-7.3-8.6-4.4-14.4 3-6 8.2-5 13-2.5 8 4 16.4 3 25.7 2.6Z" fill="#000"/></g><g transform="translate(-45 137)"><path d="M474.1 17C499.7 31.2 503.5 68 495 84.7c-8 15.4-19.5 28.5-32.9 39.9a104.9 104.9 0 0 1-38.8 22.8c-7 2-13 .1-18.1-3.3-18.1-12-33.2-27.5-47.5-43.7-3-3.6-5.3-7.7-6.6-12.3-4.3-14.2-14.9-19.2-28.3-13a50.9 50.9 0 0 0-22.3 18.4 150.8 150.8 0 0 1-53.6 49.7c-14.2 8.1-23.5 6.4-37-3.6-13-9.7-24.9-20.8-35.4-33-8.4-9.8-16.8-19.4-15.7-33.5.3-4.6-2.5-7-6.5-8.3a14 14 0 0 0-3.7-.7c-21.3-1-41.3-9-62.6-10.3-16-1-30.9-8.7-46.5-12.6-4.5-1.2-8.7-3.8-13.2-4.6-6.5-1.2-7.8-5.5-9-11.6A65.5 65.5 0 0 1 52 29c18.3 7.3 38 8.5 57 12.8 15.5 3.6 31.5 5 47.7 10.1 4.5-17.5 11.5-32.7 29.6-40 19.9-8 33.2 3.2 48 15 15.2-8.1 31.4-17.3 49.7-9.8 18.4 7.4 22.8 24.7 26.2 42.7 11.6.4 22.8-3.5 34-.7 3.9-7 4.4-14.3 6.3-21.2a37.2 37.2 0 0 1 57.7-21.8c9.8 9 19 9.6 31.5 2.9a38.5 38.5 0 0 1 34.3-2.2Z" fill="#000"/><path d="M193 63.5c-1-.3 1 0-.2.4-6.6 2 50.7 52.8 55.8 48.5 3-2.5-49.5-46.3-55.7-49ZM213.3 39.7c-.9-.3 1 0-.1.4-6.7 2 50.7 52.8 55.7 48.5 3-2.5-49.5-46.3-55.6-49ZM388.2 63.5c-.8-.3 1 0 0 .4-6.7 2 50.6 52.8 55.7 48.5 3-2.5-49.5-46.3-55.7-49ZM408.6 39.7c-.9-.3 1 0-.1.4-6.6 2 50.7 52.8 55.7 48.5 3-2.5-49.5-46.3-55.6-49Z" fill="#fff"/></g><g transform="translate(119 114)"><g fill="#000"><path d="M102.1 42.8c-8.7-12.1-25.2-16-38.8-12.5-12 3.2-21.7 11-33.6 14.4-4 1.1-7.5 2.7-9.7-2.1-1.9-3.9-1.5-7.4 2.2-10.3C41 18 75.8 5.4 100.9 19.4a45.7 45.7 0 0 1 15 15c3.3 4.7 4.5 11.6 0 15.1-5.9 4.6-10-1.2-13.8-6.7ZM288 48.8c-9.7-6.5-18.9-7.3-28-.8-3.2 2.3-6.7 4.8-10 .8-3.3-4.1-2.4-8.6 1.3-12.6 5.6-6.1 13.2-7.1 20.8-8a33.7 33.7 0 0 1 36.7 30c.2 4.3 0 9.1-5.2 10.3-4.7 1-8.3-1.7-10.2-5.9-1.9-4.2-3.2-8.7-5.4-13.8ZM191.6 30c5.2-6.6 8-15 14.5-20.6 2.5-2.1 4.4-5.5 8.5-3.2 3.7 2.1 4 5.9 3 9-3.1 8.6-6.7 17.1-10.7 25.4-2 4-7 5.5-11 4.2-6.6-2-5-7.9-4.4-13.9v-1Z"/><path d="M191.7 29.8c-2 4.2-3.6 8.5-5.7 12.6-1.6 3.1-4.2 5.8-8 4.6-4.6-1.4-5-5.3-4-9.3 1.2-4.1 2.5-8 4-12 2-4.7 1.5-12.4 9.3-11.3 8.4 1.3 4.4 8.4 4.4 14.4v1Z"/></g></g></g></svg>