<svg xmlns="http://www.w3.org/2000/svg" viewBox="0 0 560 560" fill="none" shape-rendering="auto"><metadata xmlns:rdf="http://www.w3.org/1999/02/22-rdf-syntax-ns#" xmlns:xsi="http://www.w3.org/2001/XMLSchema-instance" xmlns:dc="http://purl.org/dc/elements/1.1/" xmlns:dcterms="http://purl.org/dc/terms/"><rdf:RDF><rdf:Description><dc:title>Notionists</dc:title><dc:creator>Zoish</dc:creator><dc:source xsi:type="dcterms:URI">https://heyzoish.gumroad.com/l/notionists</dc:source><dcterms:license xsi:type="dcterms:URI">https://creativecommons.org/publicdomain/zero/1.0/</dcterms:license><dc:rights>Remix of „Notionists” (https://heyzoish.gumroad.com/l/notionists) by „Zoish”, licensed under „CC0 1.0” (https://creativecommons.org/publicdomain/zero/1.0/)</dc:rights></rdf:Description></rdf:RDF></metadata><mask id="viewboxMask"><rect width="560" height="560" rx="0" ry="0" x="0" y="0" fill="#fff" /></mask><g mask="url(#viewboxMask)"><rect fill="#ffffff" width="560" height="560" x="0" y="0" /><g transform="translate(136 328)"><path d="M155.6 137.2c-8.8 0-16.5.5-24-.4-5.1-.6-10.4-3.4-9-10 1.4-5.5 6-6 11.3-5.2 6.6 1 13.4 1.2 20.2 1.5 4 .2 8 .8 9.2 5.2 1.5 5.3-2 7.7-7.7 8.9Z" fill="#000"/><path d="M179.7 92.3c8.6 7.2 17 7.6 26.6 1.3 10-6.6 12.9-15.7 13.3-28A685.6 685.6 0 0 1 67.5 55.3c5 6.8 12.4 3.6 13.8 11.8 3.5 19.1 12.4 23.6 30.6 17.1 5.6-2 9.2-2 12.7 3.8 11 18.5 24.8 21.2 42.1 8.8 3.5-2.4 6.4-5.7 13-4.6Z" fill="#fff"/><path fill-rule="evenodd" clip-rule="evenodd" d="M206.9 53.5c-3.8.3-7.6.6-11.5.1-10.4 1-20.2-.1-29.8-1.3-5.3-.6-10.6-1.2-15.9-1.4-27-1.3-54.1-3.6-81.2-6l-1.9-.2c-5.2-.6-10.5-1.1-13 3.7-3 6.1 0 12.6 5.2 17a72 72 0 0 1 16.6 20c7 12.3 18.7 17 32.4 14.7 6-1 9.7.7 13.5 4.4a38.7 38.7 0 0 0 52.9 3.2c3.8-3 7.3-4.6 11.4-2.3 13.2 7.4 24.1.6 34.4-6 15.1-9.5 18.3-32.3 6.2-42.3-5.7-4.7-12.3-4.2-19.3-3.6Zm-.6 40.1c-9.7 6.3-18 5.9-26.6-1.3-5.6-1-8.6 1.3-11.5 3.5l-1.5 1.1c-17.3 12.4-31 9.7-42-8.8-3.6-5.8-7.2-5.8-12.8-3.8-18.2 6.5-27.1 2-30.6-17.1-.8-4.6-3.4-5.6-6.5-6.8-2.4-1-5.1-2-7.3-5 51.6 9.6 101.2 12 152 10.1-.3 12.4-3.1 21.5-13.2 28.1Z" fill="#000"/></g><g transform="translate(246 125)"><path d="M109.6 185c-9.9 23.2-31.7 22.6-50.5 27.2-5.4 1.5-11.1 1-16.2-1.5.1-8.5 5.5-10.3 12-10.1 10.5.2 19.9-4 29.3-7.7 8.5-3.3 12-8.2 6.4-17.6-9-15.2-17.7-30.6-21.7-48.3a87.5 87.5 0 0 1 1.8-46.4c1.3-4 1.9-9.1 8-7.3 5 1.5 4.3 5.9 3.3 9.6-9.2 33 5 60 22.2 86.1 3 4.8 6.1 9.1 5.4 16Z" fill="#000"/></g><g transform="translate(-45 137)"><path d="M215.1 76.6c5-12 9-29.4 24.1-22.5 20.7 9.4 13.9 30.7 9.7 47.4-1.6 6.3-14.5 15.9-18.3 14.3-16.3-6.8-19.2-21.7-15.5-39.2ZM442 113.4c-8.6 7.5-17 7.6-22.2-1.5-9-16-8.6-32.8 3.3-47.2 2.5-3 13.8-3.6 16.3-1 14 15 14.6 31.8 2.6 49.7Z" fill="#000"/></g><g transform="translate(-45 137)"></g><g transform="translate(119 114)"><path d="M47.1 22c23.6-.3 45.4-8.9 68.1-5.8 18.2 2.5 36.3 4 54.6.9 6.6-1.2 11.6 2 13 12 1.5-13.5 13.4-12.8 17.1-11.2 15.5 6.6 30.2 1 44.9-.5 20-2 48.5 10.6 58.3 28.4a52 52 0 0 0 4.4 6.1c2.8 3.7 7.3 7.2 3 12.1-4.1 4.6-9.2 1.7-13-.3C289 59 280.8 53.7 273 48a18 18 0 0 0-19-2.4 76.4 76.4 0 0 1-38.9 4.4c-14.4-1.5-29.5 3.4-43 2-21.5-2.5-43.2 3.4-64.2-3.5-8.4-2.8-16.7-6.9-25.1.2-.9.7-2.7 1.3-3.6.9-12.3-6-24.4 0-36.4.1-10.2 0-20.2 3-30.3 1.6-3.8-.5-9.2 2-11-3.6-2-6.2 4-8.2 7.5-10.3C17.4 32.2 26 26.7 36.7 26c3.2-.2 6.3-2.4 10.4-4Z" fill="#000"/></g></g></svg>