<svg xmlns="http://www.w3.org/2000/svg" viewBox="0 0 560 560" fill="none" shape-rendering="auto"><metadata xmlns:rdf="http://www.w3.org/1999/02/22-rdf-syntax-ns#" xmlns:xsi="http://www.w3.org/2001/XMLSchema-instance" xmlns:dc="http://purl.org/dc/elements/1.1/" xmlns:dcterms="http://purl.org/dc/terms/"><rdf:RDF><rdf:Description><dc:title>Notionists</dc:title><dc:creator>Zoish</dc:creator><dc:source xsi:type="dcterms:URI">https://heyzoish.gumroad.com/l/notionists</dc:source><dcterms:license xsi:type="dcterms:URI">https://creativecommons.org/publicdomain/zero/1.0/</dcterms:license><dc:rights>Remix of „Notionists” (https://heyzoish.gumroad.com/l/notionists) by „Zoish”, licensed under „CC0 1.0” (https://creativecommons.org/publicdomain/zero/1.0/)</dc:rights></rdf:Description></rdf:RDF></metadata><mask id="viewboxMask"><rect width="560" height="560" rx="0" ry="0" x="0" y="0" fill="#fff" /></mask><g mask="url(#viewboxMask)"><rect fill="#ffffff" width="560" height="560" x="0" y="0" /><g transform="translate(136 328)"><path d="M203 92.2c5.7-4 7-10.6 8.7-16.5 2-7-1.7-13-8.8-12-8.2 1-16.6 1.4-24.6 5a65 65 0 0 1-54 1.2c-8.1-3.7-16.7-6-25.5-7.1C86 61.3 80.5 67 81 79.5c.4 10.9 10.2 19.6 23.5 20.1 32 1.3 63.1-12.1 95.4-6 .4.1.8-.3 3-1.4Z" fill="#fff"/><path fill-rule="evenodd" clip-rule="evenodd" d="M123.6 54.3c-10-5.3-20.7-10.8-34-7.2C68.1 55.6 62.4 69.3 68.5 90c6.2 21 36.6 27.8 55.7 24.8 5.5-.8 11-2.3 16.6-3.8 13.8-3.6 27.6-7.2 42-1.8 13.1 5 23.4-.7 33-8 11-8.3 15.3-33 8.6-44.5-4.8-8.1-21.5-13-32.4-9a125 125 0 0 0-20.8 9.5c-14.3 8.6-27.5 7.1-42.1 0l-5.5-2.8ZM211 77.8c-1.5 5.4-3 11-8.1 14.4a62.1 62.1 0 0 0-3 1.4c-18.4-3.5-36.5-.6-54.6 2.3a208 208 0 0 1-40.8 3.7c-13.3-.5-23-9.2-23.5-20C80.5 67 86 61.2 98.8 62.7c8.8 1 17.4 3.4 25.5 7a65 65 0 0 0 54-1.1c6.6-3 13.4-3.7 20.2-4.5l4.4-.5c7.1-1 10.8 5 8.8 12l-.6 2.1Z" fill="#000"/></g><g transform="translate(246 125)"><path d="M53.4 96.7c.2-5.7.5-10.4.3-15-.2-7.3 3-10.2 10.5-8.5 2.8 10.7 2 22 1.1 32.7-1.8 19.6 7.7 32 23 41.6 19.6 12.3 25.6 32.7 13.4 48.6-19.8 25.4-56.3 21.8-75-4.1-2.2-3.2-1.4-7.5 0-11.2.9-2.3 1.9-5 5-5 3.8-.2 5.2 2.2 5.6 5.5 1.8 12.3 10.8 16.9 21.2 18.8 13 2.4 24.5-.5 32.3-12.4 7-10.7 5-20.9-6-26.9-25.4-13.7-35.9-34.6-31.4-64Z" fill="#000"/></g><g transform="translate(-45 137)"><path d="M409.2 75.7c13.1.3 25.4 1 37.7 2.5 3 .3 4.9 3.3 5 6.6 0 3.4-1.8 5.7-4.8 7-11.1 4.9-22 8.3-33.7.2-6.5-4.4-8.9-8.6-4.2-16.3ZM254.7 78.4c6.2 3.3 5.2 7 2.1 10.8-6.5 8-28.2 10-36.4 3.5-4.7-3.8-7.3-8.6-4.4-14.4 3-6 8.2-5 13-2.5 8 4 16.4 3 25.7 2.6Z" fill="#000"/></g><g transform="translate(-45 137)"></g><g transform="translate(119 114)"><path d="M104.9 38.7C82.4 47 60.2 43 38.3 43c-3 0-6.3-2.2-9.2-4-2.7-1.5-4.4-4-3-7.4 1.5-3.7 4-5 8-4.5 27.2 3.7 53.7.8 79.9-7 5-1.6 13.3-8 16.2 1.6 3 10.2-6.8 10.8-13.4 13l-12 3.9ZM260.5 33.1c-7.2 2.7-13.5 5.3-19.9 7.6-2.4.8-5.1.9-6.8-1.8-1.6-2.4-1-4.4.5-7 13.4-22 56.2-24.9 71-4.4 1.9 2.4 3.3 5 4.2 7.8 1.3 4.1 2.4 9.2-2.2 11.5-4.3 2.2-7.7-1.1-10.7-4.5-14-15.5-17-16.3-36-9.2Z" fill="#000"/></g></g></svg>