<svg xmlns="http://www.w3.org/2000/svg" viewBox="0 0 560 560" fill="none" shape-rendering="auto"><metadata xmlns:rdf="http://www.w3.org/1999/02/22-rdf-syntax-ns#" xmlns:xsi="http://www.w3.org/2001/XMLSchema-instance" xmlns:dc="http://purl.org/dc/elements/1.1/" xmlns:dcterms="http://purl.org/dc/terms/"><rdf:RDF><rdf:Description><dc:title>Notionists</dc:title><dc:creator>Zoish</dc:creator><dc:source xsi:type="dcterms:URI">https://heyzoish.gumroad.com/l/notionists</dc:source><dcterms:license xsi:type="dcterms:URI">https://creativecommons.org/publicdomain/zero/1.0/</dcterms:license><dc:rights>Remix of „Notionists” (https://heyzoish.gumroad.com/l/notionists) by „Zoish”, licensed under „CC0 1.0” (https://creativecommons.org/publicdomain/zero/1.0/)</dc:rights></rdf:Description></rdf:RDF></metadata><mask id="viewboxMask"><rect width="560" height="560" rx="0" ry="0" x="0" y="0" fill="#fff" /></mask><g mask="url(#viewboxMask)"><rect fill="#ffffff" width="560" height="560" x="0" y="0" /><g transform="translate(136 328)"><path d="M175 75.5c8.2-5 11.5-.1 14.5 5.4-11.4 17-50 20.1-60.7 3.4 15-5.2 31.3-1.5 46.1-8.8Z" fill="#000"/></g><g transform="translate(246 125)"><path d="M76.7 82.4a205.6 205.6 0 0 0 3.3 80.2c4.7 22.4-15.2 54.4-46.8 49.7-11-1.6-17.5-8.1-21.3-17.8-1.7-4.3-1.5-8.8 3.3-11 4-1.7 7.4-.2 9.4 4 4.8 10.1 13.4 9.4 21.9 6.9 9.6-2.9 16.4-9.6 17.1-19.9.7-10.1.2-20.3-1.6-30.4a159.3 159.3 0 0 1 8.8-89.5c2.2-5.7 5.4-10.9 11.9-8.3 7.5 3 1.8 8.8.7 13.1-1.7 7.4-4.2 14.7-6.7 23Z" fill="#000"/></g><g transform="translate(-45 137)"><path d="M409.2 75.7c13.1.3 25.4 1 37.7 2.5 3 .3 4.9 3.3 5 6.6 0 3.4-1.8 5.7-4.8 7-11.1 4.9-22 8.3-33.7.2-6.5-4.4-8.9-8.6-4.2-16.3ZM254.7 78.4c6.2 3.3 5.2 7 2.1 10.8-6.5 8-28.2 10-36.4 3.5-4.7-3.8-7.3-8.6-4.4-14.4 3-6 8.2-5 13-2.5 8 4 16.4 3 25.7 2.6Z" fill="#000"/></g><g transform="translate(-45 137)"><path fill-rule="evenodd" clip-rule="evenodd" d="M450.2 34.8c4.7 1 9.2 1 13.6 1 4.8 0 9.4 0 14 1.2 13 3.5 17.8 12.3 20.8 24.2 5 20.2 6.2 40 .1 60.3-3.4 11.5-7 18.4-22 18.3-27.5-.1-55.1.5-82.7 1.3-34.7 1-42.8-13.4-47.7-46.1-2.3-15.6-7.1-21.7-21.3-21.3-11.5.4-18.6 8.3-18.4 22.8a59 59 0 0 1-15.2 38.3c-9 11.3-21.6 10-33.7 8.7l-7-.7c-12.8-.9-25.6-2.2-38.5-3.5l-29.9-2.9c-12.5-1-21.8-8-23-20.6-.4-4.6-1.6-9-2.7-13.3-1-3.8-2-7.7-2.6-11.6-.7-5.4-3.3-8.5-8-10.3L31 36a49.2 49.2 0 0 1-16.2-12.3l-1.3-1.3c13.7-2.7 24.6 1.8 34.7 6.7 31.3 15.2 64 26.6 97 37.1 7 2.2 9.4-2 11.7-6.7 1-1.9 1.6-3.8 2.3-5.7.9-2.5 1.8-5 3-7.2 10.4-17.4 24-22 47.3-18.8l14.4 2c15.7 2.5 31.5 4.9 47.6 5 24.3 0 30.2 4.6 37.5 28.3l2.7-.4c10.4-1.9 21-3.8 31.7 1.3 4.7 2.2 6.2-2.5 7.3-6.4 5.1-18.5 11-23 29.3-23l70.2.2Zm-260.4 2.5c-5.7 0-10.8.7-14 6.5a85.6 85.6 0 0 0-7 72.5c1.5 4.2 3.5 7.5 8.8 7.9 30.4 2.4 61 5 91.4 7.7 6.5.6 10.8-2 15.3-6.9 11-11.7 11.6-26.2 12-40.3l.4-6.7c1.5-26.3-.8-28.1-29.1-32.6-17.9-2.9-36-4.4-54.7-6l-23-2.1Zm171.7 78c-3.9-9.3-7.8-18.8-6-29.4 1.2-4.3 2-8.5 2.8-12.6 1.5-7.4 2.8-14.4 6.5-20.8 3.3-5.8 7.5-8.3 14.3-8.5 31.5-.9 62.8 1.6 94.2 4.3 6.5.6 10.7 3.5 12.2 9.3 5.5 20.6 9.7 41.3 2.1 62.6-2.1 6-4.6 9.2-11.4 9.2l-8.8-.1c-30.2-.3-60.3-.6-90.5 1.2-7.7.5-11.9-6.5-14.4-12.7l-1-2.4Z" fill="#000"/></g><g transform="translate(119 114)"><path d="M104.9 38.7C82.4 47 60.2 43 38.3 43c-3 0-6.3-2.2-9.2-4-2.7-1.5-4.4-4-3-7.4 1.5-3.7 4-5 8-4.5 27.2 3.7 53.7.8 79.9-7 5-1.6 13.3-8 16.2 1.6 3 10.2-6.8 10.8-13.4 13l-12 3.9ZM260.5 33.1c-7.2 2.7-13.5 5.3-19.9 7.6-2.4.8-5.1.9-6.8-1.8-1.6-2.4-1-4.4.5-7 13.4-22 56.2-24.9 71-4.4 1.9 2.4 3.3 5 4.2 7.8 1.3 4.1 2.4 9.2-2.2 11.5-4.3 2.2-7.7-1.1-10.7-4.5-14-15.5-17-16.3-36-9.2Z" fill="#000"/></g></g></svg>