<svg xmlns="http://www.w3.org/2000/svg" viewBox="0 0 560 560" fill="none" shape-rendering="auto"><metadata xmlns:rdf="http://www.w3.org/1999/02/22-rdf-syntax-ns#" xmlns:xsi="http://www.w3.org/2001/XMLSchema-instance" xmlns:dc="http://purl.org/dc/elements/1.1/" xmlns:dcterms="http://purl.org/dc/terms/"><rdf:RDF><rdf:Description><dc:title>Notionists</dc:title><dc:creator>Zoish</dc:creator><dc:source xsi:type="dcterms:URI">https://heyzoish.gumroad.com/l/notionists</dc:source><dcterms:license xsi:type="dcterms:URI">https://creativecommons.org/publicdomain/zero/1.0/</dcterms:license><dc:rights>Remix of „Notionists” (https://heyzoish.gumroad.com/l/notionists) by „Zoish”, licensed under „CC0 1.0” (https://creativecommons.org/publicdomain/zero/1.0/)</dc:rights></rdf:Description></rdf:RDF></metadata><mask id="viewboxMask"><rect width="560" height="560" rx="0" ry="0" x="0" y="0" fill="#fff" /></mask><g mask="url(#viewboxMask)"><rect fill="#ffffff" width="560" height="560" x="0" y="0" /><g transform="translate(136 328)"><path d="M169 101c4.8-14.2 4-16.2-9.8-18.7-10.2-1.8-19.3-6.3-29-9.4-10.9-3.5-18-13.8-29.5-16.5-6 29.8 33.7 56.5 68.2 44.7Z" fill="#fff"/><path fill-rule="evenodd" clip-rule="evenodd" d="M97.6 96.6a76.7 76.7 0 0 0 67.5 21.2l6.4-2.5c4.8-1.9 9.2-3.5 13.2-5.8 5.2-3 9.3-9.2 4.8-13.8-10-10.3-5-16.2 4-22.2 4-2.6 6.4-6.2 4.3-10.7-2.7-6-8-3.8-12-2a50 50 0 0 1-17.4 3.3c-24.8 2.8-44.9-9-64.8-20.5l-.6-.3c-11.8-7-19-4.6-20.5 9.2a50.7 50.7 0 0 0 15.1 44.1Zm61.6-14.3c13.9 2.5 14.6 4.5 9.7 18.8-34.5 11.8-74.2-15-68.2-44.7 6 1.5 11 5 15.8 8.6a49 49 0 0 0 13.7 8c3.3 1 6.5 2.2 9.7 3.4 6.3 2.4 12.5 4.8 19.3 6Z" fill="#000"/><path d="M67 37c8.2 3.7 7.7 9.3 4.2 15-2.6 4.5-6.5 7.2-11.7 4-4.8-3-3.7-7.1-1-11 2.2-3 3-7.3 8.5-8Z" fill="#000"/></g><g transform="translate(246 125)"><path d="m72.7 176.1.8 3.5c7.2 25.1-.3 33.5-27 30.2-5-.7-9.5-2.3-9.9-8-.5-5.9 4.6-6.1 8.8-7 4.6-.8 9-2 15.3-3.4a154 154 0 0 1-8.4-36.6c-2-15.8.7-30.4 5.8-45 2-5.7 5.6-10.6 12-7.9 5.6 2.4 3.2 8.1 1.4 12.4-8.6 20.4-7 40.7 1.2 61.8Z" fill="#000"/></g><g transform="translate(-45 137)"><path d="M407.4 122.5c13 .3 25.4 1.1 37.6 2.5 3 .4 5 3.3 5 6.7 0 3.3-1.7 5.6-4.7 7-11.2 4.8-22 8.2-33.7.2-6.5-4.5-9-8.7-4.2-16.4ZM247.6 117c7 0 7.8 3.8 7 8.5-2 10.2-20 22.4-30.4 20.5-5.9-1-10.5-4-10.7-10.5-.2-6.7 4.8-8.2 10.3-8.4 9-.3 15.8-5.2 23.8-10ZM215.1 76.6c5-12 9-29.4 24.1-22.5 20.7 9.4 13.9 30.7 9.7 47.4-1.6 6.3-14.5 15.9-18.3 14.3-16.3-6.8-19.2-21.7-15.5-39.2ZM442 113.4c-8.6 7.5-17 7.6-22.2-1.5-9-16-8.6-32.8 3.3-47.2 2.5-3 13.8-3.6 16.3-1 14 15 14.6 31.8 2.6 49.7Z" fill="#000"/></g><g transform="translate(-45 137)"></g><g transform="translate(119 114)"><path d="M295 29.6c2.6 7.3 5.5 13.5 7 20 1.2 4.9 1.7 10.4-5 12.6-7.6 2.6-8.6-3.4-10.6-7.8a120 120 0 0 1-5.5-14.2c-1.5-4.9-4.3-7-9.4-6.8-5 .1-8 3-9.3 7.2-1.7 5.3-3 10.7-4 16.1-1 4.5-4.2 4.8-7.8 4.6-3.6-.1-5.3-2-5.9-5.5-3.2-20.1 6.1-38.2 25.9-41.2 12.2-2 19 4.5 24.5 15ZM50.6 33C65.7 12.5 80 8.5 94.6 21.7c9.1 8.3 8.7 21.2 10.7 32.6.5 3-2 5.7-5.3 6.3-3.5.7-7-1.2-8.4-4.4-1.7-4-2.2-8.3-3.6-12.2-1.7-4.8-3.2-10-9.7-10.5-6.4-.5-10.6 3-13.2 8-3.6 7.2-4.8 20-15.7 14.7-10.4-5-1.9-14.7 1.2-23.2Z" fill="#000"/></g></g></svg>