<svg xmlns="http://www.w3.org/2000/svg" viewBox="0 0 560 560" fill="none" shape-rendering="auto"><metadata xmlns:rdf="http://www.w3.org/1999/02/22-rdf-syntax-ns#" xmlns:xsi="http://www.w3.org/2001/XMLSchema-instance" xmlns:dc="http://purl.org/dc/elements/1.1/" xmlns:dcterms="http://purl.org/dc/terms/"><rdf:RDF><rdf:Description><dc:title>Notionists</dc:title><dc:creator>Zoish</dc:creator><dc:source xsi:type="dcterms:URI">https://heyzoish.gumroad.com/l/notionists</dc:source><dcterms:license xsi:type="dcterms:URI">https://creativecommons.org/publicdomain/zero/1.0/</dcterms:license><dc:rights>Remix of „Notionists” (https://heyzoish.gumroad.com/l/notionists) by „Zoish”, licensed under „CC0 1.0” (https://creativecommons.org/publicdomain/zero/1.0/)</dc:rights></rdf:Description></rdf:RDF></metadata><mask id="viewboxMask"><rect width="560" height="560" rx="0" ry="0" x="0" y="0" fill="#fff" /></mask><g mask="url(#viewboxMask)"><rect fill="#ffffff" width="560" height="560" x="0" y="0" /><g transform="translate(136 328)"><path d="M83 85.8c-2.4 17.7 16.1 32.5 32.4 26-4.3-15.8-20.8-17.4-32.4-26Z" fill="#fff"/><path fill-rule="evenodd" clip-rule="evenodd" d="M72.3 102.8c12.4 23.4 36 29.9 61.7 16.3 10.5-6.4 14.9-16.6 18.7-26.1a27.3 27.3 0 0 0-1.5-24.2C137.2 43 120 42.3 99.3 46.2c-22.5 4.3-37.8 36.4-27 56.6Zm43.1 9c-16.3 6.5-34.8-8.3-32.4-26 3.7 2.7 7.8 4.7 11.9 6.7 8.9 4.3 17.6 8.5 20.5 19.3Z" fill="#000"/><path d="M67 37c8.2 3.7 7.7 9.3 4.2 15-2.6 4.5-6.5 7.2-11.7 4-4.8-3-3.7-7.1-1-11 2.2-3 3-7.3 8.5-8Z" fill="#000"/></g><g transform="translate(246 125)"><path d="M74.2 188c5.5-3.8 9.7-9.4 11.8-15.9a23 23 0 0 0-4.4-22.8c-5.3-6-12.4-3.7-19-1.7-4.2 1.3-9.5 5.3-12.2-1.2-2.4-5.6 1.8-10 6-12.7a28 28 0 0 1 26.8-2.8c11.9 4.7 16.4 14.5 18.1 25.8 6.7 44.3-31 54.4-60.7 52.5-2.1-.2-4.2-1-6-2.2-3.3-2.2-8.6-3.8-7.1-9.1 1.6-6 6.7-5 11.6-4 12 2.3 23.5.2 35-5.8Z" fill="#000"/></g><g transform="translate(-45 137)"><path d="M215.1 76.6c5-12 9-29.4 24.1-22.5 20.7 9.4 13.9 30.7 9.7 47.4-1.6 6.3-14.5 15.9-18.3 14.3-16.3-6.8-19.2-21.7-15.5-39.2ZM442 113.4c-8.6 7.5-17 7.6-22.2-1.5-9-16-8.6-32.8 3.3-47.2 2.5-3 13.8-3.6 16.3-1 14 15 14.6 31.8 2.6 49.7Z" fill="#000"/></g><g transform="translate(-45 137)"><path fill-rule="evenodd" clip-rule="evenodd" d="M450.2 34.8c4.7 1 9.2 1 13.6 1 4.8 0 9.4 0 14 1.2 13 3.5 17.8 12.3 20.8 24.2 5 20.2 6.2 40 .1 60.3-3.4 11.5-7 18.4-22 18.3-27.5-.1-55.1.5-82.7 1.3-34.7 1-42.8-13.4-47.7-46.1-2.3-15.6-7.1-21.7-21.3-21.3-11.5.4-18.6 8.3-18.4 22.8a59 59 0 0 1-15.2 38.3c-9 11.3-21.6 10-33.7 8.7l-7-.7c-12.8-.9-25.6-2.2-38.5-3.5l-29.9-2.9c-12.5-1-21.8-8-23-20.6-.4-4.6-1.6-9-2.7-13.3-1-3.8-2-7.7-2.6-11.6-.7-5.4-3.3-8.5-8-10.3L31 36a49.2 49.2 0 0 1-16.2-12.3l-1.3-1.3c13.7-2.7 24.6 1.8 34.7 6.7 31.3 15.2 64 26.6 97 37.1 7 2.2 9.4-2 11.7-6.7 1-1.9 1.6-3.8 2.3-5.7.9-2.5 1.8-5 3-7.2 10.4-17.4 24-22 47.3-18.8l14.4 2c15.7 2.5 31.5 4.9 47.6 5 24.3 0 30.2 4.6 37.5 28.3l2.7-.4c10.4-1.9 21-3.8 31.7 1.3 4.7 2.2 6.2-2.5 7.3-6.4 5.1-18.5 11-23 29.3-23l70.2.2Zm-260.4 2.5c-5.7 0-10.8.7-14 6.5a85.6 85.6 0 0 0-7 72.5c1.5 4.2 3.5 7.5 8.8 7.9 30.4 2.4 61 5 91.4 7.7 6.5.6 10.8-2 15.3-6.9 11-11.7 11.6-26.2 12-40.3l.4-6.7c1.5-26.3-.8-28.1-29.1-32.6-17.9-2.9-36-4.4-54.7-6l-23-2.1Zm171.7 78c-3.9-9.3-7.8-18.8-6-29.4 1.2-4.3 2-8.5 2.8-12.6 1.5-7.4 2.8-14.4 6.5-20.8 3.3-5.8 7.5-8.3 14.3-8.5 31.5-.9 62.8 1.6 94.2 4.3 6.5.6 10.7 3.5 12.2 9.3 5.5 20.6 9.7 41.3 2.1 62.6-2.1 6-4.6 9.2-11.4 9.2l-8.8-.1c-30.2-.3-60.3-.6-90.5 1.2-7.7.5-11.9-6.5-14.4-12.7l-1-2.4Z" fill="#000"/></g><g transform="translate(119 114)"><path d="M30.3 32.1C58 10 89.8 13.1 121 14.1c5.7 0 12.2 1.3 14.3 8.3 2.1 7.7-4.6 9.9-8.8 13.8a44.7 44.7 0 0 1-52.2 8.6 37.9 37.9 0 0 0-31.9 1.6c-2 1-3.8 1.9-5.8 2.6-6.3 2.5-14.3 6-18.6-.4-4.4-6.7 5.6-9 8.3-13.7.6-1 2-1.6 3.9-2.8ZM294.4 23.8c7.7 4.3 14.5 10 20 17 2.5 3 5 6.3 3 10.2-2.4 4.3-6.7 2.7-10.4 2.2-12.5-1.5-23.7-9.2-37-7.2-5 .8-9.9.7-15 2.5-13 4.7-31-6.4-33-19.8-1-5.4 1-8.5 6.8-10 22.2-5.7 44-9 65.6 5.1Z" fill="#000"/></g></g></svg>