<svg xmlns="http://www.w3.org/2000/svg" viewBox="0 0 560 560" fill="none" shape-rendering="auto"><metadata xmlns:rdf="http://www.w3.org/1999/02/22-rdf-syntax-ns#" xmlns:xsi="http://www.w3.org/2001/XMLSchema-instance" xmlns:dc="http://purl.org/dc/elements/1.1/" xmlns:dcterms="http://purl.org/dc/terms/"><rdf:RDF><rdf:Description><dc:title>Notionists</dc:title><dc:creator>Zoish</dc:creator><dc:source xsi:type="dcterms:URI">https://heyzoish.gumroad.com/l/notionists</dc:source><dcterms:license xsi:type="dcterms:URI">https://creativecommons.org/publicdomain/zero/1.0/</dcterms:license><dc:rights>Remix of „Notionists” (https://heyzoish.gumroad.com/l/notionists) by „Zoish”, licensed under „CC0 1.0” (https://creativecommons.org/publicdomain/zero/1.0/)</dc:rights></rdf:Description></rdf:RDF></metadata><mask id="viewboxMask"><rect width="560" height="560" rx="0" ry="0" x="0" y="0" fill="#fff" /></mask><g mask="url(#viewboxMask)"><rect fill="#ffffff" width="560" height="560" x="0" y="0" /><g transform="translate(136 328)"><path d="M182.3 95.7c-29.2 14-65.1 3-84.2-16-2.3-2.3-3.8-5.6-5.3-8.6-1-2.3-1.6-5 .7-7.1 2.2-2.1 4.7-1.8 7.1-.7 2.6 1.3 5.6 2.5 7.5 4.5 12.1 13 28 16.4 44.7 19C162 88 169 82.3 177 80.2c5.3-1.4 11-9 15-.7 3.3 6.8-1.3 12.9-9.7 16ZM66.6 57.4C71 45.2 80.3 40.6 90.8 37.9c5-1.3 10.8-1.7 13 4.3 2.4 7-3.2 10.9-8.3 12-7.3 1.4-12 4.6-15.4 11.2-2.2 4.3-5.7 9.7-11.7 7-7.2-3-3.8-9-1.8-15Z" fill="#000"/></g><g transform="translate(246 125)"><path d="M41.2 197.6c-5.4-4.8-10.2-9.4-5.5-15.8 5-6.7 9.8.1 14.7 1.4 3.2.9 5.6 4.4 9.3 3.3 6.5-1.8 14-2.5 15-11.4.8-8.5-6-10.5-11.7-13.1-4.4-2-13 1-11.3-8 1.5-8.3 9.1-7.7 15.6-7.1a25 25 0 0 1 24 25c.5 16.2-8.4 28.5-23.3 30-8.7 1-18 2-26.8-4.3Z" fill="#000"/></g><g transform="translate(-45 137)"><path d="M409.2 75.7c13.1.3 25.4 1 37.7 2.5 3 .3 4.9 3.3 5 6.6 0 3.4-1.8 5.7-4.8 7-11.1 4.9-22 8.3-33.7.2-6.5-4.4-8.9-8.6-4.2-16.3ZM254.7 78.4c6.2 3.3 5.2 7 2.1 10.8-6.5 8-28.2 10-36.4 3.5-4.7-3.8-7.3-8.6-4.4-14.4 3-6 8.2-5 13-2.5 8 4 16.4 3 25.7 2.6Z" fill="#000"/></g><g transform="translate(-45 137)"></g><g transform="translate(119 114)"><path d="M98.9 41.8c6.6-.8 12-1.8 17.5-2.3 4.7-.5 8.2 1.8 10.3 6 1.9 4-1.5 6-3.4 8.8-14.9 21.7-37 16.6-56.8 13-14-2.6-30.4-5.1-37.1-22.7-3.5-9-2.8-12 7.1-13 5.7-.5 11 1.3 16.2 3 14.8 5.1 30.5 7.5 46.2 7.2ZM229.4 42.2c5.6-4 10.8-3 16.4-1.8 17.1 3.5 34.3 5.8 50.2-4.7 4.3-2.9 9.2-3.5 12.7.7 3.2 3.9.3 7.8-1.9 11.6-7 12.4-18.9 16.4-31.4 19.6-10 2.6-20.4 2-30.5 1.4-15.9-1-21.8-11-15.5-26.8Z" fill="#000"/></g></g></svg>