<svg xmlns="http://www.w3.org/2000/svg" viewBox="0 0 560 560" fill="none" shape-rendering="auto"><metadata xmlns:rdf="http://www.w3.org/1999/02/22-rdf-syntax-ns#" xmlns:xsi="http://www.w3.org/2001/XMLSchema-instance" xmlns:dc="http://purl.org/dc/elements/1.1/" xmlns:dcterms="http://purl.org/dc/terms/"><rdf:RDF><rdf:Description><dc:title>Notionists</dc:title><dc:creator>Zoish</dc:creator><dc:source xsi:type="dcterms:URI">https://heyzoish.gumroad.com/l/notionists</dc:source><dcterms:license xsi:type="dcterms:URI">https://creativecommons.org/publicdomain/zero/1.0/</dcterms:license><dc:rights>Remix of „Notionists” (https://heyzoish.gumroad.com/l/notionists) by „Zoish”, licensed under „CC0 1.0” (https://creativecommons.org/publicdomain/zero/1.0/)</dc:rights></rdf:Description></rdf:RDF></metadata><mask id="viewboxMask"><rect width="560" height="560" rx="0" ry="0" x="0" y="0" fill="#fff" /></mask><g mask="url(#viewboxMask)"><rect fill="#ffffff" width="560" height="560" x="0" y="0" /><g transform="translate(136 328)"><path d="M79.1 76.2c7.7-15.2-6-20-13-28.8-12 28.2-9.2 55.9 6.1 65 1.2-11.6-.3-23.8 7-36.2Z" fill="#fff"/><path fill-rule="evenodd" clip-rule="evenodd" d="M88.8 107v-9.7c1-2 1.5-4.2 1.9-6.2.7-3.4 1.3-6.5 4.3-8.8 4.5-.1 8.3 1.9 12.1 4 3.3 1.6 6.6 3.4 10.3 3.8h1c3 .5 6.3.9 7.8-3 1.6-4.1.2-7.7-3.8-9.5C103.6 69 91.2 53.7 78.9 38c-8.4-10.9-20.8-8.3-28.4 3.9-11.2 18-8.4 37.6-5.8 56l.1 1c2 13.6 9.3 27.7 24.9 33.3 11.4 4 18.4-.2 19-12.2l.1-13ZM72.2 53.5c6.5 5.8 12.6 11.3 7 22.7-5.5 9.4-6 18.7-6.4 27.7a152 152 0 0 1-.6 8.5c-15.3-9.1-18.2-36.8-6.1-65 1.8 2.2 4 4.2 6.1 6.1Z" fill="#000"/></g><g transform="translate(246 125)"><path d="M68.7 106.5c6.5 23.1 15 44 30.2 62.1 6.2 7.4 3.6 18.1-3 24.6-13.8 13.4-29.3 24-50 15.6-5-2-9.2.5-13.7.9-9.5.8-16.6-1.5-16.6-14.3 13.2 2.4 25-7.3 38.9 1.2 6.2 3.9 17.9-.6 24.9-6 5.7-4.5 9.8-10.7 2.5-19.3-19-22.7-27-50.3-30-79.1a60 60 0 0 1 4.6-28.6C58.3 59 61.7 55 67.3 57c5.5 2 4.5 7.3 3 11-5.2 12.4-4 24.9-1.6 38.4Z" fill="#000"/></g><g transform="translate(-45 137)"><path d="M419.6 111c-4.2-9.5-9.9-15.2-19.8-15.7-6-.3-7-5.1-8.9-9.8 2-1.5 3.5-3.7 5.3-3.8 21.1-1.7 42.4-1.8 63.5-.1 6 .4 9.3 8 3.2 10.4-10 4-12.5 13.2-18.5 19.8-8.2 9-15.2 9.1-24.8-.8ZM228.6 81.4c12.2.7 23.1 1 34 2 3.6.3 8 1.8 8 6.7 0 5.6-4.6 5.2-8.3 5.1-6.3 0-9.7 2.7-12.5 8.6-3.4 7.4-6.9 15.3-18 14.8-10.5-.5-15.1-7.2-18.1-15.2-2.2-5.7-5-8.4-11-8.2-3.4.1-7.1-.2-7.5-4.9-.4-5 3-6 7-7.2a67.9 67.9 0 0 1 26.4-1.7Z" fill="#000"/></g><g transform="translate(-45 137)"></g><g transform="translate(119 114)"><path d="M104.9 38.7C82.4 47 60.2 43 38.3 43c-3 0-6.3-2.2-9.2-4-2.7-1.5-4.4-4-3-7.4 1.5-3.7 4-5 8-4.5 27.2 3.7 53.7.8 79.9-7 5-1.6 13.3-8 16.2 1.6 3 10.2-6.8 10.8-13.4 13l-12 3.9ZM260.5 33.1c-7.2 2.7-13.5 5.3-19.9 7.6-2.4.8-5.1.9-6.8-1.8-1.6-2.4-1-4.4.5-7 13.4-22 56.2-24.9 71-4.4 1.9 2.4 3.3 5 4.2 7.8 1.3 4.1 2.4 9.2-2.2 11.5-4.3 2.2-7.7-1.1-10.7-4.5-14-15.5-17-16.3-36-9.2Z" fill="#000"/></g></g></svg>