<svg xmlns="http://www.w3.org/2000/svg" viewBox="0 0 560 560" fill="none" shape-rendering="auto"><metadata xmlns:rdf="http://www.w3.org/1999/02/22-rdf-syntax-ns#" xmlns:xsi="http://www.w3.org/2001/XMLSchema-instance" xmlns:dc="http://purl.org/dc/elements/1.1/" xmlns:dcterms="http://purl.org/dc/terms/"><rdf:RDF><rdf:Description><dc:title>Notionists</dc:title><dc:creator>Zoish</dc:creator><dc:source xsi:type="dcterms:URI">https://heyzoish.gumroad.com/l/notionists</dc:source><dcterms:license xsi:type="dcterms:URI">https://creativecommons.org/publicdomain/zero/1.0/</dcterms:license><dc:rights>Remix of „Notionists” (https://heyzoish.gumroad.com/l/notionists) by „Zoish”, licensed under „CC0 1.0” (https://creativecommons.org/publicdomain/zero/1.0/)</dc:rights></rdf:Description></rdf:RDF></metadata><mask id="viewboxMask"><rect width="560" height="560" rx="0" ry="0" x="0" y="0" fill="#fff" /></mask><g mask="url(#viewboxMask)"><rect fill="#ffffff" width="560" height="560" x="0" y="0" /><g transform="translate(136 328)"><path d="M83 85.8c-2.4 17.7 16.1 32.5 32.4 26-4.3-15.8-20.8-17.4-32.4-26Z" fill="#fff"/><path fill-rule="evenodd" clip-rule="evenodd" d="M72.3 102.8c12.4 23.4 36 29.9 61.7 16.3 10.5-6.4 14.9-16.6 18.7-26.1a27.3 27.3 0 0 0-1.5-24.2C137.2 43 120 42.3 99.3 46.2c-22.5 4.3-37.8 36.4-27 56.6Zm43.1 9c-16.3 6.5-34.8-8.3-32.4-26 3.7 2.7 7.8 4.7 11.9 6.7 8.9 4.3 17.6 8.5 20.5 19.3Z" fill="#000"/><path d="M67 37c8.2 3.7 7.7 9.3 4.2 15-2.6 4.5-6.5 7.2-11.7 4-4.8-3-3.7-7.1-1-11 2.2-3 3-7.3 8.5-8Z" fill="#000"/></g><g transform="translate(246 125)"><path d="M109.6 185c-9.9 23.2-31.7 22.6-50.5 27.2-5.4 1.5-11.1 1-16.2-1.5.1-8.5 5.5-10.3 12-10.1 10.5.2 19.9-4 29.3-7.7 8.5-3.3 12-8.2 6.4-17.6-9-15.2-17.7-30.6-21.7-48.3a87.5 87.5 0 0 1 1.8-46.4c1.3-4 1.9-9.1 8-7.3 5 1.5 4.3 5.9 3.3 9.6-9.2 33 5 60 22.2 86.1 3 4.8 6.1 9.1 5.4 16Z" fill="#000"/></g><g transform="translate(-45 137)"><path d="M419.6 111c-4.2-9.5-9.9-15.2-19.8-15.7-6-.3-7-5.1-8.9-9.8 2-1.5 3.5-3.7 5.3-3.8 21.1-1.7 42.4-1.8 63.5-.1 6 .4 9.3 8 3.2 10.4-10 4-12.5 13.2-18.5 19.8-8.2 9-15.2 9.1-24.8-.8ZM228.6 81.4c12.2.7 23.1 1 34 2 3.6.3 8 1.8 8 6.7 0 5.6-4.6 5.2-8.3 5.1-6.3 0-9.7 2.7-12.5 8.6-3.4 7.4-6.9 15.3-18 14.8-10.5-.5-15.1-7.2-18.1-15.2-2.2-5.7-5-8.4-11-8.2-3.4.1-7.1-.2-7.5-4.9-.4-5 3-6 7-7.2a67.9 67.9 0 0 1 26.4-1.7Z" fill="#000"/></g><g transform="translate(-45 137)"></g><g transform="translate(119 114)"><path d="M57.5 41.8C51.3 41.3 46 41 41 41c-5.7-.2-8.5-3.4-9-8.8-.5-5.3 3-7 7.5-8.5 8.6-3 17.1-.5 25.2.7 15.4 2.1 31.5-.6 46.4 6.3 5 2.3 8.3 4.7 6.4 10.3-1.8 5.2-6.1 5.2-10.6 4.1-16-3.7-32.4.9-49.4-3.3ZM251.8 32c17.2.9 33.1-5 49.3-1.2 4 1 9 .7 8.8 7 0 6.2-4.7 7.4-9.5 8-19 2.2-38 4-56.9 6.4-5.7.7-11 .1-12.6-5.6-1.7-5.7 4-7.8 8-10 3.5-2.1 7.8-3.1 12.9-4.7Z" fill="#000"/></g></g></svg>