<svg xmlns="http://www.w3.org/2000/svg" viewBox="0 0 560 560" fill="none" shape-rendering="auto"><metadata xmlns:rdf="http://www.w3.org/1999/02/22-rdf-syntax-ns#" xmlns:xsi="http://www.w3.org/2001/XMLSchema-instance" xmlns:dc="http://purl.org/dc/elements/1.1/" xmlns:dcterms="http://purl.org/dc/terms/"><rdf:RDF><rdf:Description><dc:title>Notionists</dc:title><dc:creator>Zoish</dc:creator><dc:source xsi:type="dcterms:URI">https://heyzoish.gumroad.com/l/notionists</dc:source><dcterms:license xsi:type="dcterms:URI">https://creativecommons.org/publicdomain/zero/1.0/</dcterms:license><dc:rights>Remix of „Notionists” (https://heyzoish.gumroad.com/l/notionists) by „Zoish”, licensed under „CC0 1.0” (https://creativecommons.org/publicdomain/zero/1.0/)</dc:rights></rdf:Description></rdf:RDF></metadata><mask id="viewboxMask"><rect width="560" height="560" rx="0" ry="0" x="0" y="0" fill="#fff" /></mask><g mask="url(#viewboxMask)"><rect fill="#ffffff" width="560" height="560" x="0" y="0" /><g transform="translate(136 328)"><path d="M141.7 79c-3.2 7-5.7 14.2-6.1 22-.2 4.6.8 9.8 6 11.6 5.4 1.9 9.1-1 12.8-5.6 6-7.5 7.4-16.2 7.5-25.1 0-5 1.3-11.8-6.1-13.7-7.6-2-10.7 3.1-14 10.7Z" fill="#fff"/><path fill-rule="evenodd" clip-rule="evenodd" d="M140.4 59.5c-14.9 15-17.2 33.4-14.1 54.3 5.4 10.8 14 11.2 23.4 9.9 21.3-2.9 39.6-34.7 26-58.5-9.4-16.3-22-19-35.3-5.7Zm-4.8 41.4c.4-7.7 2.9-15 6.1-22 3.4-7.6 6.5-12.7 14-10.7 6.7 1.7 6.4 7.3 6.3 12v1.7a39.1 39.1 0 0 1-7.6 25.1c-3.7 4.6-7.4 7.5-12.8 5.6-5.2-1.8-6.2-7-6-11.7Z" fill="#000"/></g><g transform="translate(246 125)"><path d="M69.4 96c-.6-14.1-4.3-27.2.4-40.1 1.2-3.3 1.2-8.6 6.7-8 5.5.8 4.5 5.6 4 9.2-4.6 30.7 7 58.6 15 87 2.7 9.3 6.6 18.2 6.1 28.4-.8 16.4-11.3 26.4-27.4 23.6a29.5 29.5 0 0 0-17.2 1.8c-14 5.6-26-5-39.6-5.3-4 0-6.6-7.3-7-12.7 0-2.5.4-5.2 3.5-6 2-.8 4.4.2 5.3 2.2 3.6 7 9.3 3.2 14.4 4.2 11.9 2 23 1.3 34.8.9 5.8-.3 11.7 3.3 17.2-1.7 5.8-5.2 4-11.3 2.2-17.6C81.7 140.3 72 119.7 69.4 96Z" fill="#000"/></g><g transform="translate(-45 137)"><path d="M215.1 76.6c5-12 9-29.4 24.1-22.5 20.7 9.4 13.9 30.7 9.7 47.4-1.6 6.3-14.5 15.9-18.3 14.3-16.3-6.8-19.2-21.7-15.5-39.2ZM442 113.4c-8.6 7.5-17 7.6-22.2-1.5-9-16-8.6-32.8 3.3-47.2 2.5-3 13.8-3.6 16.3-1 14 15 14.6 31.8 2.6 49.7Z" fill="#000"/></g><g transform="translate(-45 137)"></g><g transform="translate(119 114)"><path d="M295 29.6c2.6 7.3 5.5 13.5 7 20 1.2 4.9 1.7 10.4-5 12.6-7.6 2.6-8.6-3.4-10.6-7.8a120 120 0 0 1-5.5-14.2c-1.5-4.9-4.3-7-9.4-6.8-5 .1-8 3-9.3 7.2-1.7 5.3-3 10.7-4 16.1-1 4.5-4.2 4.8-7.8 4.6-3.6-.1-5.3-2-5.9-5.5-3.2-20.1 6.1-38.2 25.9-41.2 12.2-2 19 4.5 24.5 15ZM50.6 33C65.7 12.5 80 8.5 94.6 21.7c9.1 8.3 8.7 21.2 10.7 32.6.5 3-2 5.7-5.3 6.3-3.5.7-7-1.2-8.4-4.4-1.7-4-2.2-8.3-3.6-12.2-1.7-4.8-3.2-10-9.7-10.5-6.4-.5-10.6 3-13.2 8-3.6 7.2-4.8 20-15.7 14.7-10.4-5-1.9-14.7 1.2-23.2Z" fill="#000"/></g></g></svg>