<svg xmlns="http://www.w3.org/2000/svg" viewBox="0 0 560 560" fill="none" shape-rendering="auto"><metadata xmlns:rdf="http://www.w3.org/1999/02/22-rdf-syntax-ns#" xmlns:xsi="http://www.w3.org/2001/XMLSchema-instance" xmlns:dc="http://purl.org/dc/elements/1.1/" xmlns:dcterms="http://purl.org/dc/terms/"><rdf:RDF><rdf:Description><dc:title>Notionists</dc:title><dc:creator>Zoish</dc:creator><dc:source xsi:type="dcterms:URI">https://heyzoish.gumroad.com/l/notionists</dc:source><dcterms:license xsi:type="dcterms:URI">https://creativecommons.org/publicdomain/zero/1.0/</dcterms:license><dc:rights>Remix of „Notionists” (https://heyzoish.gumroad.com/l/notionists) by „Zoish”, licensed under „CC0 1.0” (https://creativecommons.org/publicdomain/zero/1.0/)</dc:rights></rdf:Description></rdf:RDF></metadata><mask id="viewboxMask"><rect width="560" height="560" rx="0" ry="0" x="0" y="0" fill="#fff" /></mask><g mask="url(#viewboxMask)"><rect fill="#ffffff" width="560" height="560" x="0" y="0" /><g transform="translate(136 328)"><path fill-rule="evenodd" clip-rule="evenodd" d="M88 70.6a153.5 153.5 0 0 0 115.3-.2c4.1-1.8 8.8-4 12.4 1.5 4.2 6.4.6 12.2-3.4 17.4A71.8 71.8 0 0 1 203 100c-3.8 3.4-9 7.4-13.6 3.4-8.8-7.6-14.7-5.6-22.7 1.7-11.3 10.2-21 4.5-27.6-7-21.8 14.3-21.8 14.3-32.7 1.8h-.9c-.6-.1-1.3-.1-1.6.2-14.7 12.7-17.9 11.3-24-8.6l-1-5c-1.4-6.7-2.7-13.5-12.1-14.9.4-4.5 3.2-7.5 6.3-10.2 3.1.4 5 2.4 7 4.5 2 2.2 4.1 4.4 7.7 4.8Zm11 14.3a22.3 22.3 0 0 0-13.5-6.3c-1.3 6 1.1 10.1 3.4 14.3l2.3 4.2c6-1.6 7.8-5.5 7.8-12.2Zm27.6 8.8c1.8 6-2.6 8.1-8 7.9-4.3-2.8-4.5-6-4.8-9.2 0-1 0-2-.3-3 6.2-1.9 11.4-1.2 13 4.3Zm36.8 4.4c1.7-7.5-2-6.8-5.6-6-1.4.2-2.8.4-3.8.2-2.4-.6-5.3.5-5.2 3.8.2 5.2 4.3 5.8 8.1 5.7 1.9 0 3.7-1.4 6.5-3.7Zm29-2.4c-3.8-4.7-5-8.8 1.5-12.1 4.6-1.3 8.7-2.3 8.5 2-.3 5.2-3.6 9.2-10 10Z" fill="#000"/></g><g transform="translate(246 125)"><path d="M74.2 188c5.5-3.8 9.7-9.4 11.8-15.9a23 23 0 0 0-4.4-22.8c-5.3-6-12.4-3.7-19-1.7-4.2 1.3-9.5 5.3-12.2-1.2-2.4-5.6 1.8-10 6-12.7a28 28 0 0 1 26.8-2.8c11.9 4.7 16.4 14.5 18.1 25.8 6.7 44.3-31 54.4-60.7 52.5-2.1-.2-4.2-1-6-2.2-3.3-2.2-8.6-3.8-7.1-9.1 1.6-6 6.7-5 11.6-4 12 2.3 23.5.2 35-5.8Z" fill="#000"/></g><g transform="translate(-45 137)"><path d="M215.1 76.6c5-12 9-29.4 24.1-22.5 20.7 9.4 13.9 30.7 9.7 47.4-1.6 6.3-14.5 15.9-18.3 14.3-16.3-6.8-19.2-21.7-15.5-39.2ZM442 113.4c-8.6 7.5-17 7.6-22.2-1.5-9-16-8.6-32.8 3.3-47.2 2.5-3 13.8-3.6 16.3-1 14 15 14.6 31.8 2.6 49.7Z" fill="#000"/></g><g transform="translate(-45 137)"></g><g transform="translate(119 114)"><path d="M81.4 35C60 29.6 52 33.2 40 52.6c-2.4 4-3.4 11.4-10.6 7-5.6-3.4-5.3-8.8-2.6-14.6a51.4 51.4 0 0 1 38-30.7 33.1 33.1 0 0 1 37.5 26.4c.9 5.3.1 10-4.8 13.6-11.2-1.3-8-14.2-16-19.1ZM246.2 32.8c14-6.2 27-12.4 41.2-1.9 5.1 3.7 9 8.8 11.3 14.7 2 5 2.3 10.7-2.7 13.8-5.7 3.5-8.1-2.1-11-5.6-10.4-12.8-18.4-13.7-32.4-4.6-4 2.6-6.8 8-13.5 7-5.7-9.6-.1-16.3 7-23.4Z" fill="#000"/></g></g></svg>