<svg xmlns="http://www.w3.org/2000/svg" viewBox="0 0 560 560" fill="none" shape-rendering="auto"><metadata xmlns:rdf="http://www.w3.org/1999/02/22-rdf-syntax-ns#" xmlns:xsi="http://www.w3.org/2001/XMLSchema-instance" xmlns:dc="http://purl.org/dc/elements/1.1/" xmlns:dcterms="http://purl.org/dc/terms/"><rdf:RDF><rdf:Description><dc:title>Notionists</dc:title><dc:creator>Zoish</dc:creator><dc:source xsi:type="dcterms:URI">https://heyzoish.gumroad.com/l/notionists</dc:source><dcterms:license xsi:type="dcterms:URI">https://creativecommons.org/publicdomain/zero/1.0/</dcterms:license><dc:rights>Remix of „Notionists” (https://heyzoish.gumroad.com/l/notionists) by „Zoish”, licensed under „CC0 1.0” (https://creativecommons.org/publicdomain/zero/1.0/)</dc:rights></rdf:Description></rdf:RDF></metadata><mask id="viewboxMask"><rect width="560" height="560" rx="0" ry="0" x="0" y="0" fill="#fff" /></mask><g mask="url(#viewboxMask)"><rect fill="#ffffff" width="560" height="560" x="0" y="0" /><g transform="translate(136 328)"><path d="M99.3 109c-12.6 6.6-16.2-1.7-20-10.4-3.3-7.8-.8-18.1-13.5-21.8-6-1.7-.7-10.5 2.2-15.4 2.4-4.2 6.9-6.4 10.6-2.4 15.8 17.4 37.8 16.7 58 20C160 82.8 182 73.9 204 67.6c4.4-1.2 9.2-5.2 13-1 4 4.6 4.9 11.2 2 16.7a51.8 51.8 0 0 1-19.5 22.8c-4 2.4-8 4-11.6.1-6.4-6.7-11.1-5.7-18 .4-12 10.6-19.3 9.1-31.1-3.6-4-1.1-4.8 2.7-7 4.4-7.6 5.7-15.7 7.9-22.5-.3-4.8-5.7-6.7-2.7-9.9 1.9Z" fill="#000"/></g><g transform="translate(246 125)"><path d="M27 199.5c-7.6-4.6-16.3-6-19.8-14.5-1.8-4.5-3.5-9-1.4-13.5 3-6.4 8.9-8.5 15-6 8.6 3.7 1.8 9 .5 13.6C45 199 75 190.2 95.3 176c7.1-5 4.4-10.5-1.6-14.1-11.2-6.7-21.4-15.5-36.4-13.7 2.5-12.3 10.3-12.6 17-11.2A67.4 67.4 0 0 1 108 154c10.4 10.2 9.5 23.6-1.5 33.3-16 14.2-35.7 17.2-55.9 16-7.4-.3-15.4.3-23.5-3.7Z" fill="#000"/></g><g transform="translate(-45 137)"><path d="M419.6 111c-4.2-9.5-9.9-15.2-19.8-15.7-6-.3-7-5.1-8.9-9.8 2-1.5 3.5-3.7 5.3-3.8 21.1-1.7 42.4-1.8 63.5-.1 6 .4 9.3 8 3.2 10.4-10 4-12.5 13.2-18.5 19.8-8.2 9-15.2 9.1-24.8-.8ZM228.6 81.4c12.2.7 23.1 1 34 2 3.6.3 8 1.8 8 6.7 0 5.6-4.6 5.2-8.3 5.1-6.3 0-9.7 2.7-12.5 8.6-3.4 7.4-6.9 15.3-18 14.8-10.5-.5-15.1-7.2-18.1-15.2-2.2-5.7-5-8.4-11-8.2-3.4.1-7.1-.2-7.5-4.9-.4-5 3-6 7-7.2a67.9 67.9 0 0 1 26.4-1.7Z" fill="#000"/></g><g transform="translate(-45 137)"><path fill-rule="evenodd" clip-rule="evenodd" d="M372.1 25c48-35 106.4-15.5 124.2 37 11.5 33.7-3 78.3-44 93.1-41.7 15.1-78 1.6-98.3-36.3a72.8 72.8 0 0 1-7.6-28c-1-11.5-5.7-17.1-16.7-18.6-12.4-1.6-20.5 3.6-24.5 15.4-1.3 3.8-2 7.8-2.8 11.7-.8 4.7-1.7 9.4-3.5 14-21.2 53.8-89.3 64.8-129 22.7a81.8 81.8 0 0 1-16.8-32.6 44.2 44.2 0 0 0-30.5-30.9c-19.7-6.6-39.3-13.9-59-21-11-4.2-22-8.3-33.2-12.2-5.7-2-11.7-4.4-8.7-11.3 2.2-5 6-3.4 9.7-1.8 1.1.5 2.3 1 3.4 1.3a530.5 530.5 0 0 1 50.3 18c16.6 6.6 33 13.1 50.2 18a18 18 0 0 0 22.5-11.1 68.8 68.8 0 0 1 63-44.6c34.6-2 62.7 12.9 77 47.2 1 2 2 4 3.2 6l1.6 3a57 57 0 0 1 45.6.6 81.5 81.5 0 0 1 24-39.5ZM248.8 144.5c24.3-10 40-27.5 43-53.8 5.6-49.4-42-83.2-89.2-65.2a63.4 63.4 0 0 0-27.7 95.1c18.4 25.1 42.8 31.3 74 24ZM433.6 20.1c19.5 1.6 33.6 15.1 44.7 31 14.2 23.7 11.3 55.3-11 79-14.8 15.7-48 23.3-70.3 13a62.3 62.3 0 0 1-37.6-65.7c6-45.2 40-60.2 74.2-57.3Z" fill="#000"/></g><g transform="translate(119 114)"><path d="M56.8 30.9c9.5-10.6 21.8-16.2 31.6-25C93 1.8 98 3 101.8 7.5c3.8 4.3 7.3 8.3 2.7 14.5a83 83 0 0 1-42.7 28.3C47.4 55 32 56.5 17 59.3c-4.5.9-10.2 3.3-11.5-3.6-1.2-6.6 3.2-10 9.5-11.2 14.2-2.8 28.4-5.2 41.8-13.6ZM289.9 29c11.3 2 18 11 27.8 14.2 3.8 1.2 8.4 4.7 6.6 9.5-2.1 5.8-8 4.3-12.2 3a450.2 450.2 0 0 1-39.2-14.5c-12.8-5.6-25.1-12.4-37.4-19-6-3.2-11.6-7.8-7.4-15.2 4.2-7.3 11-9.5 18.3-3.7C259.4 13.8 275 19.8 290 29Z" fill="#000"/></g></g></svg>