<svg xmlns="http://www.w3.org/2000/svg" viewBox="0 0 560 560" fill="none" shape-rendering="auto"><metadata xmlns:rdf="http://www.w3.org/1999/02/22-rdf-syntax-ns#" xmlns:xsi="http://www.w3.org/2001/XMLSchema-instance" xmlns:dc="http://purl.org/dc/elements/1.1/" xmlns:dcterms="http://purl.org/dc/terms/"><rdf:RDF><rdf:Description><dc:title>Notionists</dc:title><dc:creator>Zoish</dc:creator><dc:source xsi:type="dcterms:URI">https://heyzoish.gumroad.com/l/notionists</dc:source><dcterms:license xsi:type="dcterms:URI">https://creativecommons.org/publicdomain/zero/1.0/</dcterms:license><dc:rights>Remix of „Notionists” (https://heyzoish.gumroad.com/l/notionists) by „Zoish”, licensed under „CC0 1.0” (https://creativecommons.org/publicdomain/zero/1.0/)</dc:rights></rdf:Description></rdf:RDF></metadata><mask id="viewboxMask"><rect width="560" height="560" rx="0" ry="0" x="0" y="0" fill="#fff" /></mask><g mask="url(#viewboxMask)"><rect fill="#ffffff" width="560" height="560" x="0" y="0" /><g transform="translate(136 328)"><path d="M141.7 79c-3.2 7-5.7 14.2-6.1 22-.2 4.6.8 9.8 6 11.6 5.4 1.9 9.1-1 12.8-5.6 6-7.5 7.4-16.2 7.5-25.1 0-5 1.3-11.8-6.1-13.7-7.6-2-10.7 3.1-14 10.7Z" fill="#fff"/><path fill-rule="evenodd" clip-rule="evenodd" d="M140.4 59.5c-14.9 15-17.2 33.4-14.1 54.3 5.4 10.8 14 11.2 23.4 9.9 21.3-2.9 39.6-34.7 26-58.5-9.4-16.3-22-19-35.3-5.7Zm-4.8 41.4c.4-7.7 2.9-15 6.1-22 3.4-7.6 6.5-12.7 14-10.7 6.7 1.7 6.4 7.3 6.3 12v1.7a39.1 39.1 0 0 1-7.6 25.1c-3.7 4.6-7.4 7.5-12.8 5.6-5.2-1.8-6.2-7-6-11.7Z" fill="#000"/></g><g transform="translate(246 125)"><path d="M27 199.5c-7.6-4.6-16.3-6-19.8-14.5-1.8-4.5-3.5-9-1.4-13.5 3-6.4 8.9-8.5 15-6 8.6 3.7 1.8 9 .5 13.6C45 199 75 190.2 95.3 176c7.1-5 4.4-10.5-1.6-14.1-11.2-6.7-21.4-15.5-36.4-13.7 2.5-12.3 10.3-12.6 17-11.2A67.4 67.4 0 0 1 108 154c10.4 10.2 9.5 23.6-1.5 33.3-16 14.2-35.7 17.2-55.9 16-7.4-.3-15.4.3-23.5-3.7Z" fill="#000"/></g><g transform="translate(-45 137)"><path d="M409.2 75.7c13.1.3 25.4 1 37.7 2.5 3 .3 4.9 3.3 5 6.6 0 3.4-1.8 5.7-4.8 7-11.1 4.9-22 8.3-33.7.2-6.5-4.4-8.9-8.6-4.2-16.3ZM254.7 78.4c6.2 3.3 5.2 7 2.1 10.8-6.5 8-28.2 10-36.4 3.5-4.7-3.8-7.3-8.6-4.4-14.4 3-6 8.2-5 13-2.5 8 4 16.4 3 25.7 2.6Z" fill="#000"/></g><g transform="translate(-45 137)"></g><g transform="translate(119 114)"><path d="M98.9 41.8c6.6-.8 12-1.8 17.5-2.3 4.7-.5 8.2 1.8 10.3 6 1.9 4-1.5 6-3.4 8.8-14.9 21.7-37 16.6-56.8 13-14-2.6-30.4-5.1-37.1-22.7-3.5-9-2.8-12 7.1-13 5.7-.5 11 1.3 16.2 3 14.8 5.1 30.5 7.5 46.2 7.2ZM229.4 42.2c5.6-4 10.8-3 16.4-1.8 17.1 3.5 34.3 5.8 50.2-4.7 4.3-2.9 9.2-3.5 12.7.7 3.2 3.9.3 7.8-1.9 11.6-7 12.4-18.9 16.4-31.4 19.6-10 2.6-20.4 2-30.5 1.4-15.9-1-21.8-11-15.5-26.8Z" fill="#000"/></g></g></svg>