<svg xmlns="http://www.w3.org/2000/svg" viewBox="0 0 560 560" fill="none" shape-rendering="auto"><metadata xmlns:rdf="http://www.w3.org/1999/02/22-rdf-syntax-ns#" xmlns:xsi="http://www.w3.org/2001/XMLSchema-instance" xmlns:dc="http://purl.org/dc/elements/1.1/" xmlns:dcterms="http://purl.org/dc/terms/"><rdf:RDF><rdf:Description><dc:title>Notionists</dc:title><dc:creator>Zoish</dc:creator><dc:source xsi:type="dcterms:URI">https://heyzoish.gumroad.com/l/notionists</dc:source><dcterms:license xsi:type="dcterms:URI">https://creativecommons.org/publicdomain/zero/1.0/</dcterms:license><dc:rights>Remix of „Notionists” (https://heyzoish.gumroad.com/l/notionists) by „Zoish”, licensed under „CC0 1.0” (https://creativecommons.org/publicdomain/zero/1.0/)</dc:rights></rdf:Description></rdf:RDF></metadata><mask id="viewboxMask"><rect width="560" height="560" rx="0" ry="0" x="0" y="0" fill="#fff" /></mask><g mask="url(#viewboxMask)"><rect fill="#ffffff" width="560" height="560" x="0" y="0" /><g transform="translate(136 328)"><path d="M80.7 65.4c-1.1-4.6-2.8-8.8 2-10.8C86.7 53 90 55 93 58a76 76 0 0 0 34.4 21c27 6.7 51-.5 71.2-19.9 3.4-3.2 6.7-6.5 10.2-9.5 2.4-2 5.1-3.2 8-.7 3 2.7 1.5 5.4-.1 8-13.6 21.4-31.7 35.8-58.1 37-8 .3-16.1 1-24.1.8-22.4-.6-38-14.3-53.8-29.3ZM49.3 54.5c.4-15.5 8-25.4 19.7-33 4.7-3 9.4-4 14.5-2.7 3.3 1 6.5 2.7 7 6.6.7 4.3-2.4 5.6-6 6.8a30.5 30.5 0 0 0-21.4 22.9c-1 4.3-2 9-7 9.4-5.9.6-5.2-5.4-6.8-10ZM230.4 35c0-8.8 5.4-7.4 9.7-6 7.2 2.3 16 18.6 14.7 26.5-.4 2.5-.4 5.3-3.3 6.4-3.4 1.3-5.8-.4-7.5-3.1a710 710 0 0 1-13.6-23.9Z" fill="#000"/></g><g transform="translate(246 125)"><path d="M65.7 103.7c-.6 21.6 16.4 30.6 27.5 43.5 8.5 10 18.5 18.7 13.7 34.4a39.6 39.6 0 0 1-40.8 27.6 104 104 0 0 1-36.4-11A22.2 22.2 0 0 1 19 187.6c-1.7-3.8-5.4-7.8-.5-11.4 4.6-3.4 7 0 10 3.7 11 13.3 26 16.4 42.6 15.7A23.2 23.2 0 0 0 93 180.8c3.6-8.3-1.6-15.2-6.3-20.8-9.3-11-20-20.5-27.4-33.2-8.3-14.2-7.6-44.1 2.2-57.4 1.9-2.5 3.6-5 7.2-3.1 3.8 2 3.4 5.5 2.2 9a69.3 69.3 0 0 0-5.2 28.4Z" fill="#000"/></g><g transform="translate(-45 137)"><path d="M407.4 122.5c13 .3 25.4 1.1 37.6 2.5 3 .4 5 3.3 5 6.7 0 3.3-1.7 5.6-4.7 7-11.2 4.8-22 8.2-33.7.2-6.5-4.5-9-8.7-4.2-16.4ZM247.6 117c7 0 7.8 3.8 7 8.5-2 10.2-20 22.4-30.4 20.5-5.9-1-10.5-4-10.7-10.5-.2-6.7 4.8-8.2 10.3-8.4 9-.3 15.8-5.2 23.8-10ZM215.1 76.6c5-12 9-29.4 24.1-22.5 20.7 9.4 13.9 30.7 9.7 47.4-1.6 6.3-14.5 15.9-18.3 14.3-16.3-6.8-19.2-21.7-15.5-39.2ZM442 113.4c-8.6 7.5-17 7.6-22.2-1.5-9-16-8.6-32.8 3.3-47.2 2.5-3 13.8-3.6 16.3-1 14 15 14.6 31.8 2.6 49.7Z" fill="#000"/></g><g transform="translate(-45 137)"><path d="M474.1 17C499.7 31.2 503.5 68 495 84.7c-8 15.4-19.5 28.5-32.9 39.9a104.9 104.9 0 0 1-38.8 22.8c-7 2-13 .1-18.1-3.3-18.1-12-33.2-27.5-47.5-43.7-3-3.6-5.3-7.7-6.6-12.3-4.3-14.2-14.9-19.2-28.3-13a50.9 50.9 0 0 0-22.3 18.4 150.8 150.8 0 0 1-53.6 49.7c-14.2 8.1-23.5 6.4-37-3.6-13-9.7-24.9-20.8-35.4-33-8.4-9.8-16.8-19.4-15.7-33.5.3-4.6-2.5-7-6.5-8.3a14 14 0 0 0-3.7-.7c-21.3-1-41.3-9-62.6-10.3-16-1-30.9-8.7-46.5-12.6-4.5-1.2-8.7-3.8-13.2-4.6-6.5-1.2-7.8-5.5-9-11.6A65.5 65.5 0 0 1 52 29c18.3 7.3 38 8.5 57 12.8 15.5 3.6 31.5 5 47.7 10.1 4.5-17.5 11.5-32.7 29.6-40 19.9-8 33.2 3.2 48 15 15.2-8.1 31.4-17.3 49.7-9.8 18.4 7.4 22.8 24.7 26.2 42.7 11.6.4 22.8-3.5 34-.7 3.9-7 4.4-14.3 6.3-21.2a37.2 37.2 0 0 1 57.7-21.8c9.8 9 19 9.6 31.5 2.9a38.5 38.5 0 0 1 34.3-2.2Z" fill="#000"/></g><g transform="translate(119 114)"><path d="M81.4 35C60 29.6 52 33.2 40 52.6c-2.4 4-3.4 11.4-10.6 7-5.6-3.4-5.3-8.8-2.6-14.6a51.4 51.4 0 0 1 38-30.7 33.1 33.1 0 0 1 37.5 26.4c.9 5.3.1 10-4.8 13.6-11.2-1.3-8-14.2-16-19.1ZM246.2 32.8c14-6.2 27-12.4 41.2-1.9 5.1 3.7 9 8.8 11.3 14.7 2 5 2.3 10.7-2.7 13.8-5.7 3.5-8.1-2.1-11-5.6-10.4-12.8-18.4-13.7-32.4-4.6-4 2.6-6.8 8-13.5 7-5.7-9.6-.1-16.3 7-23.4Z" fill="#000"/></g></g></svg>