<svg xmlns="http://www.w3.org/2000/svg" viewBox="0 0 560 560" fill="none" shape-rendering="auto"><metadata xmlns:rdf="http://www.w3.org/1999/02/22-rdf-syntax-ns#" xmlns:xsi="http://www.w3.org/2001/XMLSchema-instance" xmlns:dc="http://purl.org/dc/elements/1.1/" xmlns:dcterms="http://purl.org/dc/terms/"><rdf:RDF><rdf:Description><dc:title>Notionists</dc:title><dc:creator>Zoish</dc:creator><dc:source xsi:type="dcterms:URI">https://heyzoish.gumroad.com/l/notionists</dc:source><dcterms:license xsi:type="dcterms:URI">https://creativecommons.org/publicdomain/zero/1.0/</dcterms:license><dc:rights>Remix of „Notionists” (https://heyzoish.gumroad.com/l/notionists) by „Zoish”, licensed under „CC0 1.0” (https://creativecommons.org/publicdomain/zero/1.0/)</dc:rights></rdf:Description></rdf:RDF></metadata><mask id="viewboxMask"><rect width="560" height="560" rx="0" ry="0" x="0" y="0" fill="#fff" /></mask><g mask="url(#viewboxMask)"><rect fill="#ffffff" width="560" height="560" x="0" y="0" /><g transform="translate(136 328)"><path d="M99.3 109c-12.6 6.6-16.2-1.7-20-10.4-3.3-7.8-.8-18.1-13.5-21.8-6-1.7-.7-10.5 2.2-15.4 2.4-4.2 6.9-6.4 10.6-2.4 15.8 17.4 37.8 16.7 58 20C160 82.8 182 73.9 204 67.6c4.4-1.2 9.2-5.2 13-1 4 4.6 4.9 11.2 2 16.7a51.8 51.8 0 0 1-19.5 22.8c-4 2.4-8 4-11.6.1-6.4-6.7-11.1-5.7-18 .4-12 10.6-19.3 9.1-31.1-3.6-4-1.1-4.8 2.7-7 4.4-7.6 5.7-15.7 7.9-22.5-.3-4.8-5.7-6.7-2.7-9.9 1.9Z" fill="#000"/></g><g transform="translate(246 125)"><path d="M68.7 106.5c6.5 23.1 15 44 30.2 62.1 6.2 7.4 3.6 18.1-3 24.6-13.8 13.4-29.3 24-50 15.6-5-2-9.2.5-13.7.9-9.5.8-16.6-1.5-16.6-14.3 13.2 2.4 25-7.3 38.9 1.2 6.2 3.9 17.9-.6 24.9-6 5.7-4.5 9.8-10.7 2.5-19.3-19-22.7-27-50.3-30-79.1a60 60 0 0 1 4.6-28.6C58.3 59 61.7 55 67.3 57c5.5 2 4.5 7.3 3 11-5.2 12.4-4 24.9-1.6 38.4Z" fill="#000"/></g><g transform="translate(-45 137)"><path d="M419.6 111c-4.2-9.5-9.9-15.2-19.8-15.7-6-.3-7-5.1-8.9-9.8 2-1.5 3.5-3.7 5.3-3.8 21.1-1.7 42.4-1.8 63.5-.1 6 .4 9.3 8 3.2 10.4-10 4-12.5 13.2-18.5 19.8-8.2 9-15.2 9.1-24.8-.8ZM228.6 81.4c12.2.7 23.1 1 34 2 3.6.3 8 1.8 8 6.7 0 5.6-4.6 5.2-8.3 5.1-6.3 0-9.7 2.7-12.5 8.6-3.4 7.4-6.9 15.3-18 14.8-10.5-.5-15.1-7.2-18.1-15.2-2.2-5.7-5-8.4-11-8.2-3.4.1-7.1-.2-7.5-4.9-.4-5 3-6 7-7.2a67.9 67.9 0 0 1 26.4-1.7Z" fill="#000"/></g><g transform="translate(-45 137)"><path d="M474.1 17C499.7 31.2 503.5 68 495 84.7c-8 15.4-19.5 28.5-32.9 39.9a104.9 104.9 0 0 1-38.8 22.8c-7 2-13 .1-18.1-3.3-18.1-12-33.2-27.5-47.5-43.7-3-3.6-5.3-7.7-6.6-12.3-4.3-14.2-14.9-19.2-28.3-13a50.9 50.9 0 0 0-22.3 18.4 150.8 150.8 0 0 1-53.6 49.7c-14.2 8.1-23.5 6.4-37-3.6-13-9.7-24.9-20.8-35.4-33-8.4-9.8-16.8-19.4-15.7-33.5.3-4.6-2.5-7-6.5-8.3a14 14 0 0 0-3.7-.7c-21.3-1-41.3-9-62.6-10.3-16-1-30.9-8.7-46.5-12.6-4.5-1.2-8.7-3.8-13.2-4.6-6.5-1.2-7.8-5.5-9-11.6A65.5 65.5 0 0 1 52 29c18.3 7.3 38 8.5 57 12.8 15.5 3.6 31.5 5 47.7 10.1 4.5-17.5 11.5-32.7 29.6-40 19.9-8 33.2 3.2 48 15 15.2-8.1 31.4-17.3 49.7-9.8 18.4 7.4 22.8 24.7 26.2 42.7 11.6.4 22.8-3.5 34-.7 3.9-7 4.4-14.3 6.3-21.2a37.2 37.2 0 0 1 57.7-21.8c9.8 9 19 9.6 31.5 2.9a38.5 38.5 0 0 1 34.3-2.2Z" fill="#000"/><path d="M193 63.5c-1-.3 1 0-.2.4-6.6 2 50.7 52.8 55.8 48.5 3-2.5-49.5-46.3-55.7-49ZM213.3 39.7c-.9-.3 1 0-.1.4-6.7 2 50.7 52.8 55.7 48.5 3-2.5-49.5-46.3-55.6-49ZM388.2 63.5c-.8-.3 1 0 0 .4-6.7 2 50.6 52.8 55.7 48.5 3-2.5-49.5-46.3-55.7-49ZM408.6 39.7c-.9-.3 1 0-.1.4-6.6 2 50.7 52.8 55.7 48.5 3-2.5-49.5-46.3-55.6-49Z" fill="#fff"/></g><g transform="translate(119 114)"><path d="M53.5 37.6a79.2 79.2 0 0 0 27.3-19.8c2.7-3 6.1-5.7 9.9-5 6.7 1.1 16.2-1 18.8 7.5 2.1 7-5.2 10.5-10.3 14.4-13.8 10.5-28.2 19-46.6 16.7-4.6-.5-9.7.2-11-6.2 1.6-5.5 7.3-4.9 11.9-7.6ZM251.4 15c8.5-1.7 12.6 4.1 17.1 8.2 8.1 7.4 14.7 16.4 26 19.8 3.3 1 5.7 4 4 8-1.5 3.5-4 5.7-8 4.6-14.3-3.8-29.2-5.9-40.6-16.8-10-9.6-10.2-14 1.5-23.7Z" fill="#000"/></g></g></svg>