<svg xmlns="http://www.w3.org/2000/svg" viewBox="0 0 560 560" fill="none" shape-rendering="auto"><metadata xmlns:rdf="http://www.w3.org/1999/02/22-rdf-syntax-ns#" xmlns:xsi="http://www.w3.org/2001/XMLSchema-instance" xmlns:dc="http://purl.org/dc/elements/1.1/" xmlns:dcterms="http://purl.org/dc/terms/"><rdf:RDF><rdf:Description><dc:title>Notionists</dc:title><dc:creator>Zoish</dc:creator><dc:source xsi:type="dcterms:URI">https://heyzoish.gumroad.com/l/notionists</dc:source><dcterms:license xsi:type="dcterms:URI">https://creativecommons.org/publicdomain/zero/1.0/</dcterms:license><dc:rights>Remix of „Notionists” (https://heyzoish.gumroad.com/l/notionists) by „Zoish”, licensed under „CC0 1.0” (https://creativecommons.org/publicdomain/zero/1.0/)</dc:rights></rdf:Description></rdf:RDF></metadata><mask id="viewboxMask"><rect width="560" height="560" rx="0" ry="0" x="0" y="0" fill="#fff" /></mask><g mask="url(#viewboxMask)"><rect fill="#ffffff" width="560" height="560" x="0" y="0" /><g transform="translate(136 328)"><path d="M203 92.2c5.7-4 7-10.6 8.7-16.5 2-7-1.7-13-8.8-12-8.2 1-16.6 1.4-24.6 5a65 65 0 0 1-54 1.2c-8.1-3.7-16.7-6-25.5-7.1C86 61.3 80.5 67 81 79.5c.4 10.9 10.2 19.6 23.5 20.1 32 1.3 63.1-12.1 95.4-6 .4.1.8-.3 3-1.4Z" fill="#fff"/><path fill-rule="evenodd" clip-rule="evenodd" d="M123.6 54.3c-10-5.3-20.7-10.8-34-7.2C68.1 55.6 62.4 69.3 68.5 90c6.2 21 36.6 27.8 55.7 24.8 5.5-.8 11-2.3 16.6-3.8 13.8-3.6 27.6-7.2 42-1.8 13.1 5 23.4-.7 33-8 11-8.3 15.3-33 8.6-44.5-4.8-8.1-21.5-13-32.4-9a125 125 0 0 0-20.8 9.5c-14.3 8.6-27.5 7.1-42.1 0l-5.5-2.8ZM211 77.8c-1.5 5.4-3 11-8.1 14.4a62.1 62.1 0 0 0-3 1.4c-18.4-3.5-36.5-.6-54.6 2.3a208 208 0 0 1-40.8 3.7c-13.3-.5-23-9.2-23.5-20C80.5 67 86 61.2 98.8 62.7c8.8 1 17.4 3.4 25.5 7a65 65 0 0 0 54-1.1c6.6-3 13.4-3.7 20.2-4.5l4.4-.5c7.1-1 10.8 5 8.8 12l-.6 2.1Z" fill="#000"/></g><g transform="translate(246 125)"><path d="m72.7 176.1.8 3.5c7.2 25.1-.3 33.5-27 30.2-5-.7-9.5-2.3-9.9-8-.5-5.9 4.6-6.1 8.8-7 4.6-.8 9-2 15.3-3.4a154 154 0 0 1-8.4-36.6c-2-15.8.7-30.4 5.8-45 2-5.7 5.6-10.6 12-7.9 5.6 2.4 3.2 8.1 1.4 12.4-8.6 20.4-7 40.7 1.2 61.8Z" fill="#000"/></g><g transform="translate(-45 137)"><path d="M409.2 75.7c13.1.3 25.4 1 37.7 2.5 3 .3 4.9 3.3 5 6.6 0 3.4-1.8 5.7-4.8 7-11.1 4.9-22 8.3-33.7.2-6.5-4.4-8.9-8.6-4.2-16.3ZM254.7 78.4c6.2 3.3 5.2 7 2.1 10.8-6.5 8-28.2 10-36.4 3.5-4.7-3.8-7.3-8.6-4.4-14.4 3-6 8.2-5 13-2.5 8 4 16.4 3 25.7 2.6Z" fill="#000"/></g><g transform="translate(-45 137)"><path d="M401.2 30c17.6.1 34.2-.2 50.6.5 9.6.4 19.2 2.3 28.7 3.8 3.4.6 6.2 2.3 7.5 6.1 8.7 25.6 12.5 51.2 1.5 77.2-5.7 13.7-14.6 21-30.8 21.2-26.3.3-52.7 2.5-79.1 2.2-17.3-.1-24.9-5.4-29.4-21.8C347 107 339.6 96 340 82.6c.3-7.3-6.8-8-12.2-8.6-9-1-15.7 2.5-19.6 10.8-2 4.4-1.8 9.2-1.8 13.9 0 14.5-6.9 26.2-15.8 36.6-10.8 12.7-25.9 8.5-39.6 7.5-22.8-1.6-45.6-4.5-68.4-6.4-12.7-1-23-7.7-23-20.4-.3-27.4-15.2-38.4-39.6-45.7-26.6-8-51.9-20.6-77.8-31-9.7-4-21-5.1-27.4-17.2 12.3-2.3 23.3 2 33.4 7a702 702 0 0 0 97 37.1c5.3 1.7 8.3-.4 10.4-4.5 2-4.2 3.2-8.8 5.3-12.9 9.5-18 24.6-24.3 47.4-21.2 22.2 3 44.4 6.4 67 7.4 25 1.2 30.1 7 32.3 28.6 10.5-.8 21-5 32-1.6 3.4 1 5.3-4 6.4-7 8-22.1 26.6-25 46.4-25.3 2.6 0 5.1 0 8.8.2Z" fill="#000"/><path d="M193 63.5c-1-.3 1 0-.2.4-6.6 2 50.7 52.8 55.8 48.5 3-2.5-49.5-46.3-55.7-49ZM213.3 39.7c-.9-.3 1 0-.1.4-6.7 2 50.7 52.8 55.7 48.5 3-2.5-49.5-46.3-55.6-49ZM388.2 63.5c-.8-.3 1 0 0 .4-6.7 2 50.6 52.8 55.7 48.5 3-2.5-49.5-46.3-55.7-49ZM408.6 39.7c-.9-.3 1 0-.1.4-6.6 2 50.7 52.8 55.7 48.5 3-2.5-49.5-46.3-55.6-49Z" fill="#fff"/></g><g transform="translate(119 114)"><path d="M15 39C23.8 24.6 37 20.4 51.9 19c23.2-2.3 44 8.5 65.9 12.8 8 1.5 6.8 7.5 1.4 10.7-9.4 5.7-19.5 11-31.2 7-22.5-7.6-45.1-12-68.6-4.1-6.2 2-5-2-4.2-6.3ZM255 29c15-2.6 28.7-5.3 42.2 1.5 10.8 5.5 15 14 12.9 25.5-5 3.1-7.5-.4-10.6-2.5-11.6-7.9-23.9-10-37.3-4.6-9.3 3.7-19.2 2.4-29 2.4-4.7 0-8.4-1.8-8.7-7-.4-5.5.9-10.8 6.9-12 7.3-1.7 15-2.2 23.7-3.3Z" fill="#000"/></g></g></svg>