<svg xmlns="http://www.w3.org/2000/svg" viewBox="0 0 560 560" fill="none" shape-rendering="auto"><metadata xmlns:rdf="http://www.w3.org/1999/02/22-rdf-syntax-ns#" xmlns:xsi="http://www.w3.org/2001/XMLSchema-instance" xmlns:dc="http://purl.org/dc/elements/1.1/" xmlns:dcterms="http://purl.org/dc/terms/"><rdf:RDF><rdf:Description><dc:title>Notionists</dc:title><dc:creator>Zoish</dc:creator><dc:source xsi:type="dcterms:URI">https://heyzoish.gumroad.com/l/notionists</dc:source><dcterms:license xsi:type="dcterms:URI">https://creativecommons.org/publicdomain/zero/1.0/</dcterms:license><dc:rights>Remix of „Notionists” (https://heyzoish.gumroad.com/l/notionists) by „Zoish”, licensed under „CC0 1.0” (https://creativecommons.org/publicdomain/zero/1.0/)</dc:rights></rdf:Description></rdf:RDF></metadata><mask id="viewboxMask"><rect width="560" height="560" rx="0" ry="0" x="0" y="0" fill="#fff" /></mask><g mask="url(#viewboxMask)"><rect fill="#ffffff" width="560" height="560" x="0" y="0" /><g transform="translate(136 328)"><path d="M104.4 64.4c-14.7 4.9-15.7 8.4-8.6 22a59 59 0 0 0 17 18.4c29.7 23.5 71.7 13.1 91.8-12.8 6.2-8 6.6-19.1 1-27.6-5.4-8.1-13.8-3.4-20.8-.7-4.5 1.8-9.1 1.5-13.7 2-21.7 2.6-43-5-66.7-1.3Z" fill="#fff"/><path fill-rule="evenodd" clip-rule="evenodd" d="M83.3 85.7c10 24.5 30.3 35.6 54.6 43.5a87.6 87.6 0 0 0 75.5-28c9.3-9.9 11.5-33.9 4-44.3-6.7-9.2-17.8-10.9-34-4.4a48 48 0 0 1-24.8 3.3l-6.2-1c-16.8-2.2-33.5-4.6-50.7-1.5-17.4 3.2-25.1 15.9-18.4 32.4Zm12.5.6c-7.1-13.5-6-17 8.6-22 12.5-1.9 24.4-.7 36 .5 10.3 1 20.4 2.1 30.7 1 1.3-.3 2.7-.3 4.1-.4a30.3 30.3 0 0 0 11.9-2.6c6.5-2.7 13.7-5.7 18.6 1.6a23.7 23.7 0 0 1-1.1 27.6c-20.1 26-62.1 36.3-91.8 12.8a59 59 0 0 1-17-18.5Z" fill="#000"/></g><g transform="translate(246 125)"><path d="M76.7 82.4a205.6 205.6 0 0 0 3.3 80.2c4.7 22.4-15.2 54.4-46.8 49.7-11-1.6-17.5-8.1-21.3-17.8-1.7-4.3-1.5-8.8 3.3-11 4-1.7 7.4-.2 9.4 4 4.8 10.1 13.4 9.4 21.9 6.9 9.6-2.9 16.4-9.6 17.1-19.9.7-10.1.2-20.3-1.6-30.4a159.3 159.3 0 0 1 8.8-89.5c2.2-5.7 5.4-10.9 11.9-8.3 7.5 3 1.8 8.8.7 13.1-1.7 7.4-4.2 14.7-6.7 23Z" fill="#000"/></g><g transform="translate(-45 137)"><path d="M215.1 76.6c5-12 9-29.4 24.1-22.5 20.7 9.4 13.9 30.7 9.7 47.4-1.6 6.3-14.5 15.9-18.3 14.3-16.3-6.8-19.2-21.7-15.5-39.2ZM442 113.4c-8.6 7.5-17 7.6-22.2-1.5-9-16-8.6-32.8 3.3-47.2 2.5-3 13.8-3.6 16.3-1 14 15 14.6 31.8 2.6 49.7Z" fill="#000"/></g><g transform="translate(-45 137)"><path d="M401.2 30c17.6.1 34.2-.2 50.6.5 9.6.4 19.2 2.3 28.7 3.8 3.4.6 6.2 2.3 7.5 6.1 8.7 25.6 12.5 51.2 1.5 77.2-5.7 13.7-14.6 21-30.8 21.2-26.3.3-52.7 2.5-79.1 2.2-17.3-.1-24.9-5.4-29.4-21.8C347 107 339.6 96 340 82.6c.3-7.3-6.8-8-12.2-8.6-9-1-15.7 2.5-19.6 10.8-2 4.4-1.8 9.2-1.8 13.9 0 14.5-6.9 26.2-15.8 36.6-10.8 12.7-25.9 8.5-39.6 7.5-22.8-1.6-45.6-4.5-68.4-6.4-12.7-1-23-7.7-23-20.4-.3-27.4-15.2-38.4-39.6-45.7-26.6-8-51.9-20.6-77.8-31-9.7-4-21-5.1-27.4-17.2 12.3-2.3 23.3 2 33.4 7a702 702 0 0 0 97 37.1c5.3 1.7 8.3-.4 10.4-4.5 2-4.2 3.2-8.8 5.3-12.9 9.5-18 24.6-24.3 47.4-21.2 22.2 3 44.4 6.4 67 7.4 25 1.2 30.1 7 32.3 28.6 10.5-.8 21-5 32-1.6 3.4 1 5.3-4 6.4-7 8-22.1 26.6-25 46.4-25.3 2.6 0 5.1 0 8.8.2Z" fill="#000"/></g><g transform="translate(119 114)"><path d="M15 39C23.8 24.6 37 20.4 51.9 19c23.2-2.3 44 8.5 65.9 12.8 8 1.5 6.8 7.5 1.4 10.7-9.4 5.7-19.5 11-31.2 7-22.5-7.6-45.1-12-68.6-4.1-6.2 2-5-2-4.2-6.3ZM255 29c15-2.6 28.7-5.3 42.2 1.5 10.8 5.5 15 14 12.9 25.5-5 3.1-7.5-.4-10.6-2.5-11.6-7.9-23.9-10-37.3-4.6-9.3 3.7-19.2 2.4-29 2.4-4.7 0-8.4-1.8-8.7-7-.4-5.5.9-10.8 6.9-12 7.3-1.7 15-2.2 23.7-3.3Z" fill="#000"/></g></g></svg>