<svg xmlns="http://www.w3.org/2000/svg" viewBox="0 0 560 560" fill="none" shape-rendering="auto"><metadata xmlns:rdf="http://www.w3.org/1999/02/22-rdf-syntax-ns#" xmlns:xsi="http://www.w3.org/2001/XMLSchema-instance" xmlns:dc="http://purl.org/dc/elements/1.1/" xmlns:dcterms="http://purl.org/dc/terms/"><rdf:RDF><rdf:Description><dc:title>Notionists</dc:title><dc:creator>Zoish</dc:creator><dc:source xsi:type="dcterms:URI">https://heyzoish.gumroad.com/l/notionists</dc:source><dcterms:license xsi:type="dcterms:URI">https://creativecommons.org/publicdomain/zero/1.0/</dcterms:license><dc:rights>Remix of „Notionists” (https://heyzoish.gumroad.com/l/notionists) by „Zoish”, licensed under „CC0 1.0” (https://creativecommons.org/publicdomain/zero/1.0/)</dc:rights></rdf:Description></rdf:RDF></metadata><mask id="viewboxMask"><rect width="560" height="560" rx="0" ry="0" x="0" y="0" fill="#fff" /></mask><g mask="url(#viewboxMask)"><rect fill="#ffffff" width="560" height="560" x="0" y="0" /><g transform="translate(136 328)"><path d="M79.1 76.2c7.7-15.2-6-20-13-28.8-12 28.2-9.2 55.9 6.1 65 1.2-11.6-.3-23.8 7-36.2Z" fill="#fff"/><path fill-rule="evenodd" clip-rule="evenodd" d="M88.8 107v-9.7c1-2 1.5-4.2 1.9-6.2.7-3.4 1.3-6.5 4.3-8.8 4.5-.1 8.3 1.9 12.1 4 3.3 1.6 6.6 3.4 10.3 3.8h1c3 .5 6.3.9 7.8-3 1.6-4.1.2-7.7-3.8-9.5C103.6 69 91.2 53.7 78.9 38c-8.4-10.9-20.8-8.3-28.4 3.9-11.2 18-8.4 37.6-5.8 56l.1 1c2 13.6 9.3 27.7 24.9 33.3 11.4 4 18.4-.2 19-12.2l.1-13ZM72.2 53.5c6.5 5.8 12.6 11.3 7 22.7-5.5 9.4-6 18.7-6.4 27.7a152 152 0 0 1-.6 8.5c-15.3-9.1-18.2-36.8-6.1-65 1.8 2.2 4 4.2 6.1 6.1Z" fill="#000"/></g><g transform="translate(246 125)"><path d="M98.7 204.4c-29.8 25.1-65.6 24.4-87-.9-5-6-7.7-13-10.7-20-1.2-2.7-1.5-6.1 2.2-7.7 3.2-1.3 5.8 0 7.4 3 2.3 4 4.5 8.2 6.7 12.3 17 32.6 61.6 20 75.6.5 4-5.6 3-11.2-.4-16.7-8.4-13.8-17.7-27-24.8-41.5-7.9-15.9-15.4-32.4-11.5-51.2 1-4.9 1.8-9.9 6.6-12.4 3.5 2.1 3 5 2.8 7.3-3.2 31.8 13.6 56.2 30.8 79.9 14.5 19.9 15.8 28.6 2.3 47.4Z" fill="#000"/></g><g transform="translate(-45 137)"><path d="M409.2 75.7c13.1.3 25.4 1 37.7 2.5 3 .3 4.9 3.3 5 6.6 0 3.4-1.8 5.7-4.8 7-11.1 4.9-22 8.3-33.7.2-6.5-4.4-8.9-8.6-4.2-16.3ZM254.7 78.4c6.2 3.3 5.2 7 2.1 10.8-6.5 8-28.2 10-36.4 3.5-4.7-3.8-7.3-8.6-4.4-14.4 3-6 8.2-5 13-2.5 8 4 16.4 3 25.7 2.6Z" fill="#000"/></g><g transform="translate(-45 137)"></g><g transform="translate(119 114)"><path d="M47.1 22c23.6-.3 45.4-8.9 68.1-5.8 18.2 2.5 36.3 4 54.6.9 6.6-1.2 11.6 2 13 12 1.5-13.5 13.4-12.8 17.1-11.2 15.5 6.6 30.2 1 44.9-.5 20-2 48.5 10.6 58.3 28.4a52 52 0 0 0 4.4 6.1c2.8 3.7 7.3 7.2 3 12.1-4.1 4.6-9.2 1.7-13-.3C289 59 280.8 53.7 273 48a18 18 0 0 0-19-2.4 76.4 76.4 0 0 1-38.9 4.4c-14.4-1.5-29.5 3.4-43 2-21.5-2.5-43.2 3.4-64.2-3.5-8.4-2.8-16.7-6.9-25.1.2-.9.7-2.7 1.3-3.6.9-12.3-6-24.4 0-36.4.1-10.2 0-20.2 3-30.3 1.6-3.8-.5-9.2 2-11-3.6-2-6.2 4-8.2 7.5-10.3C17.4 32.2 26 26.7 36.7 26c3.2-.2 6.3-2.4 10.4-4Z" fill="#000"/></g></g></svg>