<svg xmlns="http://www.w3.org/2000/svg" viewBox="0 0 560 560" fill="none" shape-rendering="auto"><metadata xmlns:rdf="http://www.w3.org/1999/02/22-rdf-syntax-ns#" xmlns:xsi="http://www.w3.org/2001/XMLSchema-instance" xmlns:dc="http://purl.org/dc/elements/1.1/" xmlns:dcterms="http://purl.org/dc/terms/"><rdf:RDF><rdf:Description><dc:title>Notionists</dc:title><dc:creator>Zoish</dc:creator><dc:source xsi:type="dcterms:URI">https://heyzoish.gumroad.com/l/notionists</dc:source><dcterms:license xsi:type="dcterms:URI">https://creativecommons.org/publicdomain/zero/1.0/</dcterms:license><dc:rights>Remix of „Notionists” (https://heyzoish.gumroad.com/l/notionists) by „Zoish”, licensed under „CC0 1.0” (https://creativecommons.org/publicdomain/zero/1.0/)</dc:rights></rdf:Description></rdf:RDF></metadata><mask id="viewboxMask"><rect width="560" height="560" rx="0" ry="0" x="0" y="0" fill="#fff" /></mask><g mask="url(#viewboxMask)"><rect fill="#ffffff" width="560" height="560" x="0" y="0" /><g transform="translate(136 328)"><path d="M104.4 64.4c-14.7 4.9-15.7 8.4-8.6 22a59 59 0 0 0 17 18.4c29.7 23.5 71.7 13.1 91.8-12.8 6.2-8 6.6-19.1 1-27.6-5.4-8.1-13.8-3.4-20.8-.7-4.5 1.8-9.1 1.5-13.7 2-21.7 2.6-43-5-66.7-1.3Z" fill="#fff"/><path fill-rule="evenodd" clip-rule="evenodd" d="M83.3 85.7c10 24.5 30.3 35.6 54.6 43.5a87.6 87.6 0 0 0 75.5-28c9.3-9.9 11.5-33.9 4-44.3-6.7-9.2-17.8-10.9-34-4.4a48 48 0 0 1-24.8 3.3l-6.2-1c-16.8-2.2-33.5-4.6-50.7-1.5-17.4 3.2-25.1 15.9-18.4 32.4Zm12.5.6c-7.1-13.5-6-17 8.6-22 12.5-1.9 24.4-.7 36 .5 10.3 1 20.4 2.1 30.7 1 1.3-.3 2.7-.3 4.1-.4a30.3 30.3 0 0 0 11.9-2.6c6.5-2.7 13.7-5.7 18.6 1.6a23.7 23.7 0 0 1-1.1 27.6c-20.1 26-62.1 36.3-91.8 12.8a59 59 0 0 1-17-18.5Z" fill="#000"/></g><g transform="translate(246 125)"><path d="M7.4 185c5.4-8.7 22.6-12.2 32.1-7.3 6.6 3.4 13 7.6 20 1.7 6.5-5.6 4.6-12.2 1.5-18.7-1.6-3.2-.8-5.7 2.2-7.5 3-1.9 5.5-1.1 8.2.8a20.1 20.1 0 0 1 8 21.5c-1.6 7.3-3.8 16-12.7 19-4 1.4-8.8 3.5-12.3 2.4-15.4-4.7-33.8 3.4-47-12Z" fill="#000"/></g><g transform="translate(-45 137)"><path d="M409.2 75.7c13.1.3 25.4 1 37.7 2.5 3 .3 4.9 3.3 5 6.6 0 3.4-1.8 5.7-4.8 7-11.1 4.9-22 8.3-33.7.2-6.5-4.4-8.9-8.6-4.2-16.3ZM254.7 78.4c6.2 3.3 5.2 7 2.1 10.8-6.5 8-28.2 10-36.4 3.5-4.7-3.8-7.3-8.6-4.4-14.4 3-6 8.2-5 13-2.5 8 4 16.4 3 25.7 2.6Z" fill="#000"/></g><g transform="translate(-45 137)"></g><g transform="translate(119 114)"><path d="M98.9 41.8c6.6-.8 12-1.8 17.5-2.3 4.7-.5 8.2 1.8 10.3 6 1.9 4-1.5 6-3.4 8.8-14.9 21.7-37 16.6-56.8 13-14-2.6-30.4-5.1-37.1-22.7-3.5-9-2.8-12 7.1-13 5.7-.5 11 1.3 16.2 3 14.8 5.1 30.5 7.5 46.2 7.2ZM229.4 42.2c5.6-4 10.8-3 16.4-1.8 17.1 3.5 34.3 5.8 50.2-4.7 4.3-2.9 9.2-3.5 12.7.7 3.2 3.9.3 7.8-1.9 11.6-7 12.4-18.9 16.4-31.4 19.6-10 2.6-20.4 2-30.5 1.4-15.9-1-21.8-11-15.5-26.8Z" fill="#000"/></g></g></svg>