<svg xmlns="http://www.w3.org/2000/svg" viewBox="0 0 560 560" fill="none" shape-rendering="auto"><metadata xmlns:rdf="http://www.w3.org/1999/02/22-rdf-syntax-ns#" xmlns:xsi="http://www.w3.org/2001/XMLSchema-instance" xmlns:dc="http://purl.org/dc/elements/1.1/" xmlns:dcterms="http://purl.org/dc/terms/"><rdf:RDF><rdf:Description><dc:title>Notionists</dc:title><dc:creator>Zoish</dc:creator><dc:source xsi:type="dcterms:URI">https://heyzoish.gumroad.com/l/notionists</dc:source><dcterms:license xsi:type="dcterms:URI">https://creativecommons.org/publicdomain/zero/1.0/</dcterms:license><dc:rights>Remix of „Notionists” (https://heyzoish.gumroad.com/l/notionists) by „Zoish”, licensed under „CC0 1.0” (https://creativecommons.org/publicdomain/zero/1.0/)</dc:rights></rdf:Description></rdf:RDF></metadata><mask id="viewboxMask"><rect width="560" height="560" rx="0" ry="0" x="0" y="0" fill="#fff" /></mask><g mask="url(#viewboxMask)"><rect fill="#ffffff" width="560" height="560" x="0" y="0" /><g transform="translate(136 328)"><path d="M73 47c3.7-9.7 10.6-11 13-2.3 8.5 28.2 30.5 40 55.4 49-5.2 10.2-15.5 11.2-28 5.3C91.3 88.5 80.6 69.5 73 47Z" fill="#000"/></g><g transform="translate(246 125)"><path d="M109.6 185c-9.9 23.2-31.7 22.6-50.5 27.2-5.4 1.5-11.1 1-16.2-1.5.1-8.5 5.5-10.3 12-10.1 10.5.2 19.9-4 29.3-7.7 8.5-3.3 12-8.2 6.4-17.6-9-15.2-17.7-30.6-21.7-48.3a87.5 87.5 0 0 1 1.8-46.4c1.3-4 1.9-9.1 8-7.3 5 1.5 4.3 5.9 3.3 9.6-9.2 33 5 60 22.2 86.1 3 4.8 6.1 9.1 5.4 16Z" fill="#000"/></g><g transform="translate(-45 137)"><path d="M409.2 75.7c13.1.3 25.4 1 37.7 2.5 3 .3 4.9 3.3 5 6.6 0 3.4-1.8 5.7-4.8 7-11.1 4.9-22 8.3-33.7.2-6.5-4.4-8.9-8.6-4.2-16.3ZM254.7 78.4c6.2 3.3 5.2 7 2.1 10.8-6.5 8-28.2 10-36.4 3.5-4.7-3.8-7.3-8.6-4.4-14.4 3-6 8.2-5 13-2.5 8 4 16.4 3 25.7 2.6Z" fill="#000"/></g><g transform="translate(-45 137)"></g><g transform="translate(119 114)"><path d="M30.3 32.1C58 10 89.8 13.1 121 14.1c5.7 0 12.2 1.3 14.3 8.3 2.1 7.7-4.6 9.9-8.8 13.8a44.7 44.7 0 0 1-52.2 8.6 37.9 37.9 0 0 0-31.9 1.6c-2 1-3.8 1.9-5.8 2.6-6.3 2.5-14.3 6-18.6-.4-4.4-6.7 5.6-9 8.3-13.7.6-1 2-1.6 3.9-2.8ZM294.4 23.8c7.7 4.3 14.5 10 20 17 2.5 3 5 6.3 3 10.2-2.4 4.3-6.7 2.7-10.4 2.2-12.5-1.5-23.7-9.2-37-7.2-5 .8-9.9.7-15 2.5-13 4.7-31-6.4-33-19.8-1-5.4 1-8.5 6.8-10 22.2-5.7 44-9 65.6 5.1Z" fill="#000"/></g></g></svg>