<svg xmlns="http://www.w3.org/2000/svg" viewBox="0 0 560 560" fill="none" shape-rendering="auto"><metadata xmlns:rdf="http://www.w3.org/1999/02/22-rdf-syntax-ns#" xmlns:xsi="http://www.w3.org/2001/XMLSchema-instance" xmlns:dc="http://purl.org/dc/elements/1.1/" xmlns:dcterms="http://purl.org/dc/terms/"><rdf:RDF><rdf:Description><dc:title>Notionists</dc:title><dc:creator>Zoish</dc:creator><dc:source xsi:type="dcterms:URI">https://heyzoish.gumroad.com/l/notionists</dc:source><dcterms:license xsi:type="dcterms:URI">https://creativecommons.org/publicdomain/zero/1.0/</dcterms:license><dc:rights>Remix of „Notionists” (https://heyzoish.gumroad.com/l/notionists) by „Zoish”, licensed under „CC0 1.0” (https://creativecommons.org/publicdomain/zero/1.0/)</dc:rights></rdf:Description></rdf:RDF></metadata><mask id="viewboxMask"><rect width="560" height="560" rx="0" ry="0" x="0" y="0" fill="#fff" /></mask><g mask="url(#viewboxMask)"><rect fill="#ffffff" width="560" height="560" x="0" y="0" /><g transform="translate(136 328)"><path d="M184 99.8a43 43 0 0 0 26.7-6.4c8.8-5.7 9.9-16.8 1.5-23.1-9.4-7.3-20-7-30-1.9-20.1 10.2-40 18.9-61.2 2.4-5-3.8-11.1-6.1-16.5-9.5a31.1 31.1 0 0 0-27-2.5C66.6 62.2 58 75.4 61.1 84.6c4 11.5 14.5 10.5 23.6 9.3 10.1-1.6 20.4-.7 30 2.7 22 7.7 44.3 7.4 69.1 3.2Z" fill="#fff"/><path fill-rule="evenodd" clip-rule="evenodd" d="m190.4 114.2 16-1.3c22.4-.3 37.1-30 22-49.3-14.2-18.4-37.7-21.3-56.8-5.5-11.4 9.5-26.3 11.5-34.6 2.8a67.3 67.3 0 0 0-33-18.1C74.9 35.3 50.6 49.4 47.3 82c-2 19.1 18.8 30 38.6 28.1l4.8-.5c5.3-.7 10.6-1.4 15.5.2 27.7 9 55.7 6.7 84.3 4.3Zm20.3-20.8a43 43 0 0 1-26.8 6.4c-24.8 4.2-47 4.5-69-3.2-9.7-3.4-20-4.3-30-2.7-9.2 1.2-19.7 2.2-23.7-9.3-3.2-9.2 5.5-22.4 16.2-25.8 9.3-3 18.4-2.8 27 2.5L111 65c3.5 1.8 7 3.6 10 6 21.2 16.4 41 7.7 61.2-2.5 10-5 20.6-5.4 30 1.9 8.4 6.3 7.3 17.4-1.5 23Z" fill="#000"/></g><g transform="translate(246 125)"><path d="M65.7 103.7c-.6 21.6 16.4 30.6 27.5 43.5 8.5 10 18.5 18.7 13.7 34.4a39.6 39.6 0 0 1-40.8 27.6 104 104 0 0 1-36.4-11A22.2 22.2 0 0 1 19 187.6c-1.7-3.8-5.4-7.8-.5-11.4 4.6-3.4 7 0 10 3.7 11 13.3 26 16.4 42.6 15.7A23.2 23.2 0 0 0 93 180.8c3.6-8.3-1.6-15.2-6.3-20.8-9.3-11-20-20.5-27.4-33.2-8.3-14.2-7.6-44.1 2.2-57.4 1.9-2.5 3.6-5 7.2-3.1 3.8 2 3.4 5.5 2.2 9a69.3 69.3 0 0 0-5.2 28.4Z" fill="#000"/></g><g transform="translate(-45 137)"><path d="M215.1 76.6c5-12 9-29.4 24.1-22.5 20.7 9.4 13.9 30.7 9.7 47.4-1.6 6.3-14.5 15.9-18.3 14.3-16.3-6.8-19.2-21.7-15.5-39.2ZM442 113.4c-8.6 7.5-17 7.6-22.2-1.5-9-16-8.6-32.8 3.3-47.2 2.5-3 13.8-3.6 16.3-1 14 15 14.6 31.8 2.6 49.7Z" fill="#000"/></g><g transform="translate(-45 137)"></g><g transform="translate(119 114)"><path d="M131.2 43.2c-5.6 16.8-6.6 15.4-23 11.6-26.2-6-52.7-19.2-80.3-4.3-2 1.1-5 1-7.6.8-3.6-.2-8.2 1.3-10.1-3.3-2.1-5 1.5-8.3 5.3-10.3C35.2 27.7 53 13.4 77.9 16c12.8 1.3 26-2.8 39.3-2.4 18.8.7 22.4 5.7 16 23.9l-2 5.8ZM298.7 21.8c9.6 6.6 12.5 16.8 18.3 25a7 7 0 0 1-.6 9.4c-2.4 2.7-5.4 2.8-8.1 1.2-19.1-11-38.9-6.4-58-1.2-10.2 2.7-14.6-.8-17.2-9.2-1.7-5.7-2.9-11.5-3.6-17.4-1.3-9.8 6.9-11.9 13-12.2 18.5-.9 37.4-4.5 56.2 4.4Z" fill="#000"/></g></g></svg>