<svg xmlns="http://www.w3.org/2000/svg" viewBox="0 0 560 560" fill="none" shape-rendering="auto"><metadata xmlns:rdf="http://www.w3.org/1999/02/22-rdf-syntax-ns#" xmlns:xsi="http://www.w3.org/2001/XMLSchema-instance" xmlns:dc="http://purl.org/dc/elements/1.1/" xmlns:dcterms="http://purl.org/dc/terms/"><rdf:RDF><rdf:Description><dc:title>Notionists</dc:title><dc:creator>Zoish</dc:creator><dc:source xsi:type="dcterms:URI">https://heyzoish.gumroad.com/l/notionists</dc:source><dcterms:license xsi:type="dcterms:URI">https://creativecommons.org/publicdomain/zero/1.0/</dcterms:license><dc:rights>Remix of „Notionists” (https://heyzoish.gumroad.com/l/notionists) by „Zoish”, licensed under „CC0 1.0” (https://creativecommons.org/publicdomain/zero/1.0/)</dc:rights></rdf:Description></rdf:RDF></metadata><mask id="viewboxMask"><rect width="560" height="560" rx="0" ry="0" x="0" y="0" fill="#fff" /></mask><g mask="url(#viewboxMask)"><rect fill="#ffffff" width="560" height="560" x="0" y="0" /><g transform="translate(136 328)"><path d="M153.6 87c7.4-.8 15.8 2 22.6-5.6-18-2.4-34.8-5.5-54.2.3 10.7 7.3 20 7.4 31.6 5.4Z" fill="#fff"/><path fill-rule="evenodd" clip-rule="evenodd" d="M148.3 98.9c3.5-.2 7-.5 10.5-.5l6.3-1.7c3.8-1.2 7.3-2.2 10.8-2.5 8.7-.7 15.7-3.7 15.9-13 .1-8.8-6.9-13-14.9-15-19-5-38-2.5-56.7 1.6-6.2 1.4-12 5.7-12.3 13.2-.3 7.4 5 11 11 14.1 9.3 5 19.2 4.4 29.4 3.8Zm11.3-12c-2 0-4 0-6 .2-11.7 2-20.9 1.9-31.6-5.4 17.9-5.4 33.6-3.2 50-.9l4.2.6c-5 5.6-11 5.6-16.6 5.5Z" fill="#000"/></g><g transform="translate(246 125)"><path d="M7.4 185c5.4-8.7 22.6-12.2 32.1-7.3 6.6 3.4 13 7.6 20 1.7 6.5-5.6 4.6-12.2 1.5-18.7-1.6-3.2-.8-5.7 2.2-7.5 3-1.9 5.5-1.1 8.2.8a20.1 20.1 0 0 1 8 21.5c-1.6 7.3-3.8 16-12.7 19-4 1.4-8.8 3.5-12.3 2.4-15.4-4.7-33.8 3.4-47-12Z" fill="#000"/></g><g transform="translate(-45 137)"><path d="M419.6 111c-4.2-9.5-9.9-15.2-19.8-15.7-6-.3-7-5.1-8.9-9.8 2-1.5 3.5-3.7 5.3-3.8 21.1-1.7 42.4-1.8 63.5-.1 6 .4 9.3 8 3.2 10.4-10 4-12.5 13.2-18.5 19.8-8.2 9-15.2 9.1-24.8-.8ZM228.6 81.4c12.2.7 23.1 1 34 2 3.6.3 8 1.8 8 6.7 0 5.6-4.6 5.2-8.3 5.1-6.3 0-9.7 2.7-12.5 8.6-3.4 7.4-6.9 15.3-18 14.8-10.5-.5-15.1-7.2-18.1-15.2-2.2-5.7-5-8.4-11-8.2-3.4.1-7.1-.2-7.5-4.9-.4-5 3-6 7-7.2a67.9 67.9 0 0 1 26.4-1.7Z" fill="#000"/></g><g transform="translate(-45 137)"></g><g transform="translate(119 114)"><path d="M131.2 43.2c-5.6 16.8-6.6 15.4-23 11.6-26.2-6-52.7-19.2-80.3-4.3-2 1.1-5 1-7.6.8-3.6-.2-8.2 1.3-10.1-3.3-2.1-5 1.5-8.3 5.3-10.3C35.2 27.7 53 13.4 77.9 16c12.8 1.3 26-2.8 39.3-2.4 18.8.7 22.4 5.7 16 23.9l-2 5.8ZM298.7 21.8c9.6 6.6 12.5 16.8 18.3 25a7 7 0 0 1-.6 9.4c-2.4 2.7-5.4 2.8-8.1 1.2-19.1-11-38.9-6.4-58-1.2-10.2 2.7-14.6-.8-17.2-9.2-1.7-5.7-2.9-11.5-3.6-17.4-1.3-9.8 6.9-11.9 13-12.2 18.5-.9 37.4-4.5 56.2 4.4Z" fill="#000"/></g></g></svg>