<svg xmlns="http://www.w3.org/2000/svg" viewBox="0 0 560 560" fill="none" shape-rendering="auto"><metadata xmlns:rdf="http://www.w3.org/1999/02/22-rdf-syntax-ns#" xmlns:xsi="http://www.w3.org/2001/XMLSchema-instance" xmlns:dc="http://purl.org/dc/elements/1.1/" xmlns:dcterms="http://purl.org/dc/terms/"><rdf:RDF><rdf:Description><dc:title>Notionists</dc:title><dc:creator>Zoish</dc:creator><dc:source xsi:type="dcterms:URI">https://heyzoish.gumroad.com/l/notionists</dc:source><dcterms:license xsi:type="dcterms:URI">https://creativecommons.org/publicdomain/zero/1.0/</dcterms:license><dc:rights>Remix of „Notionists” (https://heyzoish.gumroad.com/l/notionists) by „Zoish”, licensed under „CC0 1.0” (https://creativecommons.org/publicdomain/zero/1.0/)</dc:rights></rdf:Description></rdf:RDF></metadata><mask id="viewboxMask"><rect width="560" height="560" rx="0" ry="0" x="0" y="0" fill="#fff" /></mask><g mask="url(#viewboxMask)"><rect fill="#ffffff" width="560" height="560" x="0" y="0" /><g transform="translate(136 328)"><path d="M155.6 137.2c-8.8 0-16.5.5-24-.4-5.1-.6-10.4-3.4-9-10 1.4-5.5 6-6 11.3-5.2 6.6 1 13.4 1.2 20.2 1.5 4 .2 8 .8 9.2 5.2 1.5 5.3-2 7.7-7.7 8.9Z" fill="#000"/><path d="M179.7 92.3c8.6 7.2 17 7.6 26.6 1.3 10-6.6 12.9-15.7 13.3-28A685.6 685.6 0 0 1 67.5 55.3c5 6.8 12.4 3.6 13.8 11.8 3.5 19.1 12.4 23.6 30.6 17.1 5.6-2 9.2-2 12.7 3.8 11 18.5 24.8 21.2 42.1 8.8 3.5-2.4 6.4-5.7 13-4.6Z" fill="#fff"/><path fill-rule="evenodd" clip-rule="evenodd" d="M206.9 53.5c-3.8.3-7.6.6-11.5.1-10.4 1-20.2-.1-29.8-1.3-5.3-.6-10.6-1.2-15.9-1.4-27-1.3-54.1-3.6-81.2-6l-1.9-.2c-5.2-.6-10.5-1.1-13 3.7-3 6.1 0 12.6 5.2 17a72 72 0 0 1 16.6 20c7 12.3 18.7 17 32.4 14.7 6-1 9.7.7 13.5 4.4a38.7 38.7 0 0 0 52.9 3.2c3.8-3 7.3-4.6 11.4-2.3 13.2 7.4 24.1.6 34.4-6 15.1-9.5 18.3-32.3 6.2-42.3-5.7-4.7-12.3-4.2-19.3-3.6Zm-.6 40.1c-9.7 6.3-18 5.9-26.6-1.3-5.6-1-8.6 1.3-11.5 3.5l-1.5 1.1c-17.3 12.4-31 9.7-42-8.8-3.6-5.8-7.2-5.8-12.8-3.8-18.2 6.5-27.1 2-30.6-17.1-.8-4.6-3.4-5.6-6.5-6.8-2.4-1-5.1-2-7.3-5 51.6 9.6 101.2 12 152 10.1-.3 12.4-3.1 21.5-13.2 28.1Z" fill="#000"/></g><g transform="translate(246 125)"><path d="M82 57.5c4.9-6 9.2-11.2 13.8-16.2 2.5-2.8 6-4 9-1.2 3.5 3 1.3 5.8-.8 8.8C96 60.4 86 70.1 80.5 83.4c-4 9.8-5.3 19-2.3 29.6 5.8 19.9 10.5 40 15.1 60.2 3.3 14.4-2.3 23.8-16 29-4 1.6-7.9 3.2-11.7 5-16.4 8-30.4 1.5-44.4-8.6 3.8-8 9.6-10.7 18.5-5.7 8.7 5 32.7.6 39.6-6.8 4.5-5 1.4-9.7 0-14.4-5.8-19.7-14-38.7-15.6-59.8a68.6 68.6 0 0 1 18.4-54.4Z" fill="#000"/></g><g transform="translate(-45 137)"><path d="M419.6 111c-4.2-9.5-9.9-15.2-19.8-15.7-6-.3-7-5.1-8.9-9.8 2-1.5 3.5-3.7 5.3-3.8 21.1-1.7 42.4-1.8 63.5-.1 6 .4 9.3 8 3.2 10.4-10 4-12.5 13.2-18.5 19.8-8.2 9-15.2 9.1-24.8-.8ZM228.6 81.4c12.2.7 23.1 1 34 2 3.6.3 8 1.8 8 6.7 0 5.6-4.6 5.2-8.3 5.1-6.3 0-9.7 2.7-12.5 8.6-3.4 7.4-6.9 15.3-18 14.8-10.5-.5-15.1-7.2-18.1-15.2-2.2-5.7-5-8.4-11-8.2-3.4.1-7.1-.2-7.5-4.9-.4-5 3-6 7-7.2a67.9 67.9 0 0 1 26.4-1.7Z" fill="#000"/></g><g transform="translate(-45 137)"><path fill-rule="evenodd" clip-rule="evenodd" d="M450.2 34.8c4.7 1 9.2 1 13.6 1 4.8 0 9.4 0 14 1.2 13 3.5 17.8 12.3 20.8 24.2 5 20.2 6.2 40 .1 60.3-3.4 11.5-7 18.4-22 18.3-27.5-.1-55.1.5-82.7 1.3-34.7 1-42.8-13.4-47.7-46.1-2.3-15.6-7.1-21.7-21.3-21.3-11.5.4-18.6 8.3-18.4 22.8a59 59 0 0 1-15.2 38.3c-9 11.3-21.6 10-33.7 8.7l-7-.7c-12.8-.9-25.6-2.2-38.5-3.5l-29.9-2.9c-12.5-1-21.8-8-23-20.6-.4-4.6-1.6-9-2.7-13.3-1-3.8-2-7.7-2.6-11.6-.7-5.4-3.3-8.5-8-10.3L31 36a49.2 49.2 0 0 1-16.2-12.3l-1.3-1.3c13.7-2.7 24.6 1.8 34.7 6.7 31.3 15.2 64 26.6 97 37.1 7 2.2 9.4-2 11.7-6.7 1-1.9 1.6-3.8 2.3-5.7.9-2.5 1.8-5 3-7.2 10.4-17.4 24-22 47.3-18.8l14.4 2c15.7 2.5 31.5 4.9 47.6 5 24.3 0 30.2 4.6 37.5 28.3l2.7-.4c10.4-1.9 21-3.8 31.7 1.3 4.7 2.2 6.2-2.5 7.3-6.4 5.1-18.5 11-23 29.3-23l70.2.2Zm-260.4 2.5c-5.7 0-10.8.7-14 6.5a85.6 85.6 0 0 0-7 72.5c1.5 4.2 3.5 7.5 8.8 7.9 30.4 2.4 61 5 91.4 7.7 6.5.6 10.8-2 15.3-6.9 11-11.7 11.6-26.2 12-40.3l.4-6.7c1.5-26.3-.8-28.1-29.1-32.6-17.9-2.9-36-4.4-54.7-6l-23-2.1Zm171.7 78c-3.9-9.3-7.8-18.8-6-29.4 1.2-4.3 2-8.5 2.8-12.6 1.5-7.4 2.8-14.4 6.5-20.8 3.3-5.8 7.5-8.3 14.3-8.5 31.5-.9 62.8 1.6 94.2 4.3 6.5.6 10.7 3.5 12.2 9.3 5.5 20.6 9.7 41.3 2.1 62.6-2.1 6-4.6 9.2-11.4 9.2l-8.8-.1c-30.2-.3-60.3-.6-90.5 1.2-7.7.5-11.9-6.5-14.4-12.7l-1-2.4Z" fill="#000"/></g><g transform="translate(119 114)"><path d="M81.4 35C60 29.6 52 33.2 40 52.6c-2.4 4-3.4 11.4-10.6 7-5.6-3.4-5.3-8.8-2.6-14.6a51.4 51.4 0 0 1 38-30.7 33.1 33.1 0 0 1 37.5 26.4c.9 5.3.1 10-4.8 13.6-11.2-1.3-8-14.2-16-19.1ZM246.2 32.8c14-6.2 27-12.4 41.2-1.9 5.1 3.7 9 8.8 11.3 14.7 2 5 2.3 10.7-2.7 13.8-5.7 3.5-8.1-2.1-11-5.6-10.4-12.8-18.4-13.7-32.4-4.6-4 2.6-6.8 8-13.5 7-5.7-9.6-.1-16.3 7-23.4Z" fill="#000"/></g></g></svg>