<svg xmlns="http://www.w3.org/2000/svg" viewBox="0 0 560 560" fill="none" shape-rendering="auto"><metadata xmlns:rdf="http://www.w3.org/1999/02/22-rdf-syntax-ns#" xmlns:xsi="http://www.w3.org/2001/XMLSchema-instance" xmlns:dc="http://purl.org/dc/elements/1.1/" xmlns:dcterms="http://purl.org/dc/terms/"><rdf:RDF><rdf:Description><dc:title>Notionists</dc:title><dc:creator>Zoish</dc:creator><dc:source xsi:type="dcterms:URI">https://heyzoish.gumroad.com/l/notionists</dc:source><dcterms:license xsi:type="dcterms:URI">https://creativecommons.org/publicdomain/zero/1.0/</dcterms:license><dc:rights>Remix of „Notionists” (https://heyzoish.gumroad.com/l/notionists) by „Zoish”, licensed under „CC0 1.0” (https://creativecommons.org/publicdomain/zero/1.0/)</dc:rights></rdf:Description></rdf:RDF></metadata><mask id="viewboxMask"><rect width="560" height="560" rx="0" ry="0" x="0" y="0" fill="#fff" /></mask><g mask="url(#viewboxMask)"><rect fill="#ffffff" width="560" height="560" x="0" y="0" /><g transform="translate(136 328)"><g fill-rule="evenodd" clip-rule="evenodd"><path d="m124.6 96.7 2.8 10.8c3.4 2.5 5 5.2 1.8 5.3-8 .4-28.1-18-31-26.6-2.4-6.6-2-12.3 5.6-13.1 2.5-.3 4-1.9 5.3-3.5 1.5-1.7 3-3.4 5.9-3-10.2 20.5-9.4 23 9.6 30Zm54.9-5.4c-4.2 20.3-13.8 27.6-35.3 27h-3c-2.8 0-4.7.2-6-2l.8-2c14.3 3.1 19.4-6.3 24.4-15.6l2.5-4.4a44 44 0 0 0 2-3.9c.7-1.7 1.5-3.4 2.6-5 2-2.8 4.7-5.2 8.5-3.8 4.6 1.8 4.3 6 3.5 9.7ZM135 95c1.3 8.7 6.2 6.1 10.2 2.7 2.6-2.3 4.5-5.4 6.4-8.4l1-1.6c1.7-2.8 3.7-6.6 0-8.9-3.5-2.3-6.8-1-9 3.4-1.4 3-3.6 6-6.2 9.4l-2.4 3.4Zm-4.7-23.1 3-2.8c3.5 5.4.9 9.5-2.2 14.3-1 1.4-1.8 2.8-2.6 4.3-6.8-8-2.4-12 1.8-15.8Z" fill="#fff"/><path d="M177.3 67.5c15.6 10.2 18 24 6.8 37.8a45 45 0 0 0-4 6 37 37 0 0 1-5.2 7.5 43.4 43.4 0 0 1-52 5.6l-4.7-3A83.8 83.8 0 0 1 93.1 100C81 83 82 78.4 96.7 63c4-4 8.5-6.9 13-9.8 2.8-1.7 5.6-3.5 8.2-5.5 10.4-8 25 2.1 27.9 18.1 10.2.5 20.4 1 31.5 1.7Zm-33.1 50.7c21.5.7 31-6.6 35.3-27 .8-3.7 1.2-7.8-3.5-9.6-3.8-1.4-6.6 1-8.5 3.8-1 1.6-1.9 3.3-2.7 5-.6 1.3-1.2 2.7-2 4l-2.4 4.3c-5 9.3-10 18.7-24.4 15.5l-.8 2.1c1.3 2.2 3.2 2 6 2h3Zm-19.6-21.5 2.8 10.8c3.4 2.5 5 5.2 1.8 5.3-8 .4-28.1-18-31-26.6-2.3-6.6-2-12.3 5.6-13.1 2.5-.3 4-1.9 5.3-3.5 1.6-1.7 3-3.4 5.9-3-10.2 20.5-9.4 23 9.6 30Zm10.5-1.7c1.3 8.7 6.2 6.1 10.2 2.7 2.6-2.3 4.5-5.4 6.4-8.4l1-1.6c1.7-2.8 3.7-6.6 0-8.9-3.5-2.3-6.8-1-9 3.4-1.4 3-3.6 6-6.2 9.4l-2.4 3.4Zm-4.7-23.1 3-2.8c3.5 5.4.9 9.5-2.2 14.3a65 65 0 0 0-2.6 4.3c-6.8-8-2.4-12 1.8-15.8Z" fill="#000"/></g></g><g transform="translate(246 125)"><path d="M10.2 187.7c5-8.1 10.6-4.3 16.6-2.2 14.4 5 28.7 11 44 1.7 7.5-4.5 15.5-8.2 15.6-18.1 0-7.2-15-19.6-24.1-20.4-6.8-.6-13.7-.3-20.5-.5-4 0-8.2-.4-9.1-5-.9-4.5 2.5-7 6.2-8.7 21.8-10.6 68.2 8.4 62.8 40.3-1.6 9.3-14.4 25.4-23.7 27.4-17.3 3.7-34.7 4-51.9-.2-7.2-1.8-13-6-15.9-14.3Z" fill="#000"/></g><g transform="translate(-45 137)"><path d="M419.6 111c-4.2-9.5-9.9-15.2-19.8-15.7-6-.3-7-5.1-8.9-9.8 2-1.5 3.5-3.7 5.3-3.8 21.1-1.7 42.4-1.8 63.5-.1 6 .4 9.3 8 3.2 10.4-10 4-12.5 13.2-18.5 19.8-8.2 9-15.2 9.1-24.8-.8ZM228.6 81.4c12.2.7 23.1 1 34 2 3.6.3 8 1.8 8 6.7 0 5.6-4.6 5.2-8.3 5.1-6.3 0-9.7 2.7-12.5 8.6-3.4 7.4-6.9 15.3-18 14.8-10.5-.5-15.1-7.2-18.1-15.2-2.2-5.7-5-8.4-11-8.2-3.4.1-7.1-.2-7.5-4.9-.4-5 3-6 7-7.2a67.9 67.9 0 0 1 26.4-1.7Z" fill="#000"/></g><g transform="translate(-45 137)"></g><g transform="translate(119 114)"><path d="M57.5 41.8C51.3 41.3 46 41 41 41c-5.7-.2-8.5-3.4-9-8.8-.5-5.3 3-7 7.5-8.5 8.6-3 17.1-.5 25.2.7 15.4 2.1 31.5-.6 46.4 6.3 5 2.3 8.3 4.7 6.4 10.3-1.8 5.2-6.1 5.2-10.6 4.1-16-3.7-32.4.9-49.4-3.3ZM251.8 32c17.2.9 33.1-5 49.3-1.2 4 1 9 .7 8.8 7 0 6.2-4.7 7.4-9.5 8-19 2.2-38 4-56.9 6.4-5.7.7-11 .1-12.6-5.6-1.7-5.7 4-7.8 8-10 3.5-2.1 7.8-3.1 12.9-4.7Z" fill="#000"/></g></g></svg>