<svg xmlns="http://www.w3.org/2000/svg" viewBox="0 0 560 560" fill="none" shape-rendering="auto"><metadata xmlns:rdf="http://www.w3.org/1999/02/22-rdf-syntax-ns#" xmlns:xsi="http://www.w3.org/2001/XMLSchema-instance" xmlns:dc="http://purl.org/dc/elements/1.1/" xmlns:dcterms="http://purl.org/dc/terms/"><rdf:RDF><rdf:Description><dc:title>Notionists</dc:title><dc:creator>Zoish</dc:creator><dc:source xsi:type="dcterms:URI">https://heyzoish.gumroad.com/l/notionists</dc:source><dcterms:license xsi:type="dcterms:URI">https://creativecommons.org/publicdomain/zero/1.0/</dcterms:license><dc:rights>Remix of „Notionists” (https://heyzoish.gumroad.com/l/notionists) by „Zoish”, licensed under „CC0 1.0” (https://creativecommons.org/publicdomain/zero/1.0/)</dc:rights></rdf:Description></rdf:RDF></metadata><mask id="viewboxMask"><rect width="560" height="560" rx="0" ry="0" x="0" y="0" fill="#fff" /></mask><g mask="url(#viewboxMask)"><rect fill="#ffffff" width="560" height="560" x="0" y="0" /><g transform="translate(136 328)"><path d="M130.4 84.6a46.5 46.5 0 0 1 28.5-7.8c6.2.5 10.7 3.5 11 9.9.3 7.4-5.7 7-10.8 7.1h-24c-5.5-.3-7.8-3-4.7-9.2Z" fill="#000"/></g><g transform="translate(246 125)"><path d="M53.4 96.7c.2-5.7.5-10.4.3-15-.2-7.3 3-10.2 10.5-8.5 2.8 10.7 2 22 1.1 32.7-1.8 19.6 7.7 32 23 41.6 19.6 12.3 25.6 32.7 13.4 48.6-19.8 25.4-56.3 21.8-75-4.1-2.2-3.2-1.4-7.5 0-11.2.9-2.3 1.9-5 5-5 3.8-.2 5.2 2.2 5.6 5.5 1.8 12.3 10.8 16.9 21.2 18.8 13 2.4 24.5-.5 32.3-12.4 7-10.7 5-20.9-6-26.9-25.4-13.7-35.9-34.6-31.4-64Z" fill="#000"/></g><g transform="translate(-45 137)"><path d="M419.6 111c-4.2-9.5-9.9-15.2-19.8-15.7-6-.3-7-5.1-8.9-9.8 2-1.5 3.5-3.7 5.3-3.8 21.1-1.7 42.4-1.8 63.5-.1 6 .4 9.3 8 3.2 10.4-10 4-12.5 13.2-18.5 19.8-8.2 9-15.2 9.1-24.8-.8ZM228.6 81.4c12.2.7 23.1 1 34 2 3.6.3 8 1.8 8 6.7 0 5.6-4.6 5.2-8.3 5.1-6.3 0-9.7 2.7-12.5 8.6-3.4 7.4-6.9 15.3-18 14.8-10.5-.5-15.1-7.2-18.1-15.2-2.2-5.7-5-8.4-11-8.2-3.4.1-7.1-.2-7.5-4.9-.4-5 3-6 7-7.2a67.9 67.9 0 0 1 26.4-1.7Z" fill="#000"/></g><g transform="translate(-45 137)"></g><g transform="translate(119 114)"><path d="M57.5 41.8C51.3 41.3 46 41 41 41c-5.7-.2-8.5-3.4-9-8.8-.5-5.3 3-7 7.5-8.5 8.6-3 17.1-.5 25.2.7 15.4 2.1 31.5-.6 46.4 6.3 5 2.3 8.3 4.7 6.4 10.3-1.8 5.2-6.1 5.2-10.6 4.1-16-3.7-32.4.9-49.4-3.3ZM251.8 32c17.2.9 33.1-5 49.3-1.2 4 1 9 .7 8.8 7 0 6.2-4.7 7.4-9.5 8-19 2.2-38 4-56.9 6.4-5.7.7-11 .1-12.6-5.6-1.7-5.7 4-7.8 8-10 3.5-2.1 7.8-3.1 12.9-4.7Z" fill="#000"/></g></g></svg>