<svg xmlns="http://www.w3.org/2000/svg" viewBox="0 0 560 560" fill="none" shape-rendering="auto"><metadata xmlns:rdf="http://www.w3.org/1999/02/22-rdf-syntax-ns#" xmlns:xsi="http://www.w3.org/2001/XMLSchema-instance" xmlns:dc="http://purl.org/dc/elements/1.1/" xmlns:dcterms="http://purl.org/dc/terms/"><rdf:RDF><rdf:Description><dc:title>Notionists</dc:title><dc:creator>Zoish</dc:creator><dc:source xsi:type="dcterms:URI">https://heyzoish.gumroad.com/l/notionists</dc:source><dcterms:license xsi:type="dcterms:URI">https://creativecommons.org/publicdomain/zero/1.0/</dcterms:license><dc:rights>Remix of „Notionists” (https://heyzoish.gumroad.com/l/notionists) by „Zoish”, licensed under „CC0 1.0” (https://creativecommons.org/publicdomain/zero/1.0/)</dc:rights></rdf:Description></rdf:RDF></metadata><mask id="viewboxMask"><rect width="560" height="560" rx="0" ry="0" x="0" y="0" fill="#fff" /></mask><g mask="url(#viewboxMask)"><rect fill="#ffffff" width="560" height="560" x="0" y="0" /><g transform="translate(136 328)"><path d="M141.7 79c-3.2 7-5.7 14.2-6.1 22-.2 4.6.8 9.8 6 11.6 5.4 1.9 9.1-1 12.8-5.6 6-7.5 7.4-16.2 7.5-25.1 0-5 1.3-11.8-6.1-13.7-7.6-2-10.7 3.1-14 10.7Z" fill="#fff"/><path fill-rule="evenodd" clip-rule="evenodd" d="M140.4 59.5c-14.9 15-17.2 33.4-14.1 54.3 5.4 10.8 14 11.2 23.4 9.9 21.3-2.9 39.6-34.7 26-58.5-9.4-16.3-22-19-35.3-5.7Zm-4.8 41.4c.4-7.7 2.9-15 6.1-22 3.4-7.6 6.5-12.7 14-10.7 6.7 1.7 6.4 7.3 6.3 12v1.7a39.1 39.1 0 0 1-7.6 25.1c-3.7 4.6-7.4 7.5-12.8 5.6-5.2-1.8-6.2-7-6-11.7Z" fill="#000"/></g><g transform="translate(246 125)"><path d="M76.7 82.4a205.6 205.6 0 0 0 3.3 80.2c4.7 22.4-15.2 54.4-46.8 49.7-11-1.6-17.5-8.1-21.3-17.8-1.7-4.3-1.5-8.8 3.3-11 4-1.7 7.4-.2 9.4 4 4.8 10.1 13.4 9.4 21.9 6.9 9.6-2.9 16.4-9.6 17.1-19.9.7-10.1.2-20.3-1.6-30.4a159.3 159.3 0 0 1 8.8-89.5c2.2-5.7 5.4-10.9 11.9-8.3 7.5 3 1.8 8.8.7 13.1-1.7 7.4-4.2 14.7-6.7 23Z" fill="#000"/></g><g transform="translate(-45 137)"><path d="M419.6 111c-4.2-9.5-9.9-15.2-19.8-15.7-6-.3-7-5.1-8.9-9.8 2-1.5 3.5-3.7 5.3-3.8 21.1-1.7 42.4-1.8 63.5-.1 6 .4 9.3 8 3.2 10.4-10 4-12.5 13.2-18.5 19.8-8.2 9-15.2 9.1-24.8-.8ZM228.6 81.4c12.2.7 23.1 1 34 2 3.6.3 8 1.8 8 6.7 0 5.6-4.6 5.2-8.3 5.1-6.3 0-9.7 2.7-12.5 8.6-3.4 7.4-6.9 15.3-18 14.8-10.5-.5-15.1-7.2-18.1-15.2-2.2-5.7-5-8.4-11-8.2-3.4.1-7.1-.2-7.5-4.9-.4-5 3-6 7-7.2a67.9 67.9 0 0 1 26.4-1.7Z" fill="#000"/></g><g transform="translate(-45 137)"></g><g transform="translate(119 114)"><path d="M131.2 43.2c-5.6 16.8-6.6 15.4-23 11.6-26.2-6-52.7-19.2-80.3-4.3-2 1.1-5 1-7.6.8-3.6-.2-8.2 1.3-10.1-3.3-2.1-5 1.5-8.3 5.3-10.3C35.2 27.7 53 13.4 77.9 16c12.8 1.3 26-2.8 39.3-2.4 18.8.7 22.4 5.7 16 23.9l-2 5.8ZM298.7 21.8c9.6 6.6 12.5 16.8 18.3 25a7 7 0 0 1-.6 9.4c-2.4 2.7-5.4 2.8-8.1 1.2-19.1-11-38.9-6.4-58-1.2-10.2 2.7-14.6-.8-17.2-9.2-1.7-5.7-2.9-11.5-3.6-17.4-1.3-9.8 6.9-11.9 13-12.2 18.5-.9 37.4-4.5 56.2 4.4Z" fill="#000"/></g></g></svg>