<svg xmlns="http://www.w3.org/2000/svg" viewBox="0 0 560 560" fill="none" shape-rendering="auto"><metadata xmlns:rdf="http://www.w3.org/1999/02/22-rdf-syntax-ns#" xmlns:xsi="http://www.w3.org/2001/XMLSchema-instance" xmlns:dc="http://purl.org/dc/elements/1.1/" xmlns:dcterms="http://purl.org/dc/terms/"><rdf:RDF><rdf:Description><dc:title>Notionists</dc:title><dc:creator>Zoish</dc:creator><dc:source xsi:type="dcterms:URI">https://heyzoish.gumroad.com/l/notionists</dc:source><dcterms:license xsi:type="dcterms:URI">https://creativecommons.org/publicdomain/zero/1.0/</dcterms:license><dc:rights>Remix of „Notionists” (https://heyzoish.gumroad.com/l/notionists) by „Zoish”, licensed under „CC0 1.0” (https://creativecommons.org/publicdomain/zero/1.0/)</dc:rights></rdf:Description></rdf:RDF></metadata><mask id="viewboxMask"><rect width="560" height="560" rx="0" ry="0" x="0" y="0" fill="#fff" /></mask><g mask="url(#viewboxMask)"><rect fill="#ffffff" width="560" height="560" x="0" y="0" /><g transform="translate(136 328)"><path d="M130.4 84.6a46.5 46.5 0 0 1 28.5-7.8c6.2.5 10.7 3.5 11 9.9.3 7.4-5.7 7-10.8 7.1h-24c-5.5-.3-7.8-3-4.7-9.2Z" fill="#000"/></g><g transform="translate(246 125)"><path d="M109.6 185c-9.9 23.2-31.7 22.6-50.5 27.2-5.4 1.5-11.1 1-16.2-1.5.1-8.5 5.5-10.3 12-10.1 10.5.2 19.9-4 29.3-7.7 8.5-3.3 12-8.2 6.4-17.6-9-15.2-17.7-30.6-21.7-48.3a87.5 87.5 0 0 1 1.8-46.4c1.3-4 1.9-9.1 8-7.3 5 1.5 4.3 5.9 3.3 9.6-9.2 33 5 60 22.2 86.1 3 4.8 6.1 9.1 5.4 16Z" fill="#000"/></g><g transform="translate(-45 137)"><path d="M215.1 76.6c5-12 9-29.4 24.1-22.5 20.7 9.4 13.9 30.7 9.7 47.4-1.6 6.3-14.5 15.9-18.3 14.3-16.3-6.8-19.2-21.7-15.5-39.2ZM442 113.4c-8.6 7.5-17 7.6-22.2-1.5-9-16-8.6-32.8 3.3-47.2 2.5-3 13.8-3.6 16.3-1 14 15 14.6 31.8 2.6 49.7Z" fill="#000"/></g><g transform="translate(-45 137)"></g><g transform="translate(119 114)"><path d="M81.4 35C60 29.6 52 33.2 40 52.6c-2.4 4-3.4 11.4-10.6 7-5.6-3.4-5.3-8.8-2.6-14.6a51.4 51.4 0 0 1 38-30.7 33.1 33.1 0 0 1 37.5 26.4c.9 5.3.1 10-4.8 13.6-11.2-1.3-8-14.2-16-19.1ZM246.2 32.8c14-6.2 27-12.4 41.2-1.9 5.1 3.7 9 8.8 11.3 14.7 2 5 2.3 10.7-2.7 13.8-5.7 3.5-8.1-2.1-11-5.6-10.4-12.8-18.4-13.7-32.4-4.6-4 2.6-6.8 8-13.5 7-5.7-9.6-.1-16.3 7-23.4Z" fill="#000"/></g></g></svg>