<svg xmlns="http://www.w3.org/2000/svg" viewBox="0 0 560 560" fill="none" shape-rendering="auto"><metadata xmlns:rdf="http://www.w3.org/1999/02/22-rdf-syntax-ns#" xmlns:xsi="http://www.w3.org/2001/XMLSchema-instance" xmlns:dc="http://purl.org/dc/elements/1.1/" xmlns:dcterms="http://purl.org/dc/terms/"><rdf:RDF><rdf:Description><dc:title>Notionists</dc:title><dc:creator>Zoish</dc:creator><dc:source xsi:type="dcterms:URI">https://heyzoish.gumroad.com/l/notionists</dc:source><dcterms:license xsi:type="dcterms:URI">https://creativecommons.org/publicdomain/zero/1.0/</dcterms:license><dc:rights>Remix of „Notionists” (https://heyzoish.gumroad.com/l/notionists) by „Zoish”, licensed under „CC0 1.0” (https://creativecommons.org/publicdomain/zero/1.0/)</dc:rights></rdf:Description></rdf:RDF></metadata><mask id="viewboxMask"><rect width="560" height="560" rx="0" ry="0" x="0" y="0" fill="#fff" /></mask><g mask="url(#viewboxMask)"><rect fill="#ffffff" width="560" height="560" x="0" y="0" /><g transform="translate(136 328)"><path d="M185.6 59.2c7.2 8.7 9.1 20 20.2 25 4.5 2 2.4 7.7-2.9 9.1a31 31 0 0 1-10.1.5c-22.4-1.6-44.7-3.4-67.2.5-7.7 1.3-16-.3-24-.7-4.3-.2-7.5-2.4-8-6.8s3.5-6.4 6.5-6.5c13.7-.4 21-10.2 28.8-19 6.8-8 15-9.4 24.8-9.5 11.1-.2 22.7-4 32 7.4ZM170.2 119.5c-10 1.2-19.5 3.4-28-6.2 9.4-4.8 17.9-4.2 26-4.8 3-.2 6.9 1.9 7.6 5.7.5 2.9-2.3 4.1-5.6 5.3Z" fill="#000"/></g><g transform="translate(246 125)"><path d="m72.7 176.1.8 3.5c7.2 25.1-.3 33.5-27 30.2-5-.7-9.5-2.3-9.9-8-.5-5.9 4.6-6.1 8.8-7 4.6-.8 9-2 15.3-3.4a154 154 0 0 1-8.4-36.6c-2-15.8.7-30.4 5.8-45 2-5.7 5.6-10.6 12-7.9 5.6 2.4 3.2 8.1 1.4 12.4-8.6 20.4-7 40.7 1.2 61.8Z" fill="#000"/></g><g transform="translate(-45 137)"><path d="M215.1 76.6c5-12 9-29.4 24.1-22.5 20.7 9.4 13.9 30.7 9.7 47.4-1.6 6.3-14.5 15.9-18.3 14.3-16.3-6.8-19.2-21.7-15.5-39.2ZM442 113.4c-8.6 7.5-17 7.6-22.2-1.5-9-16-8.6-32.8 3.3-47.2 2.5-3 13.8-3.6 16.3-1 14 15 14.6 31.8 2.6 49.7Z" fill="#000"/></g><g transform="translate(-45 137)"><path d="M401.2 30c17.6.1 34.2-.2 50.6.5 9.6.4 19.2 2.3 28.7 3.8 3.4.6 6.2 2.3 7.5 6.1 8.7 25.6 12.5 51.2 1.5 77.2-5.7 13.7-14.6 21-30.8 21.2-26.3.3-52.7 2.5-79.1 2.2-17.3-.1-24.9-5.4-29.4-21.8C347 107 339.6 96 340 82.6c.3-7.3-6.8-8-12.2-8.6-9-1-15.7 2.5-19.6 10.8-2 4.4-1.8 9.2-1.8 13.9 0 14.5-6.9 26.2-15.8 36.6-10.8 12.7-25.9 8.5-39.6 7.5-22.8-1.6-45.6-4.5-68.4-6.4-12.7-1-23-7.7-23-20.4-.3-27.4-15.2-38.4-39.6-45.7-26.6-8-51.9-20.6-77.8-31-9.7-4-21-5.1-27.4-17.2 12.3-2.3 23.3 2 33.4 7a702 702 0 0 0 97 37.1c5.3 1.7 8.3-.4 10.4-4.5 2-4.2 3.2-8.8 5.3-12.9 9.5-18 24.6-24.3 47.4-21.2 22.2 3 44.4 6.4 67 7.4 25 1.2 30.1 7 32.3 28.6 10.5-.8 21-5 32-1.6 3.4 1 5.3-4 6.4-7 8-22.1 26.6-25 46.4-25.3 2.6 0 5.1 0 8.8.2Z" fill="#000"/></g><g transform="translate(119 114)"><path d="M104.9 38.7C82.4 47 60.2 43 38.3 43c-3 0-6.3-2.2-9.2-4-2.7-1.5-4.4-4-3-7.4 1.5-3.7 4-5 8-4.5 27.2 3.7 53.7.8 79.9-7 5-1.6 13.3-8 16.2 1.6 3 10.2-6.8 10.8-13.4 13l-12 3.9ZM260.5 33.1c-7.2 2.7-13.5 5.3-19.9 7.6-2.4.8-5.1.9-6.8-1.8-1.6-2.4-1-4.4.5-7 13.4-22 56.2-24.9 71-4.4 1.9 2.4 3.3 5 4.2 7.8 1.3 4.1 2.4 9.2-2.2 11.5-4.3 2.2-7.7-1.1-10.7-4.5-14-15.5-17-16.3-36-9.2Z" fill="#000"/></g></g></svg>