<svg xmlns="http://www.w3.org/2000/svg" viewBox="0 0 560 560" fill="none" shape-rendering="auto"><metadata xmlns:rdf="http://www.w3.org/1999/02/22-rdf-syntax-ns#" xmlns:xsi="http://www.w3.org/2001/XMLSchema-instance" xmlns:dc="http://purl.org/dc/elements/1.1/" xmlns:dcterms="http://purl.org/dc/terms/"><rdf:RDF><rdf:Description><dc:title>Notionists</dc:title><dc:creator>Zoish</dc:creator><dc:source xsi:type="dcterms:URI">https://heyzoish.gumroad.com/l/notionists</dc:source><dcterms:license xsi:type="dcterms:URI">https://creativecommons.org/publicdomain/zero/1.0/</dcterms:license><dc:rights>Remix of „Notionists” (https://heyzoish.gumroad.com/l/notionists) by „Zoish”, licensed under „CC0 1.0” (https://creativecommons.org/publicdomain/zero/1.0/)</dc:rights></rdf:Description></rdf:RDF></metadata><mask id="viewboxMask"><rect width="560" height="560" rx="0" ry="0" x="0" y="0" fill="#fff" /></mask><g mask="url(#viewboxMask)"><rect fill="#ffffff" width="560" height="560" x="0" y="0" /><g transform="translate(136 328)"><path d="M203 92.2c5.7-4 7-10.6 8.7-16.5 2-7-1.7-13-8.8-12-8.2 1-16.6 1.4-24.6 5a65 65 0 0 1-54 1.2c-8.1-3.7-16.7-6-25.5-7.1C86 61.3 80.5 67 81 79.5c.4 10.9 10.2 19.6 23.5 20.1 32 1.3 63.1-12.1 95.4-6 .4.1.8-.3 3-1.4Z" fill="#fff"/><path fill-rule="evenodd" clip-rule="evenodd" d="M123.6 54.3c-10-5.3-20.7-10.8-34-7.2C68.1 55.6 62.4 69.3 68.5 90c6.2 21 36.6 27.8 55.7 24.8 5.5-.8 11-2.3 16.6-3.8 13.8-3.6 27.6-7.2 42-1.8 13.1 5 23.4-.7 33-8 11-8.3 15.3-33 8.6-44.5-4.8-8.1-21.5-13-32.4-9a125 125 0 0 0-20.8 9.5c-14.3 8.6-27.5 7.1-42.1 0l-5.5-2.8ZM211 77.8c-1.5 5.4-3 11-8.1 14.4a62.1 62.1 0 0 0-3 1.4c-18.4-3.5-36.5-.6-54.6 2.3a208 208 0 0 1-40.8 3.7c-13.3-.5-23-9.2-23.5-20C80.5 67 86 61.2 98.8 62.7c8.8 1 17.4 3.4 25.5 7a65 65 0 0 0 54-1.1c6.6-3 13.4-3.7 20.2-4.5l4.4-.5c7.1-1 10.8 5 8.8 12l-.6 2.1Z" fill="#000"/></g><g transform="translate(246 125)"><path d="M68.7 106.5c6.5 23.1 15 44 30.2 62.1 6.2 7.4 3.6 18.1-3 24.6-13.8 13.4-29.3 24-50 15.6-5-2-9.2.5-13.7.9-9.5.8-16.6-1.5-16.6-14.3 13.2 2.4 25-7.3 38.9 1.2 6.2 3.9 17.9-.6 24.9-6 5.7-4.5 9.8-10.7 2.5-19.3-19-22.7-27-50.3-30-79.1a60 60 0 0 1 4.6-28.6C58.3 59 61.7 55 67.3 57c5.5 2 4.5 7.3 3 11-5.2 12.4-4 24.9-1.6 38.4Z" fill="#000"/></g><g transform="translate(-45 137)"><path d="M409.2 75.7c13.1.3 25.4 1 37.7 2.5 3 .3 4.9 3.3 5 6.6 0 3.4-1.8 5.7-4.8 7-11.1 4.9-22 8.3-33.7.2-6.5-4.4-8.9-8.6-4.2-16.3ZM254.7 78.4c6.2 3.3 5.2 7 2.1 10.8-6.5 8-28.2 10-36.4 3.5-4.7-3.8-7.3-8.6-4.4-14.4 3-6 8.2-5 13-2.5 8 4 16.4 3 25.7 2.6Z" fill="#000"/></g><g transform="translate(-45 137)"></g><g transform="translate(119 114)"><g fill="#000"><path d="M102.1 42.8c-8.7-12.1-25.2-16-38.8-12.5-12 3.2-21.7 11-33.6 14.4-4 1.1-7.5 2.7-9.7-2.1-1.9-3.9-1.5-7.4 2.2-10.3C41 18 75.8 5.4 100.9 19.4a45.7 45.7 0 0 1 15 15c3.3 4.7 4.5 11.6 0 15.1-5.9 4.6-10-1.2-13.8-6.7ZM288 48.8c-9.7-6.5-18.9-7.3-28-.8-3.2 2.3-6.7 4.8-10 .8-3.3-4.1-2.4-8.6 1.3-12.6 5.6-6.1 13.2-7.1 20.8-8a33.7 33.7 0 0 1 36.7 30c.2 4.3 0 9.1-5.2 10.3-4.7 1-8.3-1.7-10.2-5.9-1.9-4.2-3.2-8.7-5.4-13.8ZM191.6 30c5.2-6.6 8-15 14.5-20.6 2.5-2.1 4.4-5.5 8.5-3.2 3.7 2.1 4 5.9 3 9-3.1 8.6-6.7 17.1-10.7 25.4-2 4-7 5.5-11 4.2-6.6-2-5-7.9-4.4-13.9v-1Z"/><path d="M191.7 29.8c-2 4.2-3.6 8.5-5.7 12.6-1.6 3.1-4.2 5.8-8 4.6-4.6-1.4-5-5.3-4-9.3 1.2-4.1 2.5-8 4-12 2-4.7 1.5-12.4 9.3-11.3 8.4 1.3 4.4 8.4 4.4 14.4v1Z"/></g></g></g></svg>