<svg xmlns="http://www.w3.org/2000/svg" viewBox="0 0 560 560" fill="none" shape-rendering="auto"><metadata xmlns:rdf="http://www.w3.org/1999/02/22-rdf-syntax-ns#" xmlns:xsi="http://www.w3.org/2001/XMLSchema-instance" xmlns:dc="http://purl.org/dc/elements/1.1/" xmlns:dcterms="http://purl.org/dc/terms/"><rdf:RDF><rdf:Description><dc:title>Notionists</dc:title><dc:creator>Zoish</dc:creator><dc:source xsi:type="dcterms:URI">https://heyzoish.gumroad.com/l/notionists</dc:source><dcterms:license xsi:type="dcterms:URI">https://creativecommons.org/publicdomain/zero/1.0/</dcterms:license><dc:rights>Remix of „Notionists” (https://heyzoish.gumroad.com/l/notionists) by „Zoish”, licensed under „CC0 1.0” (https://creativecommons.org/publicdomain/zero/1.0/)</dc:rights></rdf:Description></rdf:RDF></metadata><mask id="viewboxMask"><rect width="560" height="560" rx="0" ry="0" x="0" y="0" fill="#fff" /></mask><g mask="url(#viewboxMask)"><rect fill="#ffffff" width="560" height="560" x="0" y="0" /><g transform="translate(136 328)"><g fill-rule="evenodd" clip-rule="evenodd"><path d="M141.4 72.2c-23-2.7-47.2-5.5-66.3 14.6-4 3.5-6.5 8.5-6.8 13.8-18.2-4.6-32-31.2-23.7-46.7 6.6-12.4 19.8-14.6 32.5-16.3 29-4 56.6 5 78.7 20.1 13.2 9.1 23.7 8.7 36 8.2h2.6l.8-.1c7-.3 14-.6 18.3 7 4.6 8.4 4.2 16.7-1.5 24-6.1 7.8-12.6 16-25 18.1-4-22.2-16-39.5-38.4-41.9l-7.2-.8Zm-19.7 33.7c-1.5-1.7-3-3.4-4.7-5-3.5-4-7.1-7.7-9.9-12-3.9-6.3-8.2-5.4-12.8-2.7-7 4.2-14.3 9-12.9 18.6 1 6 5.4 5.6 9.5 5.3 1 0 2-.2 3-.1h17.2c18-.4 35.9-.7 53 7 2.1 1 4.5.4 6-1.3-1.3-18.7-28-35.8-46.5-29.6 0 2 .8 4.3 1.7 6.4 1.9 4.6 3.7 9.2-3.6 13.4Z" fill="#fff"/><path d="M29.1 56c2.9-21.8 32-32.2 54.7-32.5 31.5-.5 61 9.1 87.7 26.1 5 3.4 11 4.5 16.8 3 19.4-4.3 32.8.4 38.1 11.8 10.4 22-.5 43.8-11.6 53.2-20.5 17-43.8 16.5-67.3 9.4a81.2 81.2 0 0 0-34.7-3c-32.1 4-59.2-5.9-76.6-34a49.7 49.7 0 0 1-7-34Zm46 30.8c19.1-20 43.3-17.3 66.3-14.6l7.2.8c22.4 2.4 34.5 19.7 38.5 42 12.3-2.3 18.8-10.4 25-18.3 5.6-7.2 6-15.5 1.4-23.8-4.2-7.7-11.3-7.4-18.3-7.1h-.8l-2.5.1c-12.4.5-22.9 1-36-8.2A112.4 112.4 0 0 0 77 37.6c-12.7 1.7-25.9 3.9-32.5 16.3-8.2 15.5 5.5 42.1 23.7 46.7.3-5.3 2.7-10.3 6.8-13.8Zm46.6 19-4.7-5c-3.5-3.8-7.1-7.6-9.9-12-3.9-6.2-8.2-5.3-12.8-2.6-7 4.2-14.3 9-12.9 18.6 1 6 5.4 5.6 9.5 5.3 1 0 2-.2 3-.1h17.2c18-.4 35.9-.7 53 7 2.1 1 4.5.4 6-1.3-1.3-18.7-28-35.8-46.5-29.6 0 2 .8 4.3 1.7 6.4 1.9 4.6 3.7 9.2-3.6 13.4Z" fill="#000"/></g></g><g transform="translate(246 125)"><path d="M82 57.5c4.9-6 9.2-11.2 13.8-16.2 2.5-2.8 6-4 9-1.2 3.5 3 1.3 5.8-.8 8.8C96 60.4 86 70.1 80.5 83.4c-4 9.8-5.3 19-2.3 29.6 5.8 19.9 10.5 40 15.1 60.2 3.3 14.4-2.3 23.8-16 29-4 1.6-7.9 3.2-11.7 5-16.4 8-30.4 1.5-44.4-8.6 3.8-8 9.6-10.7 18.5-5.7 8.7 5 32.7.6 39.6-6.8 4.5-5 1.4-9.7 0-14.4-5.8-19.7-14-38.7-15.6-59.8a68.6 68.6 0 0 1 18.4-54.4Z" fill="#000"/></g><g transform="translate(-45 137)"><path d="M407.4 122.5c13 .3 25.4 1.1 37.6 2.5 3 .4 5 3.3 5 6.7 0 3.3-1.7 5.6-4.7 7-11.2 4.8-22 8.2-33.7.2-6.5-4.5-9-8.7-4.2-16.4ZM247.6 117c7 0 7.8 3.8 7 8.5-2 10.2-20 22.4-30.4 20.5-5.9-1-10.5-4-10.7-10.5-.2-6.7 4.8-8.2 10.3-8.4 9-.3 15.8-5.2 23.8-10ZM215.1 76.6c5-12 9-29.4 24.1-22.5 20.7 9.4 13.9 30.7 9.7 47.4-1.6 6.3-14.5 15.9-18.3 14.3-16.3-6.8-19.2-21.7-15.5-39.2ZM442 113.4c-8.6 7.5-17 7.6-22.2-1.5-9-16-8.6-32.8 3.3-47.2 2.5-3 13.8-3.6 16.3-1 14 15 14.6 31.8 2.6 49.7Z" fill="#000"/></g><g transform="translate(-45 137)"></g><g transform="translate(119 114)"><path d="M131.2 43.2c-5.6 16.8-6.6 15.4-23 11.6-26.2-6-52.7-19.2-80.3-4.3-2 1.1-5 1-7.6.8-3.6-.2-8.2 1.3-10.1-3.3-2.1-5 1.5-8.3 5.3-10.3C35.2 27.7 53 13.4 77.9 16c12.8 1.3 26-2.8 39.3-2.4 18.8.7 22.4 5.7 16 23.9l-2 5.8ZM298.7 21.8c9.6 6.6 12.5 16.8 18.3 25a7 7 0 0 1-.6 9.4c-2.4 2.7-5.4 2.8-8.1 1.2-19.1-11-38.9-6.4-58-1.2-10.2 2.7-14.6-.8-17.2-9.2-1.7-5.7-2.9-11.5-3.6-17.4-1.3-9.8 6.9-11.9 13-12.2 18.5-.9 37.4-4.5 56.2 4.4Z" fill="#000"/></g></g></svg>