<svg xmlns="http://www.w3.org/2000/svg" viewBox="0 0 560 560" fill="none" shape-rendering="auto"><metadata xmlns:rdf="http://www.w3.org/1999/02/22-rdf-syntax-ns#" xmlns:xsi="http://www.w3.org/2001/XMLSchema-instance" xmlns:dc="http://purl.org/dc/elements/1.1/" xmlns:dcterms="http://purl.org/dc/terms/"><rdf:RDF><rdf:Description><dc:title>Notionists</dc:title><dc:creator>Zoish</dc:creator><dc:source xsi:type="dcterms:URI">https://heyzoish.gumroad.com/l/notionists</dc:source><dcterms:license xsi:type="dcterms:URI">https://creativecommons.org/publicdomain/zero/1.0/</dcterms:license><dc:rights>Remix of „Notionists” (https://heyzoish.gumroad.com/l/notionists) by „Zoish”, licensed under „CC0 1.0” (https://creativecommons.org/publicdomain/zero/1.0/)</dc:rights></rdf:Description></rdf:RDF></metadata><mask id="viewboxMask"><rect width="560" height="560" rx="0" ry="0" x="0" y="0" fill="#fff" /></mask><g mask="url(#viewboxMask)"><rect fill="#ffffff" width="560" height="560" x="0" y="0" /><g transform="translate(136 328)"><path d="M176 65c-3.3-2.8-6.4-5.1-11.4-2.8-7.9 3.6-16.1 6.5-24.3 9.8 8.5 11.3 17.4 21.9 23.8 34.4 4.2 8.3 11.8 14.4 22 10.5 9.4-3.5 9.3-12.6 8.4-20.7A42.6 42.6 0 0 0 176 65Z" fill="#fff"/><path fill-rule="evenodd" clip-rule="evenodd" d="M209 98v-4.9c1-6.4-.6-11.9-2-16.6l-1.3-5.2c3-5.6 7-3.3 10.7-1.1 4 2.3 7.5 4.3 9.2-2.9 1.8-7.2-2-15.5-10.5-20.3-7.8 8.7-16.3 7.7-25.4 2.7C183.2 46 176 44 169 47.3c-11 5-22.8 6.5-34.6 8.1L123 57l-2.5.4c-11.3 2-22.5 3.9-32.7-4.6-3.4-2.8-7.4-1-10.4 1.9-3 3-4 6.6-2.1 10.4 1.6 3.2 4 4.7 8.1 4.8 23.3.2 42.8 8.8 57.4 27.2 3 3.7 5.5 7.6 8 11.5 1.7 2.5 3.3 5 5 7.3 14 19.7 40.7 23.2 52.3-.4C209 110 209 104.3 209 98Zm-44.4-35.8c5-2.3 8.1 0 11.4 2.9a42.6 42.6 0 0 1 18.5 31c.9 8.2 1 17.3-8.4 20.8-10.2 4-17.8-2.2-22-10.5A185.7 185.7 0 0 0 144.9 78l-4.6-6 7.3-2.9a281 281 0 0 0 17-7Z" fill="#000"/></g><g transform="translate(246 125)"><path d="M45.4 194.6c-5 .2-8.7-.4-12-2.9-2.8-2-3.2-4.8-2.6-7.9.5-3.3 3.2-3.8 5.8-3.6 14.1.7 28-.5 41.1-6.4 3.2-1.5 6-.2 7.7 2.6 1.7 3.1 2 6.3-.8 9.4-5 5.8-11.2 9-19 8.8H45.5Z" fill="#000"/></g><g transform="translate(-45 137)"><path d="M215.1 76.6c5-12 9-29.4 24.1-22.5 20.7 9.4 13.9 30.7 9.7 47.4-1.6 6.3-14.5 15.9-18.3 14.3-16.3-6.8-19.2-21.7-15.5-39.2ZM442 113.4c-8.6 7.5-17 7.6-22.2-1.5-9-16-8.6-32.8 3.3-47.2 2.5-3 13.8-3.6 16.3-1 14 15 14.6 31.8 2.6 49.7Z" fill="#000"/></g><g transform="translate(-45 137)"></g><g transform="translate(119 114)"><path d="M131.2 43.2c-5.6 16.8-6.6 15.4-23 11.6-26.2-6-52.7-19.2-80.3-4.3-2 1.1-5 1-7.6.8-3.6-.2-8.2 1.3-10.1-3.3-2.1-5 1.5-8.3 5.3-10.3C35.2 27.7 53 13.4 77.9 16c12.8 1.3 26-2.8 39.3-2.4 18.8.7 22.4 5.7 16 23.9l-2 5.8ZM298.7 21.8c9.6 6.6 12.5 16.8 18.3 25a7 7 0 0 1-.6 9.4c-2.4 2.7-5.4 2.8-8.1 1.2-19.1-11-38.9-6.4-58-1.2-10.2 2.7-14.6-.8-17.2-9.2-1.7-5.7-2.9-11.5-3.6-17.4-1.3-9.8 6.9-11.9 13-12.2 18.5-.9 37.4-4.5 56.2 4.4Z" fill="#000"/></g></g></svg>