<svg xmlns="http://www.w3.org/2000/svg" viewBox="0 0 560 560" fill="none" shape-rendering="auto"><metadata xmlns:rdf="http://www.w3.org/1999/02/22-rdf-syntax-ns#" xmlns:xsi="http://www.w3.org/2001/XMLSchema-instance" xmlns:dc="http://purl.org/dc/elements/1.1/" xmlns:dcterms="http://purl.org/dc/terms/"><rdf:RDF><rdf:Description><dc:title>Notionists</dc:title><dc:creator>Zoish</dc:creator><dc:source xsi:type="dcterms:URI">https://heyzoish.gumroad.com/l/notionists</dc:source><dcterms:license xsi:type="dcterms:URI">https://creativecommons.org/publicdomain/zero/1.0/</dcterms:license><dc:rights>Remix of „Notionists” (https://heyzoish.gumroad.com/l/notionists) by „Zoish”, licensed under „CC0 1.0” (https://creativecommons.org/publicdomain/zero/1.0/)</dc:rights></rdf:Description></rdf:RDF></metadata><mask id="viewboxMask"><rect width="560" height="560" rx="0" ry="0" x="0" y="0" fill="#fff" /></mask><g mask="url(#viewboxMask)"><rect fill="#ffffff" width="560" height="560" x="0" y="0" /><g transform="translate(136 328)"><path d="M80.7 65.4c-1.1-4.6-2.8-8.8 2-10.8C86.7 53 90 55 93 58a76 76 0 0 0 34.4 21c27 6.7 51-.5 71.2-19.9 3.4-3.2 6.7-6.5 10.2-9.5 2.4-2 5.1-3.2 8-.7 3 2.7 1.5 5.4-.1 8-13.6 21.4-31.7 35.8-58.1 37-8 .3-16.1 1-24.1.8-22.4-.6-38-14.3-53.8-29.3ZM49.3 54.5c.4-15.5 8-25.4 19.7-33 4.7-3 9.4-4 14.5-2.7 3.3 1 6.5 2.7 7 6.6.7 4.3-2.4 5.6-6 6.8a30.5 30.5 0 0 0-21.4 22.9c-1 4.3-2 9-7 9.4-5.9.6-5.2-5.4-6.8-10ZM230.4 35c0-8.8 5.4-7.4 9.7-6 7.2 2.3 16 18.6 14.7 26.5-.4 2.5-.4 5.3-3.3 6.4-3.4 1.3-5.8-.4-7.5-3.1a710 710 0 0 1-13.6-23.9Z" fill="#000"/></g><g transform="translate(246 125)"><path d="M74.2 188c5.5-3.8 9.7-9.4 11.8-15.9a23 23 0 0 0-4.4-22.8c-5.3-6-12.4-3.7-19-1.7-4.2 1.3-9.5 5.3-12.2-1.2-2.4-5.6 1.8-10 6-12.7a28 28 0 0 1 26.8-2.8c11.9 4.7 16.4 14.5 18.1 25.8 6.7 44.3-31 54.4-60.7 52.5-2.1-.2-4.2-1-6-2.2-3.3-2.2-8.6-3.8-7.1-9.1 1.6-6 6.7-5 11.6-4 12 2.3 23.5.2 35-5.8Z" fill="#000"/></g><g transform="translate(-45 137)"><path d="M409.2 75.7c13.1.3 25.4 1 37.7 2.5 3 .3 4.9 3.3 5 6.6 0 3.4-1.8 5.7-4.8 7-11.1 4.9-22 8.3-33.7.2-6.5-4.4-8.9-8.6-4.2-16.3ZM254.7 78.4c6.2 3.3 5.2 7 2.1 10.8-6.5 8-28.2 10-36.4 3.5-4.7-3.8-7.3-8.6-4.4-14.4 3-6 8.2-5 13-2.5 8 4 16.4 3 25.7 2.6Z" fill="#000"/></g><g transform="translate(-45 137)"></g><g transform="translate(119 114)"><path d="M56.8 30.9c9.5-10.6 21.8-16.2 31.6-25C93 1.8 98 3 101.8 7.5c3.8 4.3 7.3 8.3 2.7 14.5a83 83 0 0 1-42.7 28.3C47.4 55 32 56.5 17 59.3c-4.5.9-10.2 3.3-11.5-3.6-1.2-6.6 3.2-10 9.5-11.2 14.2-2.8 28.4-5.2 41.8-13.6ZM289.9 29c11.3 2 18 11 27.8 14.2 3.8 1.2 8.4 4.7 6.6 9.5-2.1 5.8-8 4.3-12.2 3a450.2 450.2 0 0 1-39.2-14.5c-12.8-5.6-25.1-12.4-37.4-19-6-3.2-11.6-7.8-7.4-15.2 4.2-7.3 11-9.5 18.3-3.7C259.4 13.8 275 19.8 290 29Z" fill="#000"/></g></g></svg>