<svg xmlns="http://www.w3.org/2000/svg" viewBox="0 0 560 560" fill="none" shape-rendering="auto"><metadata xmlns:rdf="http://www.w3.org/1999/02/22-rdf-syntax-ns#" xmlns:xsi="http://www.w3.org/2001/XMLSchema-instance" xmlns:dc="http://purl.org/dc/elements/1.1/" xmlns:dcterms="http://purl.org/dc/terms/"><rdf:RDF><rdf:Description><dc:title>Notionists</dc:title><dc:creator>Zoish</dc:creator><dc:source xsi:type="dcterms:URI">https://heyzoish.gumroad.com/l/notionists</dc:source><dcterms:license xsi:type="dcterms:URI">https://creativecommons.org/publicdomain/zero/1.0/</dcterms:license><dc:rights>Remix of „Notionists” (https://heyzoish.gumroad.com/l/notionists) by „Zoish”, licensed under „CC0 1.0” (https://creativecommons.org/publicdomain/zero/1.0/)</dc:rights></rdf:Description></rdf:RDF></metadata><mask id="viewboxMask"><rect width="560" height="560" rx="0" ry="0" x="0" y="0" fill="#fff" /></mask><g mask="url(#viewboxMask)"><rect fill="#ffffff" width="560" height="560" x="0" y="0" /><g transform="translate(136 328)"><g fill-rule="evenodd" clip-rule="evenodd"><path d="M104.5 69.3c5.8 1.4 12 3 10 11.7-4 1.5-6.9-.3-9.8-2.1-3.5-2.1-7-4.2-12.2-1.2 1.5-8.5 5.9-10 11.2-8.6.3 0 .5 0 .8.2Zm93.3 5.8c3.4 3.2 1.2 7-1.4 10-1.3.5-2.5 1.1-3.6 1.7-3.5 1.9-6.4 3.4-10 1.6-3-5.4-2.7-10.4 3-13.7 3.8-2 8.6-2.6 12 .4Zm-24.2 13.2c1.2-7.3-1.2-11.4-9.3-10.4-4.9.7-9.6 1.9-8.8 8.2.7 6.6 5 6.2 9.1 5.8l3.6-.2c1.5.1 3-1.1 5.4-3.4ZM126.3 106l1.5-.3c1.5-.2 3-.5 3.2-3-16.9-.8-30.7-8.7-44.4-20.5a40.8 40.8 0 0 0 39.7 23.8Zm.2-20c2.4 6.8 7.8 6.8 13.3 5 3.8-1.4 3.5-5.4 3.3-8.7-.4-5-3.8-6-8-6.3-6.1-.5-8.2 2.8-8.6 10Z" fill="#fff"/><path d="M186.9 60.6a76.9 76.9 0 0 1-41 4.6c-13.1-.8-24.3-4.5-35.4-9C99.3 52 83.6 58.4 76 69.5c-6.7 10-6 20 3.5 30 10.8 11.5 24.3 20.7 40 19.6 9-.7 18-1.6 27-2.6 20.7-2.1 41.3-4.3 62.4-3 17.5 1 26.1-15.5 21.2-32.7-5.7-19.4-22.6-27.3-43.3-20.1Zm-22.6 17.3c8-1 10.5 3 9.3 10.4-2.4 2.3-4 3.5-5.4 3.4-1 0-2.3 0-3.6.2-4 .4-8.4.8-9.1-5.8-.8-6.3 4-7.5 8.8-8.2Zm-38 28 1.5-.3c1.5-.2 3-.5 3.2-3-16.9-.8-30.7-8.7-44.4-20.5a40.8 40.8 0 0 0 39.7 23.8Zm71.5-30.8c3.4 3.2 1.2 7-1.4 10-1.3.5-2.5 1.1-3.6 1.7-3.5 1.9-6.4 3.4-10 1.6-3-5.4-2.7-10.4 3-13.7 3.8-2 8.6-2.6 12 .4Zm-71.3 10.7c2.4 7 7.8 7 13.3 5 3.8-1.3 3.5-5.3 3.3-8.6-.4-5-3.8-6-8-6.3-6.1-.5-8.2 2.8-8.6 10Zm-22-16.5c5.8 1.4 12 3 10 11.7-4 1.5-6.9-.3-9.8-2.1-3.5-2.1-7-4.2-12.2-1.2 1.5-8.5 5.9-10 11.2-8.6.3 0 .5 0 .8.2Z" fill="#000"/></g></g><g transform="translate(246 125)"><path d="M45.4 194.6c-5 .2-8.7-.4-12-2.9-2.8-2-3.2-4.8-2.6-7.9.5-3.3 3.2-3.8 5.8-3.6 14.1.7 28-.5 41.1-6.4 3.2-1.5 6-.2 7.7 2.6 1.7 3.1 2 6.3-.8 9.4-5 5.8-11.2 9-19 8.8H45.5Z" fill="#000"/></g><g transform="translate(-45 137)"><path d="M409.2 75.7c13.1.3 25.4 1 37.7 2.5 3 .3 4.9 3.3 5 6.6 0 3.4-1.8 5.7-4.8 7-11.1 4.9-22 8.3-33.7.2-6.5-4.4-8.9-8.6-4.2-16.3ZM254.7 78.4c6.2 3.3 5.2 7 2.1 10.8-6.5 8-28.2 10-36.4 3.5-4.7-3.8-7.3-8.6-4.4-14.4 3-6 8.2-5 13-2.5 8 4 16.4 3 25.7 2.6Z" fill="#000"/></g><g transform="translate(-45 137)"></g><g transform="translate(119 114)"><path d="M56.8 30.9c9.5-10.6 21.8-16.2 31.6-25C93 1.8 98 3 101.8 7.5c3.8 4.3 7.3 8.3 2.7 14.5a83 83 0 0 1-42.7 28.3C47.4 55 32 56.5 17 59.3c-4.5.9-10.2 3.3-11.5-3.6-1.2-6.6 3.2-10 9.5-11.2 14.2-2.8 28.4-5.2 41.8-13.6ZM289.9 29c11.3 2 18 11 27.8 14.2 3.8 1.2 8.4 4.7 6.6 9.5-2.1 5.8-8 4.3-12.2 3a450.2 450.2 0 0 1-39.2-14.5c-12.8-5.6-25.1-12.4-37.4-19-6-3.2-11.6-7.8-7.4-15.2 4.2-7.3 11-9.5 18.3-3.7C259.4 13.8 275 19.8 290 29Z" fill="#000"/></g></g></svg>