<svg xmlns="http://www.w3.org/2000/svg" viewBox="0 0 560 560" fill="none" shape-rendering="auto"><metadata xmlns:rdf="http://www.w3.org/1999/02/22-rdf-syntax-ns#" xmlns:xsi="http://www.w3.org/2001/XMLSchema-instance" xmlns:dc="http://purl.org/dc/elements/1.1/" xmlns:dcterms="http://purl.org/dc/terms/"><rdf:RDF><rdf:Description><dc:title>Notionists</dc:title><dc:creator>Zoish</dc:creator><dc:source xsi:type="dcterms:URI">https://heyzoish.gumroad.com/l/notionists</dc:source><dcterms:license xsi:type="dcterms:URI">https://creativecommons.org/publicdomain/zero/1.0/</dcterms:license><dc:rights>Remix of „Notionists” (https://heyzoish.gumroad.com/l/notionists) by „Zoish”, licensed under „CC0 1.0” (https://creativecommons.org/publicdomain/zero/1.0/)</dc:rights></rdf:Description></rdf:RDF></metadata><mask id="viewboxMask"><rect width="560" height="560" rx="0" ry="0" x="0" y="0" fill="#fff" /></mask><g mask="url(#viewboxMask)"><rect fill="#ffffff" width="560" height="560" x="0" y="0" /><g transform="translate(136 328)"><path d="M175 75.5c8.2-5 11.5-.1 14.5 5.4-11.4 17-50 20.1-60.7 3.4 15-5.2 31.3-1.5 46.1-8.8Z" fill="#000"/></g><g transform="translate(246 125)"><path d="M65.7 103.7c-.6 21.6 16.4 30.6 27.5 43.5 8.5 10 18.5 18.7 13.7 34.4a39.6 39.6 0 0 1-40.8 27.6 104 104 0 0 1-36.4-11A22.2 22.2 0 0 1 19 187.6c-1.7-3.8-5.4-7.8-.5-11.4 4.6-3.4 7 0 10 3.7 11 13.3 26 16.4 42.6 15.7A23.2 23.2 0 0 0 93 180.8c3.6-8.3-1.6-15.2-6.3-20.8-9.3-11-20-20.5-27.4-33.2-8.3-14.2-7.6-44.1 2.2-57.4 1.9-2.5 3.6-5 7.2-3.1 3.8 2 3.4 5.5 2.2 9a69.3 69.3 0 0 0-5.2 28.4Z" fill="#000"/></g><g transform="translate(-45 137)"><path d="M409.2 75.7c13.1.3 25.4 1 37.7 2.5 3 .3 4.9 3.3 5 6.6 0 3.4-1.8 5.7-4.8 7-11.1 4.9-22 8.3-33.7.2-6.5-4.4-8.9-8.6-4.2-16.3ZM254.7 78.4c6.2 3.3 5.2 7 2.1 10.8-6.5 8-28.2 10-36.4 3.5-4.7-3.8-7.3-8.6-4.4-14.4 3-6 8.2-5 13-2.5 8 4 16.4 3 25.7 2.6Z" fill="#000"/></g><g transform="translate(-45 137)"></g><g transform="translate(119 114)"><path d="M15 39C23.8 24.6 37 20.4 51.9 19c23.2-2.3 44 8.5 65.9 12.8 8 1.5 6.8 7.5 1.4 10.7-9.4 5.7-19.5 11-31.2 7-22.5-7.6-45.1-12-68.6-4.1-6.2 2-5-2-4.2-6.3ZM255 29c15-2.6 28.7-5.3 42.2 1.5 10.8 5.5 15 14 12.9 25.5-5 3.1-7.5-.4-10.6-2.5-11.6-7.9-23.9-10-37.3-4.6-9.3 3.7-19.2 2.4-29 2.4-4.7 0-8.4-1.8-8.7-7-.4-5.5.9-10.8 6.9-12 7.3-1.7 15-2.2 23.7-3.3Z" fill="#000"/></g></g></svg>