<svg xmlns="http://www.w3.org/2000/svg" viewBox="0 0 560 560" fill="none" shape-rendering="auto"><metadata xmlns:rdf="http://www.w3.org/1999/02/22-rdf-syntax-ns#" xmlns:xsi="http://www.w3.org/2001/XMLSchema-instance" xmlns:dc="http://purl.org/dc/elements/1.1/" xmlns:dcterms="http://purl.org/dc/terms/"><rdf:RDF><rdf:Description><dc:title>Notionists</dc:title><dc:creator>Zoish</dc:creator><dc:source xsi:type="dcterms:URI">https://heyzoish.gumroad.com/l/notionists</dc:source><dcterms:license xsi:type="dcterms:URI">https://creativecommons.org/publicdomain/zero/1.0/</dcterms:license><dc:rights>Remix of „Notionists” (https://heyzoish.gumroad.com/l/notionists) by „Zoish”, licensed under „CC0 1.0” (https://creativecommons.org/publicdomain/zero/1.0/)</dc:rights></rdf:Description></rdf:RDF></metadata><mask id="viewboxMask"><rect width="560" height="560" rx="0" ry="0" x="0" y="0" fill="#fff" /></mask><g mask="url(#viewboxMask)"><rect fill="#ffffff" width="560" height="560" x="0" y="0" /><g transform="translate(136 328)"><path d="M80.7 65.4c-1.1-4.6-2.8-8.8 2-10.8C86.7 53 90 55 93 58a76 76 0 0 0 34.4 21c27 6.7 51-.5 71.2-19.9 3.4-3.2 6.7-6.5 10.2-9.5 2.4-2 5.1-3.2 8-.7 3 2.7 1.5 5.4-.1 8-13.6 21.4-31.7 35.8-58.1 37-8 .3-16.1 1-24.1.8-22.4-.6-38-14.3-53.8-29.3ZM49.3 54.5c.4-15.5 8-25.4 19.7-33 4.7-3 9.4-4 14.5-2.7 3.3 1 6.5 2.7 7 6.6.7 4.3-2.4 5.6-6 6.8a30.5 30.5 0 0 0-21.4 22.9c-1 4.3-2 9-7 9.4-5.9.6-5.2-5.4-6.8-10ZM230.4 35c0-8.8 5.4-7.4 9.7-6 7.2 2.3 16 18.6 14.7 26.5-.4 2.5-.4 5.3-3.3 6.4-3.4 1.3-5.8-.4-7.5-3.1a710 710 0 0 1-13.6-23.9Z" fill="#000"/></g><g transform="translate(246 125)"><path d="M68.7 106.5c6.5 23.1 15 44 30.2 62.1 6.2 7.4 3.6 18.1-3 24.6-13.8 13.4-29.3 24-50 15.6-5-2-9.2.5-13.7.9-9.5.8-16.6-1.5-16.6-14.3 13.2 2.4 25-7.3 38.9 1.2 6.2 3.9 17.9-.6 24.9-6 5.7-4.5 9.8-10.7 2.5-19.3-19-22.7-27-50.3-30-79.1a60 60 0 0 1 4.6-28.6C58.3 59 61.7 55 67.3 57c5.5 2 4.5 7.3 3 11-5.2 12.4-4 24.9-1.6 38.4Z" fill="#000"/></g><g transform="translate(-45 137)"><path d="M215.1 76.6c5-12 9-29.4 24.1-22.5 20.7 9.4 13.9 30.7 9.7 47.4-1.6 6.3-14.5 15.9-18.3 14.3-16.3-6.8-19.2-21.7-15.5-39.2ZM442 113.4c-8.6 7.5-17 7.6-22.2-1.5-9-16-8.6-32.8 3.3-47.2 2.5-3 13.8-3.6 16.3-1 14 15 14.6 31.8 2.6 49.7Z" fill="#000"/></g><g transform="translate(-45 137)"></g><g transform="translate(119 114)"><path d="M53.5 37.6a79.2 79.2 0 0 0 27.3-19.8c2.7-3 6.1-5.7 9.9-5 6.7 1.1 16.2-1 18.8 7.5 2.1 7-5.2 10.5-10.3 14.4-13.8 10.5-28.2 19-46.6 16.7-4.6-.5-9.7.2-11-6.2 1.6-5.5 7.3-4.9 11.9-7.6ZM251.4 15c8.5-1.7 12.6 4.1 17.1 8.2 8.1 7.4 14.7 16.4 26 19.8 3.3 1 5.7 4 4 8-1.5 3.5-4 5.7-8 4.6-14.3-3.8-29.2-5.9-40.6-16.8-10-9.6-10.2-14 1.5-23.7Z" fill="#000"/></g></g></svg>