<svg xmlns="http://www.w3.org/2000/svg" viewBox="0 0 560 560" fill="none" shape-rendering="auto"><metadata xmlns:rdf="http://www.w3.org/1999/02/22-rdf-syntax-ns#" xmlns:xsi="http://www.w3.org/2001/XMLSchema-instance" xmlns:dc="http://purl.org/dc/elements/1.1/" xmlns:dcterms="http://purl.org/dc/terms/"><rdf:RDF><rdf:Description><dc:title>Notionists</dc:title><dc:creator>Zoish</dc:creator><dc:source xsi:type="dcterms:URI">https://heyzoish.gumroad.com/l/notionists</dc:source><dcterms:license xsi:type="dcterms:URI">https://creativecommons.org/publicdomain/zero/1.0/</dcterms:license><dc:rights>Remix of „Notionists” (https://heyzoish.gumroad.com/l/notionists) by „Zoish”, licensed under „CC0 1.0” (https://creativecommons.org/publicdomain/zero/1.0/)</dc:rights></rdf:Description></rdf:RDF></metadata><mask id="viewboxMask"><rect width="560" height="560" rx="0" ry="0" x="0" y="0" fill="#fff" /></mask><g mask="url(#viewboxMask)"><rect fill="#ffffff" width="560" height="560" x="0" y="0" /><g transform="translate(136 328)"><path d="M130.4 84.6a46.5 46.5 0 0 1 28.5-7.8c6.2.5 10.7 3.5 11 9.9.3 7.4-5.7 7-10.8 7.1h-24c-5.5-.3-7.8-3-4.7-9.2Z" fill="#000"/></g><g transform="translate(246 125)"><path d="M65.7 103.7c-.6 21.6 16.4 30.6 27.5 43.5 8.5 10 18.5 18.7 13.7 34.4a39.6 39.6 0 0 1-40.8 27.6 104 104 0 0 1-36.4-11A22.2 22.2 0 0 1 19 187.6c-1.7-3.8-5.4-7.8-.5-11.4 4.6-3.4 7 0 10 3.7 11 13.3 26 16.4 42.6 15.7A23.2 23.2 0 0 0 93 180.8c3.6-8.3-1.6-15.2-6.3-20.8-9.3-11-20-20.5-27.4-33.2-8.3-14.2-7.6-44.1 2.2-57.4 1.9-2.5 3.6-5 7.2-3.1 3.8 2 3.4 5.5 2.2 9a69.3 69.3 0 0 0-5.2 28.4Z" fill="#000"/></g><g transform="translate(-45 137)"><path d="M419.6 111c-4.2-9.5-9.9-15.2-19.8-15.7-6-.3-7-5.1-8.9-9.8 2-1.5 3.5-3.7 5.3-3.8 21.1-1.7 42.4-1.8 63.5-.1 6 .4 9.3 8 3.2 10.4-10 4-12.5 13.2-18.5 19.8-8.2 9-15.2 9.1-24.8-.8ZM228.6 81.4c12.2.7 23.1 1 34 2 3.6.3 8 1.8 8 6.7 0 5.6-4.6 5.2-8.3 5.1-6.3 0-9.7 2.7-12.5 8.6-3.4 7.4-6.9 15.3-18 14.8-10.5-.5-15.1-7.2-18.1-15.2-2.2-5.7-5-8.4-11-8.2-3.4.1-7.1-.2-7.5-4.9-.4-5 3-6 7-7.2a67.9 67.9 0 0 1 26.4-1.7Z" fill="#000"/></g><g transform="translate(-45 137)"></g><g transform="translate(119 114)"><path d="M81.4 35C60 29.6 52 33.2 40 52.6c-2.4 4-3.4 11.4-10.6 7-5.6-3.4-5.3-8.8-2.6-14.6a51.4 51.4 0 0 1 38-30.7 33.1 33.1 0 0 1 37.5 26.4c.9 5.3.1 10-4.8 13.6-11.2-1.3-8-14.2-16-19.1ZM246.2 32.8c14-6.2 27-12.4 41.2-1.9 5.1 3.7 9 8.8 11.3 14.7 2 5 2.3 10.7-2.7 13.8-5.7 3.5-8.1-2.1-11-5.6-10.4-12.8-18.4-13.7-32.4-4.6-4 2.6-6.8 8-13.5 7-5.7-9.6-.1-16.3 7-23.4Z" fill="#000"/></g></g></svg>