<svg xmlns="http://www.w3.org/2000/svg" viewBox="0 0 560 560" fill="none" shape-rendering="auto"><metadata xmlns:rdf="http://www.w3.org/1999/02/22-rdf-syntax-ns#" xmlns:xsi="http://www.w3.org/2001/XMLSchema-instance" xmlns:dc="http://purl.org/dc/elements/1.1/" xmlns:dcterms="http://purl.org/dc/terms/"><rdf:RDF><rdf:Description><dc:title>Notionists</dc:title><dc:creator>Zoish</dc:creator><dc:source xsi:type="dcterms:URI">https://heyzoish.gumroad.com/l/notionists</dc:source><dcterms:license xsi:type="dcterms:URI">https://creativecommons.org/publicdomain/zero/1.0/</dcterms:license><dc:rights>Remix of „Notionists” (https://heyzoish.gumroad.com/l/notionists) by „Zoish”, licensed under „CC0 1.0” (https://creativecommons.org/publicdomain/zero/1.0/)</dc:rights></rdf:Description></rdf:RDF></metadata><mask id="viewboxMask"><rect width="560" height="560" rx="0" ry="0" x="0" y="0" fill="#fff" /></mask><g mask="url(#viewboxMask)"><rect fill="#ffffff" width="560" height="560" x="0" y="0" /><g transform="translate(136 328)"><g fill-rule="evenodd" clip-rule="evenodd"><path d="M104.5 69.3c5.8 1.4 12 3 10 11.7-4 1.5-6.9-.3-9.8-2.1-3.5-2.1-7-4.2-12.2-1.2 1.5-8.5 5.9-10 11.2-8.6.3 0 .5 0 .8.2Zm93.3 5.8c3.4 3.2 1.2 7-1.4 10-1.3.5-2.5 1.1-3.6 1.7-3.5 1.9-6.4 3.4-10 1.6-3-5.4-2.7-10.4 3-13.7 3.8-2 8.6-2.6 12 .4Zm-24.2 13.2c1.2-7.3-1.2-11.4-9.3-10.4-4.9.7-9.6 1.9-8.8 8.2.7 6.6 5 6.2 9.1 5.8l3.6-.2c1.5.1 3-1.1 5.4-3.4ZM126.3 106l1.5-.3c1.5-.2 3-.5 3.2-3-16.9-.8-30.7-8.7-44.4-20.5a40.8 40.8 0 0 0 39.7 23.8Zm.2-20c2.4 6.8 7.8 6.8 13.3 5 3.8-1.4 3.5-5.4 3.3-8.7-.4-5-3.8-6-8-6.3-6.1-.5-8.2 2.8-8.6 10Z" fill="#fff"/><path d="M186.9 60.6a76.9 76.9 0 0 1-41 4.6c-13.1-.8-24.3-4.5-35.4-9C99.3 52 83.6 58.4 76 69.5c-6.7 10-6 20 3.5 30 10.8 11.5 24.3 20.7 40 19.6 9-.7 18-1.6 27-2.6 20.7-2.1 41.3-4.3 62.4-3 17.5 1 26.1-15.5 21.2-32.7-5.7-19.4-22.6-27.3-43.3-20.1Zm-22.6 17.3c8-1 10.5 3 9.3 10.4-2.4 2.3-4 3.5-5.4 3.4-1 0-2.3 0-3.6.2-4 .4-8.4.8-9.1-5.8-.8-6.3 4-7.5 8.8-8.2Zm-38 28 1.5-.3c1.5-.2 3-.5 3.2-3-16.9-.8-30.7-8.7-44.4-20.5a40.8 40.8 0 0 0 39.7 23.8Zm71.5-30.8c3.4 3.2 1.2 7-1.4 10-1.3.5-2.5 1.1-3.6 1.7-3.5 1.9-6.4 3.4-10 1.6-3-5.4-2.7-10.4 3-13.7 3.8-2 8.6-2.6 12 .4Zm-71.3 10.7c2.4 7 7.8 7 13.3 5 3.8-1.3 3.5-5.3 3.3-8.6-.4-5-3.8-6-8-6.3-6.1-.5-8.2 2.8-8.6 10Zm-22-16.5c5.8 1.4 12 3 10 11.7-4 1.5-6.9-.3-9.8-2.1-3.5-2.1-7-4.2-12.2-1.2 1.5-8.5 5.9-10 11.2-8.6.3 0 .5 0 .8.2Z" fill="#000"/></g></g><g transform="translate(246 125)"><path d="M10.2 187.7c5-8.1 10.6-4.3 16.6-2.2 14.4 5 28.7 11 44 1.7 7.5-4.5 15.5-8.2 15.6-18.1 0-7.2-15-19.6-24.1-20.4-6.8-.6-13.7-.3-20.5-.5-4 0-8.2-.4-9.1-5-.9-4.5 2.5-7 6.2-8.7 21.8-10.6 68.2 8.4 62.8 40.3-1.6 9.3-14.4 25.4-23.7 27.4-17.3 3.7-34.7 4-51.9-.2-7.2-1.8-13-6-15.9-14.3Z" fill="#000"/></g><g transform="translate(-45 137)"><path d="M215.1 76.6c5-12 9-29.4 24.1-22.5 20.7 9.4 13.9 30.7 9.7 47.4-1.6 6.3-14.5 15.9-18.3 14.3-16.3-6.8-19.2-21.7-15.5-39.2ZM442 113.4c-8.6 7.5-17 7.6-22.2-1.5-9-16-8.6-32.8 3.3-47.2 2.5-3 13.8-3.6 16.3-1 14 15 14.6 31.8 2.6 49.7Z" fill="#000"/></g><g transform="translate(-45 137)"><path d="M474.1 17C499.7 31.2 503.5 68 495 84.7c-8 15.4-19.5 28.5-32.9 39.9a104.9 104.9 0 0 1-38.8 22.8c-7 2-13 .1-18.1-3.3-18.1-12-33.2-27.5-47.5-43.7-3-3.6-5.3-7.7-6.6-12.3-4.3-14.2-14.9-19.2-28.3-13a50.9 50.9 0 0 0-22.3 18.4 150.8 150.8 0 0 1-53.6 49.7c-14.2 8.1-23.5 6.4-37-3.6-13-9.7-24.9-20.8-35.4-33-8.4-9.8-16.8-19.4-15.7-33.5.3-4.6-2.5-7-6.5-8.3a14 14 0 0 0-3.7-.7c-21.3-1-41.3-9-62.6-10.3-16-1-30.9-8.7-46.5-12.6-4.5-1.2-8.7-3.8-13.2-4.6-6.5-1.2-7.8-5.5-9-11.6A65.5 65.5 0 0 1 52 29c18.3 7.3 38 8.5 57 12.8 15.5 3.6 31.5 5 47.7 10.1 4.5-17.5 11.5-32.7 29.6-40 19.9-8 33.2 3.2 48 15 15.2-8.1 31.4-17.3 49.7-9.8 18.4 7.4 22.8 24.7 26.2 42.7 11.6.4 22.8-3.5 34-.7 3.9-7 4.4-14.3 6.3-21.2a37.2 37.2 0 0 1 57.7-21.8c9.8 9 19 9.6 31.5 2.9a38.5 38.5 0 0 1 34.3-2.2Z" fill="#000"/></g><g transform="translate(119 114)"><path d="M57.5 41.8C51.3 41.3 46 41 41 41c-5.7-.2-8.5-3.4-9-8.8-.5-5.3 3-7 7.5-8.5 8.6-3 17.1-.5 25.2.7 15.4 2.1 31.5-.6 46.4 6.3 5 2.3 8.3 4.7 6.4 10.3-1.8 5.2-6.1 5.2-10.6 4.1-16-3.7-32.4.9-49.4-3.3ZM251.8 32c17.2.9 33.1-5 49.3-1.2 4 1 9 .7 8.8 7 0 6.2-4.7 7.4-9.5 8-19 2.2-38 4-56.9 6.4-5.7.7-11 .1-12.6-5.6-1.7-5.7 4-7.8 8-10 3.5-2.1 7.8-3.1 12.9-4.7Z" fill="#000"/></g></g></svg>